<svg width="30" height="25" viewBox="0 0 30 25" fill="none" xmlns="http://www.w3.org/2000/svg">
<path d="M12.1337 14.5557C11.7096 14.5557 11.3657 14.2118 11.3657 13.7877V4.43811C11.3657 4.07816 11.0729 3.78537 10.713 3.78537C10.3531 3.78537 10.0603 4.07816 10.0603 4.43811V13.7879C10.0603 14.212 9.71645 14.5558 9.29234 14.5558C8.86824 14.5558 8.52441 14.212 8.52441 13.7879V4.43811C8.52441 3.23131 9.50621 2.24951 10.713 2.24951C11.9198 2.24951 12.9016 3.23131 12.9016 4.43811V13.7879C12.9016 14.2119 12.5578 14.5557 12.1337 14.5557Z" fill="#8A8A8A"/>
<path d="M6.45105 14.5556C6.02695 14.5556 5.68312 14.2118 5.68312 13.7877V3.72766C5.68312 3.36772 5.39033 3.07492 5.03039 3.07492C4.67045 3.07492 4.37766 3.36772 4.37766 3.72766V5.69318C4.37766 6.11729 4.03383 6.46111 3.60973 6.46111C3.18562 6.46111 2.8418 6.11729 2.8418 5.69318V3.72766C2.8418 2.52086 3.82359 1.53906 5.03039 1.53906C6.23719 1.53906 7.21898 2.52086 7.21898 3.72766V13.7878C7.21898 14.2118 6.87516 14.5556 6.45105 14.5556Z" fill="#8A8A8A"/>
<path d="M9.29187 14.5555C8.86777 14.5555 8.52395 14.2117 8.52395 13.7876V2.30676C8.52395 1.94682 8.23115 1.65402 7.87121 1.65402C7.51127 1.65402 7.21848 1.94682 7.21848 2.30676V13.7877C7.21848 14.2118 6.87465 14.5556 6.45055 14.5556C6.02645 14.5556 5.68262 14.2118 5.68262 13.7877V2.30676C5.68262 1.09996 6.66441 0.118164 7.87121 0.118164C9.07801 0.118164 10.0598 1.09996 10.0598 2.30676V13.7877C10.0598 14.2118 9.71598 14.5555 9.29187 14.5555Z" fill="#8A8A8A"/>
<path d="M4.12031 22.3136C3.83988 22.3136 3.56965 22.1594 3.43441 21.892C3.15346 21.3364 2.74166 20.8452 2.2435 20.4716C0.838711 19.4178 0 17.7403 0 15.9842V9.82311C0 8.61632 0.981797 7.63452 2.18859 7.63452C3.39539 7.63452 4.37719 8.61632 4.37719 9.82311V13.1483C4.37719 13.5724 4.03336 13.9162 3.60926 13.9162C3.18516 13.9162 2.84133 13.5724 2.84133 13.1483V9.82311C2.84133 9.46317 2.54854 9.17038 2.18859 9.17038C1.82865 9.17038 1.53586 9.46317 1.53586 9.82311V15.9842C1.53586 17.2595 2.14488 18.4778 3.16512 19.243C3.85102 19.7575 4.41814 20.4339 4.80504 21.199C4.99641 21.5775 4.84477 22.0394 4.46625 22.2308C4.35516 22.287 4.23686 22.3136 4.12031 22.3136Z" fill="#8A8A8A"/>
<path d="M14.9745 14.5556C14.5504 14.5556 14.2066 14.2118 14.2066 13.7877V6.56921C14.2066 6.20927 13.9138 5.91647 13.5538 5.91647C13.1939 5.91647 12.9011 6.20927 12.9011 6.56921V13.7877C12.9011 14.2118 12.5573 14.5557 12.1332 14.5557C11.7091 14.5557 11.3652 14.2118 11.3652 13.7877V6.56921C11.3652 5.36241 12.347 4.38062 13.5538 4.38062C14.7606 4.38062 15.7424 5.36241 15.7424 6.56921V13.7877C15.7424 14.2118 15.3986 14.5556 14.9745 14.5556Z" fill="#8A8A8A"/>
<path d="M20.7079 14.5557C20.2838 14.5557 19.94 14.2118 19.94 13.7877V4.43811C19.94 4.07816 19.6472 3.78537 19.2872 3.78537C18.9273 3.78537 18.6345 4.07816 18.6345 4.43811V13.7879C18.6345 14.212 18.2907 14.5558 17.8666 14.5558C17.4425 14.5558 17.0986 14.212 17.0986 13.7879V4.43811C17.0986 3.23131 18.0804 2.24951 19.2872 2.24951C20.494 2.24951 21.4758 3.23131 21.4758 4.43811V13.7879C21.4758 14.2119 21.1321 14.5557 20.7079 14.5557Z" fill="#8A8A8A"/>
<path d="M23.5492 14.5556C23.1251 14.5556 22.7812 14.2118 22.7812 13.7877V3.72766C22.7812 2.52086 23.763 1.53906 24.9698 1.53906C26.1766 1.53906 27.1584 2.52086 27.1584 3.72766V5.69318C27.1584 6.11729 26.8146 6.46111 26.3905 6.46111C25.9664 6.46111 25.6226 6.11729 25.6226 5.69318V3.72766C25.6226 3.36772 25.3298 3.07492 24.9698 3.07492C24.6099 3.07492 24.3171 3.36772 24.3171 3.72766V13.7878C24.3171 14.2118 23.9733 14.5556 23.5492 14.5556Z" fill="#8A8A8A"/>
<path d="M23.5497 14.5555C23.1256 14.5555 22.7818 14.2117 22.7818 13.7876V2.30676C22.7818 1.94682 22.489 1.65402 22.129 1.65402C21.7691 1.65402 21.4763 1.94682 21.4763 2.30676V13.7877C21.4763 14.2118 21.1325 14.5556 20.7084 14.5556C20.2843 14.5556 19.9404 14.2118 19.9404 13.7877V2.30676C19.9404 1.09996 20.9222 0.118164 22.129 0.118164C23.3358 0.118164 24.3176 1.09996 24.3176 2.30676V13.7877C24.3176 14.2118 23.9738 14.5555 23.5497 14.5555Z" fill="#8A8A8A"/>
<path d="M25.8798 22.3137C25.7632 22.3137 25.6449 22.2871 25.5339 22.2309C25.1554 22.0395 25.0037 21.5775 25.1951 21.1991C25.582 20.4339 26.1491 19.7576 26.835 19.2429C27.8552 18.4778 28.4643 17.2595 28.4643 15.9842V9.82312C28.4643 9.46317 28.1715 9.17038 27.8115 9.17038C27.4516 9.17038 27.1588 9.46317 27.1588 9.82312V13.1483C27.1588 13.5724 26.815 13.9162 26.3909 13.9162C25.9668 13.9162 25.6229 13.5724 25.6229 13.1483V9.82312C25.6229 8.61632 26.6047 7.63452 27.8115 7.63452C29.0183 7.63452 30.0001 8.61632 30.0001 9.82312V15.9842C30.0001 17.7404 29.1614 19.4179 27.7566 20.4716C27.2585 20.8452 26.8467 21.3364 26.5657 21.8921C26.4304 22.1595 26.1602 22.3137 25.8798 22.3137Z" fill="#8A8A8A"/>
<path d="M17.8671 14.5556C17.443 14.5556 17.0991 14.2118 17.0991 13.7877V6.56921C17.0991 6.20927 16.8063 5.91647 16.4464 5.91647C16.0865 5.91647 15.7937 6.20927 15.7937 6.56921V13.7877C15.7937 14.2118 15.4498 14.5557 15.0257 14.5557C14.6016 14.5557 14.2578 14.2118 14.2578 13.7877V6.56921C14.2578 5.36241 15.2396 4.38062 16.4464 4.38062C17.6532 4.38062 18.635 5.36241 18.635 6.56921V13.7877C18.635 14.2118 18.2912 14.5556 17.8671 14.5556Z" fill="#8A8A8A"/>
<path d="M18.7605 8.58478C16.5154 8.58478 15.5081 9.84319 15.1118 10.5823C15.0621 10.6752 14.9269 10.675 14.8773 10.5821C14.4824 9.8429 13.4806 8.58472 11.2356 8.58472C8.6783 8.58472 6.42871 10.3305 6.42871 13.5183C6.42871 14.8083 6.69156 15.9134 7.42123 17.1467C8.9081 19.66 13.8063 22.9182 14.8124 23.5602C14.9237 23.6312 15.0646 23.6314 15.1759 23.5607C16.1829 22.9217 21.082 19.6797 22.5805 17.1467C23.3101 15.9134 23.5712 14.8083 23.5712 13.5183C23.5711 10.3305 21.3179 8.58478 18.7605 8.58478Z" fill="#B8E1FF"/>
<path d="M14.9949 24.3817C14.7838 24.3817 14.578 24.3216 14.3997 24.2077C13.7925 23.8203 8.41891 20.3408 6.76064 17.5378C6.00027 16.2525 5.66113 15.0129 5.66113 13.5184C5.66113 11.8008 6.24361 10.3416 7.34564 9.29844C8.35498 8.34307 9.73668 7.81689 11.236 7.81689C13.1683 7.81689 14.3286 8.6232 14.9999 9.4076C15.6532 8.65936 16.8199 7.81689 18.761 7.81689C20.2605 7.81689 21.6426 8.34301 22.6529 9.2982C23.7563 10.3415 24.3395 11.8009 24.3395 13.5184C24.3395 15.015 24.001 16.2545 23.2418 17.5378C21.5714 20.3616 16.1953 23.8238 15.5878 24.2093C15.4101 24.322 15.205 24.3817 14.9949 24.3817ZM11.2361 9.35275C9.22568 9.35275 7.19705 10.6408 7.19705 13.5184C7.19705 14.7384 7.46189 15.7066 8.08252 16.7558C9.42848 19.0309 13.9129 22.0545 14.9963 22.7642C17.1273 21.3877 20.7547 18.7254 21.9199 16.7558C22.5393 15.7088 22.8036 14.7406 22.8036 13.5184C22.8036 10.6408 20.7732 9.35275 18.7609 9.35275C17.0103 9.35275 16.1785 10.2188 15.7889 10.9453C15.632 11.238 15.3278 11.4198 14.9951 11.4198C14.6616 11.4198 14.3571 11.2374 14.2004 10.9439C13.8125 10.2181 12.9834 9.35275 11.2361 9.35275Z" fill="#8A8A8A"/>
</svg>
