<svg width="15" height="15" viewBox="0 0 15 15" fill="none" xmlns="http://www.w3.org/2000/svg">
<path fill-rule="evenodd" clip-rule="evenodd" d="M10.6643 2.12815L12.8878 4.35384C14.3967 5.86425 15.1512 6.61946 14.9752 7.43358C14.7991 8.24762 13.8002 8.62292 11.8023 9.37352L10.4193 9.89319C9.88429 10.0942 9.61677 10.1947 9.41029 10.3735C9.31984 10.4518 9.23899 10.5404 9.16924 10.6376C9.00994 10.8596 8.93412 11.1353 8.78232 11.6868C8.43717 12.9412 8.2646 13.5685 7.85368 13.803C7.6805 13.9018 7.4846 13.9536 7.28526 13.9533C6.81223 13.9526 6.35264 13.4926 5.43353 12.5725L4.33403 11.472L3.52474 10.6622L2.46381 9.59994C1.55048 8.6857 1.09381 8.22857 1.09084 7.7584C1.08956 7.55508 1.14235 7.35513 1.24377 7.17903C1.4784 6.77163 2.10104 6.59996 3.34632 6.25669C3.89881 6.10436 4.17506 6.02824 4.39711 5.86835C4.49674 5.79662 4.58737 5.71312 4.66702 5.61966C4.84453 5.41137 4.94319 5.1421 5.14052 4.60355L5.64149 3.23628C6.38166 1.21616 6.75178 0.206101 7.568 0.0260118C8.3843 -0.154069 9.14427 0.606673 10.6643 2.12815Z" fill="#8A8A8A"/>
<path d="M0.976762 14.8322L4.33378 11.472L3.52449 10.6621L0.167585 14.0222C-0.0558615 14.2459 -0.0558615 14.6085 0.167585 14.8322C0.391031 15.0559 0.753316 15.0559 0.976762 14.8322Z" fill="#8A8A8A"/>
</svg>
