<svg width="20" height="20" viewBox="0 0 20 20" fill="none" xmlns="http://www.w3.org/2000/svg">
<path d="M10.9374 1.09761C14.6288 1.51949 17.6405 4.11324 18.6171 7.7148C18.9686 9.01558 18.9999 10.6718 18.6913 11.9765C18.5194 12.7187 18.0858 13.8867 17.871 14.1914C17.8397 14.2382 17.8124 14.3125 17.8124 14.3554C17.8124 14.3984 17.9725 14.957 18.1639 15.5976C18.3593 16.2421 18.5272 16.8554 18.5389 16.9687C18.5858 17.3671 18.3827 17.875 18.0507 18.1757C17.7694 18.4296 17.2772 18.5898 16.9374 18.5351C16.8514 18.5195 16.1522 18.3242 15.3905 18.0976C13.91 17.6601 13.8436 17.6328 13.7264 17.3554C13.5702 16.9921 13.7968 16.5937 14.203 16.5078C14.2929 16.4882 14.66 16.582 15.6991 16.8945C16.5038 17.1367 17.1054 17.2968 17.1522 17.2851C17.3358 17.2265 17.3241 17.164 16.9452 15.9257C16.6054 14.8164 16.5858 14.7265 16.5819 14.3945V14.0429L16.8827 13.4179C17.4452 12.2382 17.6952 11.1875 17.6952 9.98824C17.6991 5.69917 14.2382 2.22652 9.96082 2.22652C8.85926 2.22652 7.8827 2.42574 6.88661 2.85152C3.11317 4.47261 1.25379 8.80855 2.68348 12.6562C3.62098 15.1757 5.78504 17.0273 8.41395 17.5585C9.1327 17.7031 9.85145 17.75 10.496 17.6992C11.0585 17.6523 11.6327 17.5507 12.0741 17.4179C12.3983 17.3242 12.5429 17.3242 12.7304 17.4179C13.0936 17.6054 13.1718 18.082 12.8827 18.3828C12.7616 18.5117 12.535 18.5937 11.8749 18.746C11.0429 18.9414 9.87879 18.996 8.93739 18.8867C5.91395 18.5351 3.28504 16.6835 1.9491 13.9648C1.51942 13.0898 1.26942 12.3007 1.10535 11.3085C1.0077 10.707 1.0077 9.30074 1.10535 8.69136C1.26942 7.68745 1.50379 6.95308 1.92957 6.07417C2.39442 5.12886 2.91786 4.39449 3.64442 3.66402C5.0702 2.23824 7.00379 1.31636 9.03114 1.09761C9.46864 1.04683 10.5116 1.05074 10.9374 1.09761Z" fill="#505050"/>
<path d="M10.465 4.4375C11.3829 4.68359 11.9806 5.57812 11.8478 6.50781C11.6993 7.53125 10.7267 8.25781 9.71887 8.08984C8.21887 7.84375 7.6134 6.05468 8.66028 4.95703C9.12122 4.47265 9.83606 4.26953 10.465 4.4375ZM9.66028 5.72656C9.48059 5.86328 9.40247 6 9.38294 6.21875C9.37122 6.39062 9.38294 6.44921 9.46106 6.55859C9.6134 6.78515 9.74231 6.85546 10.0001 6.85546C10.172 6.85546 10.2579 6.83593 10.34 6.77343C10.7345 6.48046 10.7228 5.98828 10.3126 5.71093C10.1993 5.63281 10.1407 5.62109 9.96887 5.63281C9.84778 5.64453 9.71887 5.68359 9.66028 5.72656Z" fill="#505050"/>
<path d="M10.5039 8.61717C10.9688 8.74217 11.4492 9.12889 11.6523 9.54295C11.8711 9.98826 11.875 10.0547 11.875 12.0547C11.875 13.1133 11.8594 13.9844 11.8359 14.1055C11.6992 14.8437 11.0703 15.4531 10.3047 15.5898C9.33203 15.7656 8.35156 15.082 8.16406 14.1055C8.14062 13.9805 8.125 13.1445 8.125 12.0547C8.125 10.0508 8.12891 9.98826 8.34766 9.54295C8.47656 9.27733 8.82031 8.92576 9.08984 8.78123C9.49219 8.56248 10.0547 8.49608 10.5039 8.61717ZM9.6875 9.8867C9.60547 9.93358 9.50391 10.0351 9.45703 10.1172C9.375 10.2617 9.375 10.3047 9.375 12.0976V13.9336L9.46484 14.0664C9.60156 14.2695 9.78516 14.375 10 14.375C10.2148 14.375 10.3984 14.2695 10.5352 14.0664L10.625 13.9336V12.0976C10.625 10.3047 10.625 10.2617 10.543 10.1172C10.3789 9.8242 9.98828 9.71873 9.6875 9.8867Z" fill="#505050"/>
</svg>
