<svg width="25" height="25" viewBox="0 0 25 25" fill="none" xmlns="http://www.w3.org/2000/svg">
<path d="M10.0018 0.697754C11.493 0.697754 12.162 1.53354 12.4252 2.02446C12.4583 2.08613 12.548 2.08608 12.581 2.02432C12.8433 1.5334 13.5087 0.697754 14.9997 0.697754C16.6982 0.697754 18.1924 1.85723 18.1924 3.97456C18.1924 4.83135 18.0177 5.56533 17.5332 6.38447C16.5457 8.05376 13.2923 10.2178 12.6241 10.6442C12.5502 10.6914 12.4566 10.6915 12.3826 10.6445C11.7138 10.2201 8.45991 8.06685 7.46465 6.38442C6.98003 5.56523 6.80664 4.8313 6.80664 3.97451C6.80669 1.85723 8.30332 0.697754 10.0018 0.697754Z" fill="#FF5E5E"/>
<path d="M12.5035 11.3773C12.3284 11.3773 12.1576 11.3277 12.0095 11.2338C11.6017 10.975 7.996 8.6522 6.8646 6.7397C6.34229 5.85693 6.10938 5.00415 6.10938 3.97451C6.10938 2.78086 6.51704 1.76445 7.28828 1.03511C7.99429 0.367627 8.95811 0 10.0021 0C11.2347 0 12.0234 0.487207 12.5027 0.97124C12.9813 0.487207 13.7688 0 15.0001 0C16.0441 0 17.0076 0.367773 17.713 1.0354C18.4833 1.7645 18.8905 2.78086 18.8905 3.97451C18.8905 5.00259 18.6572 5.85542 18.1341 6.7397C17.0104 8.63931 13.4069 10.9726 12.9998 11.2323C12.8512 11.3272 12.6795 11.3773 12.5035 11.3773ZM10.0021 1.39541C8.75908 1.39541 7.50474 2.19292 7.50474 3.97451C7.50474 4.76069 7.66719 5.35601 8.06548 6.02915C8.80249 7.27485 11.1576 9.01074 12.5027 9.8915C13.8477 9.00664 16.2013 7.26621 16.9331 6.02915C17.3322 5.35444 17.495 4.75923 17.495 3.97451C17.495 2.19292 16.2419 1.39541 15 1.39541C13.9324 1.39541 13.4301 1.91616 13.1967 2.35308C13.0597 2.60933 12.794 2.76826 12.5033 2.76826C12.213 2.76826 11.9476 2.60967 11.8106 2.35425C11.5762 1.91675 11.0721 1.39541 10.0021 1.39541Z" fill="#8A8A8A"/>
<path d="M20.4192 24.9999H4.58086C3.6397 24.9999 2.87402 24.2342 2.87402 23.2931V13.2034C2.87402 12.2623 3.6397 11.4966 4.58086 11.4966H9.33154C9.71685 11.4966 10.0292 11.809 10.0292 12.1943V14.4026H15.6686C16.0539 14.4026 16.3663 14.7151 16.3663 15.1003C16.3663 15.4856 16.0539 15.798 15.6686 15.798H9.33154C8.94629 15.798 8.63384 15.4856 8.63384 15.1003V12.892H4.58086C4.40913 12.892 4.26948 13.0317 4.26948 13.2034V23.293C4.26948 23.4647 4.40918 23.6044 4.58086 23.6044H20.4192C20.591 23.6044 20.7306 23.4647 20.7306 23.293V13.2034C20.7306 13.0317 20.5909 12.892 20.4192 12.892H15.6686C15.2833 12.892 14.9708 12.5796 14.9708 12.1943C14.9708 11.8091 15.2833 11.4966 15.6686 11.4966H20.4192C21.3604 11.4966 22.1261 12.2623 22.1261 13.2035V23.2931C22.1261 24.2342 21.3604 24.9999 20.4192 24.9999Z" fill="#8A8A8A"/>
<path d="M8.55322 19.69H7.43184V21.2171C7.43184 21.3975 7.21206 21.4876 6.99229 21.4876C6.77251 21.4876 6.55273 21.3975 6.55273 21.2171V17.6333C6.55273 17.4473 6.77246 17.3684 6.99229 17.3684C7.21201 17.3684 7.43184 17.4473 7.43184 17.6333V19.0138H8.55322V17.6333C8.55322 17.4473 8.77295 17.3684 8.99272 17.3684C9.2125 17.3684 9.43228 17.4473 9.43228 17.6333V21.2171C9.43228 21.3975 9.21255 21.4876 8.99272 21.4876C8.773 21.4876 8.55322 21.3975 8.55322 21.2171V19.69Z" fill="#8A8A8A"/>
<path d="M10.9201 19.0871H11.7653C11.9343 19.0871 12.0301 19.2505 12.0301 19.4308C12.0301 19.583 11.9512 19.7633 11.7653 19.7633H10.9201V20.7212H12.4303C12.5993 20.7212 12.6951 20.9016 12.6951 21.1101C12.6951 21.2903 12.6162 21.4876 12.4303 21.4876H10.4242C10.2326 21.4876 10.041 21.3975 10.041 21.2171V17.6389C10.041 17.4585 10.2326 17.3684 10.4242 17.3684H12.4303C12.6162 17.3684 12.6951 17.5657 12.6951 17.7459C12.6951 17.9544 12.5993 18.1348 12.4303 18.1348H10.9201V19.0871Z" fill="#8A8A8A"/>
<path d="M13.4613 21.4876C13.2697 21.4876 13.0781 21.3975 13.0781 21.2171V17.6333C13.0781 17.4473 13.2979 17.3684 13.5177 17.3684C13.7374 17.3684 13.9572 17.4473 13.9572 17.6333V20.7213H15.242C15.411 20.7213 15.4956 20.9129 15.4956 21.1045C15.4956 21.2961 15.411 21.4877 15.242 21.4877H13.4613V21.4876Z" fill="#8A8A8A"/>
<path d="M15.8496 17.6333C15.8496 17.4923 15.9792 17.3684 16.1765 17.3684H17.3429C18.0868 17.3684 18.6729 17.7178 18.6729 18.6645V18.6926C18.6729 19.6393 18.0643 20 17.2866 20H16.7288V21.2171C16.7288 21.3975 16.509 21.4876 16.2893 21.4876C16.0695 21.4876 15.8497 21.3975 15.8497 21.2171V17.6333H15.8496V17.6333ZM16.7288 18.1348V19.3237H17.2866C17.6021 19.3237 17.7938 19.1434 17.7938 18.7603V18.6982C17.7938 18.315 17.6022 18.1348 17.2866 18.1348H16.7288Z" fill="#8A8A8A"/>
</svg>
