<svg width="24" height="22" viewBox="0 0 24 22" fill="none" xmlns="http://www.w3.org/2000/svg">
<path d="M17.6207 21.9428C17.3138 21.9425 17.0139 21.8506 16.7595 21.6789L11.579 18.2067C11.5535 18.1891 11.5232 18.1796 11.4922 18.1796C11.4612 18.1796 11.4309 18.1891 11.4054 18.2067L6.22482 21.6789C5.96468 21.8526 5.65785 21.9431 5.34508 21.9383C5.03232 21.9335 4.72841 21.8337 4.47371 21.6521C4.21902 21.4705 4.0256 21.2157 3.91912 20.9216C3.81265 20.6274 3.79817 20.3079 3.8776 20.0053L5.57899 14.0053C5.58704 13.9751 5.58606 13.9433 5.57619 13.9137C5.56631 13.884 5.54797 13.858 5.52344 13.8386L0.620658 9.98448C0.362559 9.79221 0.171108 9.52398 0.0731471 9.2174C-0.0248134 8.91083 -0.0243702 8.58128 0.0744146 8.27497C0.173199 7.96867 0.365372 7.70095 0.623987 7.50937C0.882602 7.3178 1.19469 7.21196 1.51649 7.2067L7.76649 6.97059C7.79722 6.96847 7.82668 6.95751 7.85132 6.93903C7.87597 6.92055 7.89474 6.89533 7.90538 6.86643L10.0582 1.01226C10.1667 0.71548 10.3638 0.459215 10.6227 0.278158C10.8817 0.0971017 11.1901 0 11.5061 0C11.8221 0 12.1304 0.0971017 12.3894 0.278158C12.6484 0.459215 12.8455 0.71548 12.954 1.01226L15.1068 6.86643C15.1174 6.89533 15.1362 6.92055 15.1608 6.93903C15.1855 6.95751 15.2149 6.96847 15.2457 6.97059L21.4957 7.2067C21.8175 7.21196 22.1295 7.3178 22.3882 7.50937C22.6468 7.70095 22.8389 7.96867 22.9377 8.27497C23.0365 8.58128 23.037 8.91083 22.939 9.2174C22.841 9.52398 22.6496 9.79221 22.3915 9.98448L17.4887 13.8386C17.4634 13.8573 17.4445 13.8834 17.4346 13.9132C17.4246 13.943 17.4241 13.9752 17.4332 14.0053L19.1345 20.0053C19.1943 20.2355 19.2002 20.4763 19.1519 20.7091C19.1035 20.9419 19.0022 21.1604 18.8559 21.3478C18.7095 21.5351 18.5219 21.6862 18.3077 21.7894C18.0935 21.8926 17.8584 21.9451 17.6207 21.9428ZM11.4957 16.79C11.8032 16.7994 12.1008 16.9011 12.3498 17.0817L17.5304 20.5539C17.5566 20.5739 17.5886 20.5848 17.6216 20.5851C17.6546 20.5853 17.6868 20.5749 17.7133 20.5554C17.7399 20.5358 17.7594 20.5082 17.769 20.4767C17.7786 20.4451 17.7777 20.4113 17.7665 20.3803L16.0651 14.3803C15.9814 14.086 15.9876 13.7733 16.0828 13.4825C16.1781 13.1918 16.3582 12.9361 16.5998 12.7484L21.5026 8.8942C21.5293 8.87542 21.5494 8.84855 21.5597 8.81755C21.5701 8.78655 21.5702 8.75304 21.5601 8.72196C21.55 8.69088 21.5302 8.66385 21.5036 8.64486C21.477 8.62586 21.445 8.6159 21.4123 8.61643L15.1623 8.38031C14.8563 8.36839 14.5608 8.26558 14.3134 8.085C14.066 7.90443 13.878 7.65427 13.7734 7.36643L11.6207 1.51226C11.611 1.48117 11.5916 1.45401 11.5653 1.43471C11.5391 1.41542 11.5074 1.40502 11.4748 1.40502C11.4423 1.40502 11.4106 1.41542 11.3843 1.43471C11.3581 1.45401 11.3387 1.48117 11.329 1.51226L9.19705 7.35948C9.09243 7.64732 8.90446 7.89748 8.65709 8.07806C8.40973 8.25863 8.11419 8.36144 7.80816 8.37337L1.55816 8.60948C1.52548 8.60895 1.49349 8.61892 1.4669 8.63791C1.4403 8.65691 1.4205 8.68393 1.4104 8.71502C1.40029 8.7461 1.40043 8.7796 1.41077 8.8106C1.42112 8.84161 1.44114 8.86847 1.46788 8.88726L6.3776 12.7484C6.61853 12.9367 6.79802 13.1924 6.89323 13.483C6.98845 13.7736 6.9951 14.0859 6.91232 14.3803L5.21788 20.3803C5.20777 20.4104 5.20772 20.4429 5.21774 20.473C5.22777 20.503 5.24732 20.529 5.27344 20.547C5.29859 20.5685 5.33061 20.5803 5.36371 20.5803C5.39682 20.5803 5.42883 20.5685 5.45399 20.547L10.6345 17.0748C10.8877 16.9068 11.1849 16.8174 11.4887 16.8178L11.4957 16.79Z" fill="#8A8A8A"/>
</svg>
