<svg width="20" height="20" viewBox="0 0 20 20" fill="none" xmlns="http://www.w3.org/2000/svg">
<path d="M19.1619 8.25573L19.162 8.25589C19.3026 8.15119 19.4068 8.00513 19.4602 7.8382C19.5135 7.67126 19.5133 7.49182 19.4595 7.32503C19.4057 7.15824 19.301 7.01246 19.1602 6.90814C19.0194 6.80382 18.8495 6.74619 18.6742 6.74333L18.6635 6.74316L18.6635 6.74304L13.2333 6.5379L13.2255 6.5376L13.2177 6.53707C13.0948 6.52858 12.977 6.48474 12.8784 6.41083C12.7801 6.3371 12.7052 6.23659 12.6626 6.12135L19.1619 8.25573ZM19.1619 8.25573L19.1508 8.26448L14.8769 11.6402C14.7766 11.7171 14.7015 11.8223 14.6615 11.9423C14.6209 12.0643 14.6183 12.1957 14.6542 12.3191L16.1318 17.53L16.1327 17.5328C16.1803 17.6971 16.1759 17.8721 16.12 18.0337C16.0642 18.195 15.96 18.335 15.8216 18.4347C15.6816 18.534 15.5143 18.5873 15.3428 18.5873C15.1709 18.5873 15.0033 18.5338 14.8633 18.4342L14.8634 18.434L14.8519 18.4263L10.3526 15.4107C10.2478 15.3394 10.1239 15.3013 9.99698 15.3013C9.87014 15.3013 9.74627 15.3394 9.64141 15.4107L5.14209 18.4263L5.13978 18.4279C4.99703 18.5247 4.82791 18.5752 4.65544 18.5725C4.48297 18.5698 4.31551 18.5141 4.17585 18.4128C4.03618 18.3116 3.9311 18.1698 3.87488 18.0067C3.81867 17.8436 3.81405 17.6672 3.86168 17.5014L3.8623 17.4992L5.32847 12.3042L5.32853 12.3043L5.33039 12.2972C5.36256 12.1766 5.35867 12.0491 5.31918 11.9307C5.27969 11.8122 5.20635 11.7079 5.10821 11.6307L5.10801 11.6305L0.848264 8.28187L0.848368 8.28174L0.83796 8.27399C0.69742 8.16929 0.593171 8.02323 0.53983 7.8563C0.486489 7.68936 0.48673 7.50992 0.54052 7.34313C0.594311 7.17634 0.698952 7.03056 0.839773 6.92624C0.980593 6.82192 1.15053 6.76429 1.32576 6.76143L1.32576 6.76155L1.33647 6.76114L6.76674 6.556L6.77453 6.5557L6.7823 6.55517C6.9052 6.54668 7.02303 6.50284 7.12157 6.42893C7.22013 6.35502 7.2952 6.25418 7.33776 6.13858L7.33782 6.13842L9.20825 1.05206L9.20856 1.05119C9.26765 0.889593 9.37497 0.750051 9.51599 0.651463C9.65701 0.552874 9.82492 0.5 9.99698 0.5C10.169 0.5 10.337 0.552874 10.478 0.651463C10.619 0.750051 10.7263 0.889593 10.7854 1.0512L10.7861 1.0531L12.6622 6.12048L19.1619 8.25573Z" stroke="#FFEE58"/>
</svg>
