<svg width="12" height="12" viewBox="0 0 12 12" fill="none" xmlns="http://www.w3.org/2000/svg">
<path d="M1.15885 7.49108L1.93682 6.71265C2.04069 6.61078 2.18035 6.55371 2.3258 6.55371C2.47125 6.55371 2.61091 6.61078 2.71478 6.71265L5.44322 9.44272V10.9996H3.88729L1.15885 8.26951C1.05703 8.16558 1 8.02584 1 7.8803C1 7.73476 1.05703 7.59502 1.15885 7.49108Z" fill="#B7E1FF"/>
<path d="M1.15885 7.49108L1.93682 6.71265C2.04069 6.61078 2.18035 6.55371 2.3258 6.55371C2.47125 6.55371 2.61091 6.61078 2.71478 6.71265L5.44322 9.44272V10.9996H3.88729L1.15885 8.26951C1.05703 8.16558 1 8.02584 1 7.8803C1 7.73476 1.05703 7.59502 1.15885 7.49108Z" stroke="#8A8A8A" stroke-linecap="round" stroke-linejoin="round"/>
<path d="M6.79899 7.66327C7.44587 7.61567 8.06483 7.38031 8.58004 6.98601C9.09525 6.59172 9.48433 6.05562 9.69961 5.4434C9.9149 4.83117 9.94703 4.1694 9.79209 3.53918C9.63714 2.90895 9.30184 2.33763 8.82726 1.89522C8.35268 1.4528 7.75944 1.15851 7.12021 1.04838C6.48099 0.938253 5.82354 1.01708 5.22842 1.27521C4.63329 1.53334 4.12634 1.95955 3.76966 2.50163C3.41299 3.04372 3.22209 3.67813 3.22034 4.32714C3.21757 4.37715 3.21757 4.42726 3.22034 4.47727" stroke="#8A8A8A" stroke-linecap="round" stroke-linejoin="round"/>
<path d="M9.01634 6.67969C9.58764 6.8503 10.0889 7.20025 10.4462 7.67785C10.8034 8.15545 10.9976 8.73536 11.0002 9.33191V9.88793C11.0002 9.88793 10.1388 10.7942 7.66602 11" stroke="#8A8A8A" stroke-linecap="round" stroke-linejoin="round"/>
</svg>
