<svg width="30" height="30" viewBox="0 0 30 30" fill="none" xmlns="http://www.w3.org/2000/svg">
<circle cx="15" cy="15" r="14.75" fill="url(#paint0_linear_855_13)" stroke="#96D3FF" stroke-width="0.5"/>
<g clip-path="url(#clip0_855_13)">
<path d="M14.3383 13.1696C14.5419 13.0904 14.6307 12.8873 14.5365 12.716C14.4423 12.5447 14.2009 12.47 13.9972 12.5492C12.9329 12.9633 12.1126 13.7866 11.7378 14.7829C11.6701 14.9629 11.7886 15.1549 12.0025 15.2119C12.2164 15.2688 12.4447 15.1691 12.5124 14.9892C12.8252 14.1577 13.5011 13.4953 14.3383 13.1696Z" fill="white"/>
<path fill-rule="evenodd" clip-rule="evenodd" d="M15.7922 10.7875C14.9641 10.4966 14.0359 10.4966 13.2078 10.7875C10.7914 11.636 9.21875 13.6551 9.21875 15.8909V16.0115C9.21875 18.4095 11.4805 20.3666 14.2896 20.3666H14.7104C17.5195 20.3666 19.7812 18.4095 19.7812 16.0115V15.8909C19.7812 13.6551 18.2086 11.636 15.7922 10.7875ZM13.5208 11.4182C14.1486 11.1977 14.8514 11.1977 15.4792 11.4182C17.5854 12.1579 18.9688 13.9238 18.9688 15.8909V16.0115C18.9688 18.0466 17.0537 19.6831 14.7104 19.6831H14.2896C11.9463 19.6831 10.0312 18.0466 10.0312 16.0115V15.8909C10.0312 13.9238 11.4145 12.1579 13.5208 11.4182Z" fill="white"/>
</g>
<path d="M19.4372 8.21856C19.5155 8.18809 19.5497 8.10997 19.5134 8.04408C19.4772 7.97819 19.3844 7.94947 19.306 7.97994C18.8967 8.1392 18.5812 8.45587 18.437 8.83905C18.411 8.90826 18.4566 8.98214 18.5388 9.00405C18.6211 9.02595 18.7089 8.98761 18.7349 8.91839C18.8553 8.5986 19.1152 8.34383 19.4372 8.21856Z" fill="white"/>
<path fill-rule="evenodd" clip-rule="evenodd" d="M19.997 7.30264C19.6785 7.19079 19.3215 7.19079 19.003 7.30264C18.0736 7.62902 17.4688 8.40558 17.4688 9.26551V9.3119C17.4688 10.2342 18.3386 10.9869 19.4191 10.9869H19.5809C20.6614 10.9869 21.5312 10.2342 21.5312 9.3119V9.26551C21.5312 8.40558 20.9264 7.62902 19.997 7.30264ZM19.1234 7.54525C19.3649 7.46045 19.6351 7.46045 19.8766 7.54525C20.6867 7.82974 21.2188 8.50894 21.2188 9.26551V9.3119C21.2188 10.0946 20.4822 10.724 19.5809 10.724H19.4191C18.5178 10.724 17.7812 10.0946 17.7812 9.3119V9.26551C17.7812 8.50894 18.3133 7.82974 19.1234 7.54525Z" fill="white"/>
<g clip-path="url(#clip1_855_13)">
<path d="M23.4629 17.7315C23.5099 17.7132 23.5304 17.6664 23.5086 17.6268C23.4869 17.5873 23.4312 17.5701 23.3842 17.5884C23.1386 17.6839 22.9493 17.8739 22.8628 18.1038C22.8472 18.1453 22.8745 18.1897 22.9239 18.2028C22.9732 18.216 23.0259 18.193 23.0416 18.1514C23.1137 17.9595 23.2697 17.8067 23.4629 17.7315Z" fill="white"/>
<path fill-rule="evenodd" clip-rule="evenodd" d="M23.7982 17.1822C23.6071 17.1151 23.3929 17.1151 23.2018 17.1822C22.6442 17.378 22.2812 17.8439 22.2812 18.3599V18.3877C22.2812 18.9411 22.8032 19.3927 23.4514 19.3927H23.5486C24.1968 19.3927 24.7188 18.9411 24.7188 18.3877V18.3599C24.7188 17.8439 24.3558 17.378 23.7982 17.1822ZM23.274 17.3277C23.4189 17.2769 23.5811 17.2769 23.726 17.3277C24.212 17.4984 24.5312 17.906 24.5312 18.3599V18.3877C24.5312 18.8574 24.0893 19.235 23.5486 19.235H23.4514C22.9107 19.235 22.4688 18.8574 22.4688 18.3877V18.3599C22.4688 17.906 22.788 17.4984 23.274 17.3277Z" fill="white"/>
</g>
<defs>
<linearGradient id="paint0_linear_855_13" x1="15" y1="0" x2="15" y2="30" gradientUnits="userSpaceOnUse">
<stop offset="0.34" stop-color="#0085FF"/>
<stop offset="0.915" stop-color="white"/>
</linearGradient>
<clipPath id="clip0_855_13">
<rect width="13" height="10.9365" fill="white" transform="translate(8 10)"/>
</clipPath>
<clipPath id="clip1_855_13">
<rect width="3" height="2.52381" fill="white" transform="translate(22 17)"/>
</clipPath>
</defs>
</svg>
