<svg width="145" height="57" viewBox="0 0 145 57" fill="none" xmlns="http://www.w3.org/2000/svg">
<path d="M36.8254 12.6089C37.0448 12.5437 37.1403 12.3765 37.0389 12.2355C36.9375 12.0945 36.6775 12.0331 36.4582 12.0983C35.312 12.4391 34.4286 13.1166 34.0249 13.9365C33.952 14.0846 34.0796 14.2426 34.31 14.2895C34.5404 14.3364 34.7862 14.2543 34.8591 14.1062C35.196 13.422 35.9239 12.8769 36.8254 12.6089Z" fill="white"/>
<path fill-rule="evenodd" clip-rule="evenodd" d="M38.3916 10.6482C37.4998 10.4089 36.5002 10.4089 35.6084 10.6482C33.0061 11.3466 31.3125 13.0081 31.3125 14.848V14.9473C31.3125 16.9207 33.7482 18.5312 36.7734 18.5312H37.2266C40.2518 18.5312 42.6875 16.9207 42.6875 14.9473V14.848C42.6875 13.0081 40.9939 11.3466 38.3916 10.6482ZM35.9454 11.1673C36.6216 10.9859 37.3784 10.9859 38.0546 11.1673C40.3228 11.776 41.8125 13.2293 41.8125 14.848V14.9473C41.8125 16.622 39.7501 17.9687 37.2266 17.9687H36.7734C34.2499 17.9687 32.1875 16.622 32.1875 14.9473V14.848C32.1875 13.2293 33.6772 11.776 35.9454 11.1673Z" fill="white"/>
<path d="M133.213 40.3482C133.574 40.2395 133.73 39.9609 133.564 39.726C133.397 39.491 132.97 39.3886 132.61 39.4973C130.727 40.0652 129.275 41.1944 128.612 42.5609C128.493 42.8077 128.702 43.0711 129.081 43.1492C129.459 43.2274 129.863 43.0906 129.983 42.8438C130.536 41.7034 131.732 40.7949 133.213 40.3482Z" fill="white"/>
<path fill-rule="evenodd" clip-rule="evenodd" d="M135.786 37.0804C134.321 36.6815 132.679 36.6815 131.214 37.0804C126.939 38.2443 124.156 41.0135 124.156 44.0801V44.2455C124.156 47.5344 128.158 50.2187 133.128 50.2187H133.872C138.842 50.2187 142.844 47.5344 142.844 44.2455V44.0801C142.844 41.0135 140.061 38.2443 135.786 37.0804ZM131.768 37.9456C132.878 37.6431 134.122 37.6431 135.232 37.9456C138.959 38.96 141.406 41.3821 141.406 44.0801V44.2455C141.406 47.0367 138.018 49.2812 133.872 49.2812H133.128C128.982 49.2812 125.594 47.0367 125.594 44.2455V44.0801C125.594 41.3821 128.041 38.96 131.768 37.9456Z" fill="white"/>
<g clip-path="url(#clip0_125_131)">
<path d="M141.412 29.4495C141.522 29.4133 141.57 29.3204 141.519 29.2421C141.468 29.1637 141.339 29.1296 141.229 29.1658C140.656 29.3551 140.214 29.7316 140.012 30.187C139.976 30.2693 140.04 30.3571 140.155 30.3832C140.27 30.4092 140.393 30.3636 140.429 30.2813C140.598 29.9012 140.962 29.5984 141.412 29.4495Z" fill="white"/>
<path fill-rule="evenodd" clip-rule="evenodd" d="M142.196 28.3602C141.75 28.2273 141.25 28.2273 140.804 28.3602C139.503 28.7482 138.656 29.6713 138.656 30.6934V30.7486C138.656 31.8449 139.874 32.7397 141.387 32.7397H141.613C143.126 32.7397 144.344 31.8449 144.344 30.7486V30.6934C144.344 29.6713 143.497 28.7482 142.196 28.3602ZM140.973 28.6486C141.311 28.5478 141.689 28.5478 142.027 28.6486C143.161 28.9868 143.906 29.7941 143.906 30.6934V30.7486C143.906 31.679 142.875 32.4272 141.613 32.4272H141.387C140.125 32.4272 139.094 31.679 139.094 30.7486V30.6934C139.094 29.7941 139.839 28.9868 140.973 28.6486Z" fill="white"/>
</g>
<path d="M11.2132 36.2177C11.5735 36.0873 11.7305 35.753 11.5638 35.4711C11.3973 35.1891 10.9701 35.0662 10.6098 35.1966C8.72677 35.8781 7.27548 37.2332 6.61231 38.8729C6.49252 39.1691 6.70222 39.4852 7.08067 39.579C7.45912 39.6727 7.86302 39.5086 7.9828 39.2125C8.53625 37.844 9.73206 36.7537 11.2132 36.2177Z" fill="white"/>
<path fill-rule="evenodd" clip-rule="evenodd" d="M13.7862 32.2965C12.3211 31.8178 10.6789 31.8178 9.21378 32.2965C4.93861 33.6932 2.15625 37.0162 2.15625 40.6961V40.8946C2.15625 44.8413 6.15775 48.0625 11.1277 48.0625H11.8723C16.8422 48.0625 20.8438 44.8413 20.8438 40.8946V40.6961C20.8438 37.0162 18.0614 33.6932 13.7862 32.2965ZM9.76752 33.3347C10.8783 32.9718 12.1217 32.9718 13.2325 33.3347C16.9589 34.5521 19.4062 37.4585 19.4062 40.6961V40.8946C19.4062 44.244 16.0181 46.9375 11.8723 46.9375H11.1277C6.98194 46.9375 3.59375 44.244 3.59375 40.8946V40.6961C3.59375 37.4585 6.0411 34.5521 9.76752 33.3347Z" fill="white"/>
<path d="M27.28 35.76C27.52 36.04 28.24 35.76 28.04 35.24C26.52 31.88 23.28 27.88 18.92 27.24C14.36 26.48 11.48 24.12 11.48 19.44C11.48 14.32 16.96 11 24.36 11C29.92 11 38.04 13.04 37.64 19.16C37.4 23.12 34.56 24.48 31.64 24.48C29.48 24.48 27.8 23.32 26.2 21.92C24.52 20.44 23.28 19.48 21.56 17.76C20.96 17.16 20.32 17.88 20.84 18.4C22.84 20.64 26.04 24.04 32.12 26.52C35.68 27.96 39.08 31.08 38.64 36.64C38.2 42.52 32.16 45.88 25.12 45.88C17.88 45.88 12.2 42.48 11.28 36.44C10.64 32.2 12.04 27.96 17.36 27.96C22.4 27.96 25.2 32.04 27.28 35.76ZM56.8838 45.88C45.8438 45.88 40.9638 39.2 40.9638 28.44C40.9638 17.68 45.1638 11 56.8838 11C68.6438 11 72.8038 17.68 72.8038 28.44C72.8038 39.2 67.9238 45.88 56.8838 45.88ZM55.4438 31.04C55.0438 31.6 56.2838 32.16 56.8038 31.48C57.9238 29.88 58.2038 27.72 58.2438 25.72C58.2838 24.8 56.8838 24.84 56.8438 25.48C56.7238 27.44 56.3638 29.12 55.4438 31.04ZM82.0663 45.52C79.0663 45.2 75.9863 42.76 75.7063 38.56C75.3063 31.6 75.4263 25.36 75.7463 18.32C75.9863 14.08 79.0663 11.68 82.0663 11.36C84.1063 11.16 86.5063 11 88.8663 11C97.9063 10.92 104.466 15.72 104.466 27.76C104.506 39.76 97.9063 45.84 88.9463 45.88C86.5463 45.88 84.1463 45.72 82.0663 45.52ZM88.6663 30.16C88.3463 30.76 89.5463 31.36 90.0663 30.6C91.1463 29.08 91.4663 26.88 91.5063 24.92C91.5063 23.96 90.1063 24 90.1063 24.64C89.9863 26.6 89.6263 28.24 88.6663 30.16ZM118.505 38.76C118.665 41.92 117.545 45.6 112.905 45.6C109.825 45.6 107.585 43.64 107.385 40.56C107.225 36.64 107.145 32.56 107.145 28.48C107.145 18.92 109.985 11.4 120.465 11.4C130.985 11.4 133.865 18.92 133.865 28.48C133.865 32.56 133.785 36.64 133.585 40.56C133.425 43.64 131.145 45.6 128.025 45.6C123.465 45.6 122.265 41.88 122.425 38.76C120.705 39.2 120.265 39.2 118.505 38.76ZM123.905 27.84C122.305 26.64 120.185 26.36 118.185 26.28C117.265 26.24 117.265 27.64 117.945 27.72C119.905 27.84 121.545 28.2 123.425 29.2C123.985 29.52 124.625 28.28 123.905 27.84Z" fill="white"/>
<defs>
<clipPath id="clip0_125_131">
<rect width="7" height="5" fill="white" transform="translate(138 28)"/>
</clipPath>
</defs>
</svg>
