<svg width="312" height="115" viewBox="0 0 312 115" fill="none" xmlns="http://www.w3.org/2000/svg">
<path d="M92.7255 14.2177C93.0702 14.0873 93.2203 13.753 93.0609 13.4711C92.9016 13.1891 92.4931 13.0662 92.1484 13.1966C90.3472 13.8781 88.959 15.2332 88.3247 16.8729C88.2101 17.1691 88.4107 17.4852 88.7727 17.579C89.1347 17.6727 89.521 17.5086 89.6356 17.2125C90.165 15.844 91.3088 14.7537 92.7255 14.2177Z" fill="white"/>
<path fill-rule="evenodd" clip-rule="evenodd" d="M95.1868 10.2965C93.7854 9.81784 92.2146 9.81784 90.8132 10.2965C86.7239 11.6932 84.0625 15.0162 84.0625 18.6961V18.8946C84.0625 22.8413 87.89 26.0625 92.6439 26.0625H93.3561C98.11 26.0625 101.938 22.8413 101.938 18.8946V18.6961C101.938 15.0162 99.2761 11.6932 95.1868 10.2965ZM91.3428 11.3347C92.4054 10.9718 93.5946 10.9718 94.6572 11.3347C98.2215 12.5521 100.562 15.4585 100.562 18.6961V18.8946C100.562 22.244 97.3216 24.9375 93.3561 24.9375H92.6439C88.6784 24.9375 85.4375 22.244 85.4375 18.8946V18.6961C85.4375 15.4585 87.7784 12.5521 91.3428 11.3347Z" fill="white"/>
<path d="M30.7142 62.3638C31.7012 61.9799 32.1312 60.9956 31.6747 60.1653C31.2184 59.3351 30.0485 58.9733 29.0615 59.3572C23.9036 61.3638 19.9283 65.3538 18.1118 70.182C17.7837 71.054 18.3581 71.9848 19.3947 72.2609C20.4313 72.5369 21.5377 72.0537 21.8658 71.1817C23.3818 67.1522 26.6572 63.9421 30.7142 62.3638Z" fill="white"/>
<path fill-rule="evenodd" clip-rule="evenodd" d="M37.7622 50.8175C33.7491 49.4082 29.2509 49.4082 25.2377 50.8175C13.5275 54.9299 5.90625 64.7145 5.90625 75.5496V76.1342C5.90625 87.7551 16.8669 97.2397 30.4802 97.2397H32.5198C46.1331 97.2397 57.0938 87.7551 57.0938 76.1342V75.5496C57.0938 64.7145 49.4726 54.9299 37.7622 50.8175ZM26.7545 53.8744C29.7972 52.8059 33.2028 52.8059 36.2455 53.8744C46.4525 57.4589 53.1562 66.0169 53.1562 75.5496V76.1342C53.1562 85.9964 43.8756 93.9272 32.5198 93.9272H30.4802C19.1244 93.9272 9.84375 85.9964 9.84375 76.1342V75.5496C9.84375 66.0169 16.5474 57.4589 26.7545 53.8744Z" fill="white"/>
<mask id="path-5-inside-1_139_1610" fill="white">
<path d="M66.56 72.52C67.04 73.08 68.48 72.52 68.08 71.48C65.04 64.76 58.56 56.76 49.84 55.48C40.72 53.96 34.96 49.24 34.96 39.88C34.96 29.64 45.92 23 60.72 23C71.84 23 88.08 27.08 87.28 39.32C86.8 47.24 81.12 49.96 75.28 49.96C70.96 49.96 67.6 47.64 64.4 44.84C61.04 41.88 58.56 39.96 55.12 36.52C53.92 35.32 52.64 36.76 53.68 37.8C57.68 42.28 64.08 49.08 76.24 54.04C83.36 56.92 90.16 63.16 89.28 74.28C88.4 86.04 76.32 92.76 62.24 92.76C47.76 92.76 36.4 85.96 34.56 73.88C33.28 65.4 36.08 56.92 46.72 56.92C56.8 56.92 62.4 65.08 66.56 72.52ZM125.768 92.76C103.688 92.76 93.9275 79.4 93.9275 57.88C93.9275 36.36 102.328 23 125.768 23C149.288 23 157.608 36.36 157.608 57.88C157.608 79.4 147.848 92.76 125.768 92.76ZM122.888 63.08C122.088 64.2 124.568 65.32 125.608 63.96C127.848 60.76 128.408 56.44 128.488 52.44C128.568 50.6 125.768 50.68 125.688 51.96C125.448 55.88 124.728 59.24 122.888 63.08ZM176.133 92.04C170.133 91.4 163.973 86.52 163.413 78.12C162.613 64.2 162.853 51.72 163.493 37.64C163.973 29.16 170.133 24.36 176.133 23.72C180.213 23.32 185.013 23 189.733 23C207.813 22.84 220.933 32.44 220.933 56.52C221.013 80.52 207.813 92.68 189.893 92.76C185.093 92.76 180.293 92.44 176.133 92.04ZM189.333 61.32C188.693 62.52 191.093 63.72 192.133 62.2C194.293 59.16 194.933 54.76 195.013 50.84C195.013 48.92 192.213 49 192.213 50.28C191.973 54.2 191.253 57.48 189.333 61.32ZM249.01 78.52C249.33 84.84 247.09 92.2 237.81 92.2C231.65 92.2 227.17 88.28 226.77 82.12C226.45 74.28 226.29 66.12 226.29 57.96C226.29 38.84 231.97 23.8 252.93 23.8C273.97 23.8 279.73 38.84 279.73 57.96C279.73 66.12 279.57 74.28 279.17 82.12C278.85 88.28 274.29 92.2 268.05 92.2C258.93 92.2 256.53 84.76 256.85 78.52C253.41 79.4 252.53 79.4 249.01 78.52ZM259.81 56.68C256.61 54.28 252.37 53.72 248.37 53.56C246.53 53.48 246.53 56.28 247.89 56.44C251.81 56.68 255.09 57.4 258.85 59.4C259.97 60.04 261.25 57.56 259.81 56.68Z"/>
</mask>
<path d="M66.56 72.52C67.04 73.08 68.48 72.52 68.08 71.48C65.04 64.76 58.56 56.76 49.84 55.48C40.72 53.96 34.96 49.24 34.96 39.88C34.96 29.64 45.92 23 60.72 23C71.84 23 88.08 27.08 87.28 39.32C86.8 47.24 81.12 49.96 75.28 49.96C70.96 49.96 67.6 47.64 64.4 44.84C61.04 41.88 58.56 39.96 55.12 36.52C53.92 35.32 52.64 36.76 53.68 37.8C57.68 42.28 64.08 49.08 76.24 54.04C83.36 56.92 90.16 63.16 89.28 74.28C88.4 86.04 76.32 92.76 62.24 92.76C47.76 92.76 36.4 85.96 34.56 73.88C33.28 65.4 36.08 56.92 46.72 56.92C56.8 56.92 62.4 65.08 66.56 72.52ZM125.768 92.76C103.688 92.76 93.9275 79.4 93.9275 57.88C93.9275 36.36 102.328 23 125.768 23C149.288 23 157.608 36.36 157.608 57.88C157.608 79.4 147.848 92.76 125.768 92.76ZM122.888 63.08C122.088 64.2 124.568 65.32 125.608 63.96C127.848 60.76 128.408 56.44 128.488 52.44C128.568 50.6 125.768 50.68 125.688 51.96C125.448 55.88 124.728 59.24 122.888 63.08ZM176.133 92.04C170.133 91.4 163.973 86.52 163.413 78.12C162.613 64.2 162.853 51.72 163.493 37.64C163.973 29.16 170.133 24.36 176.133 23.72C180.213 23.32 185.013 23 189.733 23C207.813 22.84 220.933 32.44 220.933 56.52C221.013 80.52 207.813 92.68 189.893 92.76C185.093 92.76 180.293 92.44 176.133 92.04ZM189.333 61.32C188.693 62.52 191.093 63.72 192.133 62.2C194.293 59.16 194.933 54.76 195.013 50.84C195.013 48.92 192.213 49 192.213 50.28C191.973 54.2 191.253 57.48 189.333 61.32ZM249.01 78.52C249.33 84.84 247.09 92.2 237.81 92.2C231.65 92.2 227.17 88.28 226.77 82.12C226.45 74.28 226.29 66.12 226.29 57.96C226.29 38.84 231.97 23.8 252.93 23.8C273.97 23.8 279.73 38.84 279.73 57.96C279.73 66.12 279.57 74.28 279.17 82.12C278.85 88.28 274.29 92.2 268.05 92.2C258.93 92.2 256.53 84.76 256.85 78.52C253.41 79.4 252.53 79.4 249.01 78.52ZM259.81 56.68C256.61 54.28 252.37 53.72 248.37 53.56C246.53 53.48 246.53 56.28 247.89 56.44C251.81 56.68 255.09 57.4 258.85 59.4C259.97 60.04 261.25 57.56 259.81 56.68Z" fill="#2EA7FF"/>
<path d="M66.56 72.52L63.9415 73.9841L64.0875 74.2452L64.2822 74.4724L66.56 72.52ZM68.08 71.48L70.88 70.4031L70.849 70.3223L70.8133 70.2435L68.08 71.48ZM49.84 55.48L49.3468 58.4392L49.3755 58.444L49.4043 58.4482L49.84 55.48ZM87.28 39.32L84.2864 39.1243L84.2859 39.1314L84.2855 39.1385L87.28 39.32ZM64.4 44.84L62.4169 47.0911L62.4245 47.0977L64.4 44.84ZM55.12 36.52L52.9987 38.6413L52.9987 38.6413L55.12 36.52ZM53.68 37.8L55.9178 35.8019L55.8613 35.7387L55.8013 35.6787L53.68 37.8ZM76.24 54.04L75.1069 56.8178L75.1151 56.8211L76.24 54.04ZM89.28 74.28L86.2893 74.0433L86.2884 74.0561L89.28 74.28ZM34.56 73.88L31.5936 74.3278L31.5942 74.3317L34.56 73.88ZM64.2822 74.4724C65.0745 75.3966 66.1227 75.6963 66.9036 75.7361C67.6862 75.776 68.4417 75.5823 69.0766 75.2391C69.7152 74.8939 70.4011 74.3018 70.8105 73.4001C71.2495 72.4328 71.2503 71.3657 70.88 70.4031L65.28 72.5569C65.1097 72.1143 65.0805 71.5072 65.347 70.9199C65.5839 70.3982 65.9548 70.1061 66.2234 69.9609C66.4883 69.8177 66.8188 69.724 67.2089 69.7439C67.5973 69.7637 68.2855 69.9234 68.8378 70.5676L64.2822 74.4724ZM70.8133 70.2435C67.6128 63.1686 60.5035 54.0131 50.2757 52.5118L49.4043 58.4482C56.6165 59.5069 62.4672 66.3514 65.3467 72.7165L70.8133 70.2435ZM50.3332 52.5208C46.1271 51.8198 43.0709 50.4376 41.0847 48.4822C39.1695 46.5967 37.96 43.8953 37.96 39.88H31.96C31.96 45.2247 33.6305 49.5633 36.8753 52.7578C40.0491 55.8824 44.4329 57.6202 49.3468 58.4392L50.3332 52.5208ZM37.96 39.88C37.96 35.9892 39.9893 32.6363 43.9081 30.1262C47.8897 27.5759 53.7237 26 60.72 26V20C52.9163 20 45.8704 21.7441 40.6719 25.0738C35.4107 28.4437 31.96 33.5308 31.96 39.88H37.96ZM60.72 26C66.0016 26 72.3608 26.9815 77.1792 29.2781C81.9636 31.5585 84.5732 34.7355 84.2864 39.1243L90.2736 39.5157C90.7868 31.6644 85.6764 26.6815 79.7608 23.8619C73.8792 21.0585 66.5584 20 60.72 20V26ZM84.2855 39.1385C84.0919 42.3336 82.9082 44.1383 81.4813 45.2165C79.9541 46.3706 77.7844 46.96 75.28 46.96V52.96C78.6156 52.96 82.2059 52.1894 85.0987 50.0035C88.0918 47.7417 89.9882 44.2264 90.2745 39.5015L84.2855 39.1385ZM75.28 46.96C72.1223 46.96 69.4838 45.302 66.3755 42.5823L62.4245 47.0977C65.7162 49.978 69.7977 52.96 75.28 52.96V46.96ZM66.3831 42.5889C62.892 39.5134 60.5934 37.7508 57.2413 34.3987L52.9987 38.6413C56.5266 42.1692 59.188 44.2466 62.4169 47.0911L66.3831 42.5889ZM57.2413 34.3987C56.5408 33.6982 55.5825 33.1474 54.4348 33.0737C53.2825 32.9997 52.205 33.4324 51.4387 34.1987C49.8145 35.8229 49.983 38.3456 51.5587 39.9213L55.8013 35.6787C56.0195 35.8968 56.2795 36.3184 56.2963 36.9068C56.3123 37.4682 56.0958 38.0268 55.6813 38.4413C55.255 38.8676 54.6575 39.1003 54.0502 39.0613C53.4475 39.0226 53.0992 38.7418 52.9987 38.6413L57.2413 34.3987ZM51.4422 39.798C55.5699 44.4211 62.3331 51.6074 75.107 56.8178L77.3731 51.2622C65.8269 46.5526 59.7901 40.1389 55.9178 35.8019L51.4422 39.798ZM75.1151 56.8211C78.3096 58.1133 81.2877 60.1042 83.3591 62.8688C85.39 65.5795 86.6733 69.1918 86.2894 74.0433L92.2707 74.5167C92.7667 68.2482 91.09 63.1805 88.1609 59.2712C85.2723 55.4158 81.2904 52.8467 77.3649 51.2589L75.1151 56.8211ZM86.2884 74.0561C85.9305 78.8384 83.3297 82.6739 79.0854 85.408C74.7842 88.1786 68.8421 89.76 62.24 89.76V95.76C69.7179 95.76 76.8558 93.9813 82.3346 90.452C87.8703 86.8861 91.7495 81.4816 92.2716 74.5039L86.2884 74.0561ZM62.24 89.76C48.5191 89.76 39.0488 83.4269 37.5258 73.4283L31.5942 74.3317C33.7512 88.4931 47.0009 95.76 62.24 95.76V89.76ZM37.5264 73.4322C36.9431 69.5682 37.3641 66.1077 38.756 63.7407C40.0198 61.5916 42.3235 59.92 46.72 59.92V53.92C40.4765 53.92 36.0602 56.4884 33.584 60.6993C31.2359 64.6923 30.8969 69.7118 31.5936 74.3278L37.5264 73.4322ZM46.72 59.92C54.8898 59.92 59.7225 66.4386 63.9415 73.9841L69.1785 71.0559C65.0775 63.7214 58.7102 53.92 46.72 53.92V59.92ZM122.888 63.08L125.329 64.8237L125.48 64.6115L125.593 64.3764L122.888 63.08ZM125.607 63.96L127.991 65.7823L128.029 65.7322L128.065 65.6804L125.607 63.96ZM128.488 52.44L125.49 52.3097L125.489 52.3448L125.488 52.38L128.488 52.44ZM125.688 51.96L122.693 51.7729L122.693 51.7767L125.688 51.96ZM125.768 89.76C115.353 89.76 108.326 86.633 103.839 81.4308C99.2844 76.1487 96.9275 68.2445 96.9275 57.88H90.9275C90.9275 69.0355 93.4506 78.5713 99.2956 85.3492C105.209 92.207 114.102 95.76 125.768 95.76V89.76ZM96.9275 57.88C96.9275 47.4227 98.9837 39.5395 103.361 34.2917C107.646 29.1551 114.622 26 125.768 26V20C113.473 20 104.529 23.5249 98.7538 30.4483C93.0713 37.2605 90.9275 46.8172 90.9275 57.88H96.9275ZM125.768 26C136.956 26 143.929 29.1567 148.202 34.2894C152.569 39.5353 154.608 47.4172 154.608 57.88H160.607C160.607 46.8228 158.486 37.2647 152.813 30.4506C147.046 23.5233 138.099 20 125.768 20V26ZM154.608 57.88C154.608 68.2445 152.251 76.1487 147.696 81.4308C143.209 86.633 136.182 89.76 125.768 89.76V95.76C137.433 95.76 146.326 92.207 152.239 85.3492C158.084 78.5713 160.607 69.0355 160.607 57.88H154.608ZM120.446 61.3363C119.559 62.578 119.515 64.1143 120.217 65.3565C120.798 66.3862 121.732 66.9621 122.481 67.25C123.93 67.8074 126.406 67.8545 127.991 65.7823L123.224 62.1376C123.769 61.4255 124.485 61.5926 124.634 61.65C124.733 61.6879 125.132 61.8588 125.441 62.406C125.614 62.7119 125.753 63.1395 125.728 63.6441C125.703 64.1535 125.519 64.5575 125.329 64.8237L120.446 61.3363ZM128.065 65.6804C130.849 61.7037 131.405 56.6006 131.487 52.5L125.488 52.38C125.41 56.2794 124.846 59.8163 123.15 62.2396L128.065 65.6804ZM131.485 52.5703C131.541 51.2684 131.06 50.0558 130.121 49.1964C129.262 48.4094 128.224 48.0993 127.361 48.0376C126.504 47.9764 125.53 48.1371 124.66 48.6441C123.744 49.1774 122.79 50.222 122.693 51.7729L128.682 52.1471C128.625 53.058 128.051 53.6126 127.68 53.8284C127.355 54.0179 127.091 54.0336 126.934 54.0224C126.771 54.0107 126.423 53.9456 126.069 53.6211C125.635 53.2242 125.474 52.6916 125.49 52.3097L131.485 52.5703ZM122.693 51.7767C122.473 55.3762 121.829 58.3473 120.182 61.7836L125.593 64.3764C127.626 60.1327 128.422 56.3838 128.682 52.1433L122.693 51.7767ZM176.133 92.04L175.814 95.0231L175.83 95.0247L175.845 95.0262L176.133 92.04ZM163.413 78.12L160.417 78.2921L160.418 78.3058L160.419 78.3196L163.413 78.12ZM163.492 37.64L160.497 37.4705L160.496 37.4871L160.496 37.5038L163.492 37.64ZM176.133 23.72L175.84 20.7343L175.827 20.7356L175.814 20.7369L176.133 23.72ZM189.732 23V26H189.746L189.759 25.9999L189.732 23ZM220.933 56.52H217.932L217.933 56.53L220.933 56.52ZM189.893 92.76V95.76L189.906 95.76L189.893 92.76ZM189.333 61.32L191.98 62.7318L191.998 62.6969L192.016 62.6616L189.333 61.32ZM192.133 62.2L189.687 60.4624L189.672 60.484L189.657 60.506L192.133 62.2ZM195.012 50.84L198.012 50.9012L198.012 50.8706V50.84H195.012ZM192.213 50.28L195.207 50.4633L195.213 50.3717V50.28H192.213ZM176.451 89.0569C171.785 88.5592 166.861 84.7528 166.406 77.9204L160.419 78.3196C161.084 88.2872 168.48 94.2408 175.814 95.0231L176.451 89.0569ZM166.408 77.9479C165.616 64.173 165.852 51.8073 166.489 37.7762L160.496 37.5038C159.853 51.6327 159.609 64.227 160.417 78.2921L166.408 77.9479ZM166.488 37.8095C166.877 30.9355 171.769 27.2025 176.451 26.7031L175.814 20.7369C168.496 21.5175 161.068 27.3845 160.497 37.4705L166.488 37.8095ZM176.425 26.7057C180.441 26.312 185.138 26 189.732 26V20C184.887 20 179.984 20.328 175.84 20.7343L176.425 26.7057ZM189.759 25.9999C198.29 25.9244 205.221 28.1506 210.02 32.8202C214.806 37.4764 217.933 45.0103 217.933 56.52H223.933C223.933 43.9497 220.499 34.6436 214.205 28.5198C207.924 22.4094 199.255 19.9156 189.706 20.0001L189.759 25.9999ZM217.933 56.53C217.971 67.9898 214.843 76.2305 209.948 81.586C205.073 86.92 198.143 89.7231 189.879 89.76L189.906 95.76C199.562 95.7169 208.192 92.4 214.377 85.634C220.542 78.8895 223.974 69.0502 223.932 56.51L217.933 56.53ZM189.893 89.76C185.218 89.76 180.519 89.4479 176.42 89.0538L175.845 95.0262C180.066 95.4321 184.967 95.76 189.893 95.76V89.76ZM186.685 59.9082C185.984 61.223 186.143 62.635 186.767 63.6969C187.326 64.6493 188.19 65.2462 188.988 65.5654C190.592 66.2071 193.1 66.099 194.608 63.894L189.657 60.506C189.836 60.2444 190.146 60.0283 190.498 59.9478C190.799 59.879 191.044 59.9255 191.217 59.9946C191.365 60.0538 191.684 60.2207 191.941 60.6581C192.08 60.8949 192.206 61.2265 192.223 61.632C192.242 62.0492 192.14 62.4302 191.98 62.7318L186.685 59.9082ZM194.578 63.9376C197.288 60.1233 197.929 54.9409 198.012 50.9012L192.013 50.7788C191.936 54.5791 191.297 58.1967 189.687 60.4624L194.578 63.9376ZM198.012 50.84C198.012 49.5603 197.515 48.394 196.611 47.5589C195.769 46.7813 194.75 46.4465 193.869 46.371C193.005 46.2969 192.001 46.4481 191.107 46.985C190.143 47.5633 189.213 48.69 189.213 50.28H195.213C195.213 51.23 194.632 51.8667 194.193 52.13C193.824 52.3519 193.52 52.3631 193.356 52.349C193.175 52.3335 192.856 52.2587 192.539 51.9661C192.16 51.616 192.012 51.1597 192.012 50.84H198.012ZM189.218 50.0967C188.999 53.6818 188.36 56.5561 186.649 59.9784L192.016 62.6616C194.145 58.4039 194.946 54.7182 195.207 50.4633L189.218 50.0967ZM249.01 78.52L249.738 75.6096L245.809 74.6274L246.014 78.6717L249.01 78.52ZM226.77 82.12L223.772 82.2423L223.774 82.2784L223.776 82.3144L226.77 82.12ZM279.17 82.12L282.166 82.2756L282.166 82.2729L279.17 82.12ZM256.85 78.52L259.846 78.6736L260.055 74.6036L256.107 75.6136L256.85 78.52ZM259.81 56.68L258.01 59.08L258.124 59.1655L258.246 59.2398L259.81 56.68ZM248.37 53.56L248.24 56.5572L248.25 56.5576L248.37 53.56ZM247.89 56.44L247.539 59.4194L247.623 59.4293L247.707 59.4344L247.89 56.44ZM258.85 59.4L260.338 56.7953L260.299 56.7727L260.259 56.7514L258.85 59.4ZM246.014 78.6717C246.157 81.5088 245.694 84.2175 244.482 86.115C243.401 87.8074 241.518 89.2 237.81 89.2V95.2C243.382 95.2 247.259 92.9126 249.538 89.345C251.686 85.9825 252.183 81.8512 252.006 78.3683L246.014 78.6717ZM237.81 89.2C235.373 89.2 233.459 88.4326 232.139 87.2424C230.831 86.0624 229.918 84.2975 229.764 81.9256L223.776 82.3144C224.022 86.1025 225.549 89.3776 228.121 91.6976C230.681 94.0074 234.087 95.2 237.81 95.2V89.2ZM229.768 81.9977C229.449 74.2008 229.29 66.0816 229.29 57.96H223.29C223.29 66.1584 223.451 74.3592 223.772 82.2423L229.768 81.9977ZM229.29 57.96C229.29 48.587 230.704 40.7668 234.257 35.3571C237.65 30.192 243.28 26.8 252.93 26.8V20.8C241.62 20.8 233.93 24.928 229.243 32.0629C224.716 38.9532 223.29 48.213 223.29 57.96H229.29ZM252.93 26.8C262.626 26.8 268.297 30.1966 271.718 35.3656C275.298 40.7746 276.73 48.5924 276.73 57.96H282.73C282.73 48.2076 281.282 38.9454 276.722 32.0544C272.003 24.9234 264.274 20.8 252.93 20.8V26.8ZM276.73 57.96C276.73 66.0827 276.571 74.1901 276.174 81.9671L282.166 82.2729C282.569 74.3699 282.73 66.1573 282.73 57.96H276.73ZM276.174 81.9644C276.052 84.3071 275.15 86.0554 273.832 87.2322C272.497 88.4245 270.54 89.2 268.05 89.2V95.2C271.8 95.2 275.243 94.0155 277.828 91.7078C280.43 89.3846 281.968 86.0928 282.166 82.2756L276.174 81.9644ZM268.05 89.2C264.452 89.2 262.549 87.8102 261.432 86.0758C260.193 84.1519 259.705 81.4335 259.846 78.6736L253.854 78.3664C253.675 81.8465 254.227 85.9681 256.388 89.3242C258.671 92.8698 262.528 95.2 268.05 95.2V89.2ZM256.107 75.6136C254.395 76.0513 253.638 76.18 252.96 76.18C252.276 76.18 251.495 76.0489 249.738 75.6096L248.282 81.4304C250.045 81.8711 251.464 82.18 252.96 82.18C254.462 82.18 255.865 81.8687 257.594 81.4264L256.107 75.6136ZM261.61 54.28C257.618 51.286 252.55 50.7248 248.49 50.5624L248.25 56.5576C252.19 56.7152 255.602 57.274 258.01 59.08L261.61 54.28ZM248.5 50.5628C247.2 50.5063 245.996 50.986 245.137 51.9037C244.346 52.7493 244.015 53.7802 243.941 54.6574C243.867 55.5301 244.022 56.5172 244.529 57.4021C245.064 58.336 246.071 59.2467 247.539 59.4194L248.241 53.4605C249.029 53.5533 249.526 54.054 249.736 54.4204C249.918 54.7378 249.933 54.9999 249.919 55.1626C249.905 55.3298 249.834 55.6657 249.518 56.0038C249.134 56.414 248.62 56.5737 248.24 56.5572L248.5 50.5628ZM247.707 59.4344C251.293 59.654 254.136 60.2906 257.441 62.0486L260.259 56.7514C256.044 54.5094 252.327 53.706 248.073 53.4456L247.707 59.4344ZM257.362 62.0047C258.763 62.8058 260.235 62.5442 261.242 61.9267C262.146 61.3732 262.723 60.5455 263.045 59.7969C263.643 58.4101 263.88 55.6515 261.374 54.1202L258.246 59.2398C257.825 58.9825 257.555 58.5405 257.477 58.1198C257.412 57.7764 257.484 57.541 257.535 57.4231C257.577 57.3245 257.714 57.0518 258.108 56.8108C258.324 56.6784 258.659 56.5341 259.094 56.5082C259.551 56.4811 259.986 56.5937 260.338 56.7953L257.362 62.0047Z" fill="white" mask="url(#path-5-inside-1_139_1610)"/>
<g clip-path="url(#clip0_139_1610)">
<path d="M300.17 80.37C300.248 80.8484 300.685 81.1609 301.146 81.0683C301.607 80.9757 301.917 80.5129 301.838 80.0346C301.429 77.535 299.908 75.2969 297.731 73.8909C297.338 73.6369 296.814 73.768 296.562 74.1838C296.309 74.5995 296.423 75.1424 296.816 75.3963C298.633 76.5697 299.848 78.404 300.17 80.37Z" fill="white"/>
<path fill-rule="evenodd" clip-rule="evenodd" d="M305.071 84.9087C306.218 83.3427 306.724 81.3861 306.48 79.4606C305.769 73.8421 301.801 69.2789 296.457 67.8969L296.169 67.8223C290.437 66.3401 284.526 69.8982 282.995 75.8199L282.765 76.7071C281.234 82.6288 284.679 88.6065 290.41 90.0887L290.699 90.1633C296.042 91.5453 301.726 89.4781 305.071 84.9087ZM304.802 79.7305C304.987 81.1903 304.604 82.6718 303.734 83.859C300.818 87.8418 295.843 89.6663 291.141 88.4505L290.853 88.3759C285.989 87.118 283.122 82.0693 284.399 77.1296L284.628 76.2424C285.906 71.3027 290.861 68.2772 295.726 69.5351L296.014 69.6097C300.716 70.8256 304.182 74.8332 304.802 79.7305Z" fill="white"/>
</g>
<path d="M303.825 40.6089C304.045 40.5437 304.14 40.3765 304.039 40.2355C303.937 40.0945 303.677 40.0331 303.458 40.0983C302.312 40.4391 301.429 41.1166 301.025 41.9365C300.952 42.0846 301.08 42.2426 301.31 42.2895C301.54 42.3364 301.786 42.2543 301.859 42.1062C302.196 41.422 302.924 40.8769 303.825 40.6089Z" fill="white"/>
<path fill-rule="evenodd" clip-rule="evenodd" d="M305.392 38.6482C304.5 38.4089 303.5 38.4089 302.608 38.6482C300.006 39.3466 298.312 41.0081 298.312 42.848V42.9473C298.312 44.9207 300.748 46.5312 303.773 46.5312H304.227C307.252 46.5312 309.688 44.9207 309.688 42.9473V42.848C309.688 41.0081 307.994 39.3466 305.392 38.6482ZM302.945 39.1673C303.622 38.9859 304.378 38.9859 305.055 39.1673C307.323 39.776 308.812 41.2293 308.812 42.848V42.9473C308.812 44.622 306.75 45.9687 304.227 45.9687H303.773C301.25 45.9687 299.188 44.622 299.188 42.9473V42.848C299.188 41.2293 300.677 39.776 302.945 39.1673Z" fill="white"/>
<path d="M92.7255 14.2177C93.0702 14.0873 93.2203 13.753 93.0609 13.4711C92.9016 13.1891 92.4931 13.0662 92.1484 13.1966C90.3472 13.8781 88.959 15.2332 88.3247 16.8729C88.2101 17.1691 88.4107 17.4852 88.7727 17.579C89.1347 17.6727 89.521 17.5086 89.6356 17.2125C90.165 15.844 91.3088 14.7537 92.7255 14.2177Z" fill="white"/>
<path fill-rule="evenodd" clip-rule="evenodd" d="M95.1868 10.2965C93.7854 9.81784 92.2146 9.81784 90.8132 10.2965C86.7239 11.6932 84.0625 15.0162 84.0625 18.6961V18.8946C84.0625 22.8413 87.89 26.0625 92.6439 26.0625H93.3561C98.11 26.0625 101.938 22.8413 101.938 18.8946V18.6961C101.938 15.0162 99.2761 11.6932 95.1868 10.2965ZM91.3428 11.3347C92.4054 10.9718 93.5946 10.9718 94.6572 11.3347C98.2215 12.5521 100.562 15.4585 100.562 18.6961V18.8946C100.562 22.244 97.3216 24.9375 93.3561 24.9375H92.6439C88.6784 24.9375 85.4375 22.244 85.4375 18.8946V18.6961C85.4375 15.4585 87.7784 12.5521 91.3428 11.3347Z" fill="white"/>
<path d="M80.56 72.52C81.04 73.08 82.48 72.52 82.08 71.48C79.04 64.76 72.56 56.76 63.84 55.48C54.72 53.96 48.96 49.24 48.96 39.88C48.96 29.64 59.92 23 74.72 23C85.84 23 102.08 27.08 101.28 39.32C100.8 47.24 95.12 49.96 89.28 49.96C84.96 49.96 81.6 47.64 78.4 44.84C75.04 41.88 72.56 39.96 69.12 36.52C67.92 35.32 66.64 36.76 67.68 37.8C71.68 42.28 78.08 49.08 90.24 54.04C97.36 56.92 104.16 63.16 103.28 74.28C102.4 86.04 90.32 92.76 76.24 92.76C61.76 92.76 50.4 85.96 48.56 73.88C47.28 65.4 50.08 56.92 60.72 56.92C70.8 56.92 76.4 65.08 80.56 72.52ZM139.768 92.76C117.688 92.76 107.928 79.4 107.928 57.88C107.928 36.36 116.328 23 139.768 23C163.288 23 171.608 36.36 171.608 57.88C171.608 79.4 161.848 92.76 139.768 92.76ZM136.888 63.08C136.088 64.2 138.568 65.32 139.608 63.96C141.848 60.76 142.408 56.44 142.488 52.44C142.568 50.6 139.768 50.68 139.688 51.96C139.448 55.88 138.728 59.24 136.888 63.08ZM190.133 92.04C184.133 91.4 177.973 86.52 177.413 78.12C176.613 64.2 176.853 51.72 177.493 37.64C177.973 29.16 184.133 24.36 190.133 23.72C194.213 23.32 199.013 23 203.733 23C221.813 22.84 234.933 32.44 234.933 56.52C235.013 80.52 221.813 92.68 203.893 92.76C199.093 92.76 194.293 92.44 190.133 92.04ZM203.333 61.32C202.693 62.52 205.093 63.72 206.133 62.2C208.293 59.16 208.933 54.76 209.013 50.84C209.013 48.92 206.213 49 206.213 50.28C205.973 54.2 205.253 57.48 203.333 61.32ZM263.01 78.52C263.33 84.84 261.09 92.2 251.81 92.2C245.65 92.2 241.17 88.28 240.77 82.12C240.45 74.28 240.29 66.12 240.29 57.96C240.29 38.84 245.97 23.8 266.93 23.8C287.97 23.8 293.73 38.84 293.73 57.96C293.73 66.12 293.57 74.28 293.17 82.12C292.85 88.28 288.29 92.2 282.05 92.2C272.93 92.2 270.53 84.76 270.85 78.52C267.41 79.4 266.53 79.4 263.01 78.52ZM273.81 56.68C270.61 54.28 266.37 53.72 262.37 53.56C260.53 53.48 260.53 56.28 261.89 56.44C265.81 56.68 269.09 57.4 272.85 59.4C273.97 60.04 275.25 57.56 273.81 56.68Z" fill="white"/>
<defs>
<clipPath id="clip0_139_1610">
<rect width="28.3063" height="27" fill="white" transform="translate(311.202 68.9692) rotate(104.5)"/>
</clipPath>
</defs>
</svg>
