<svg width="27" height="27" viewBox="0 0 27 27" fill="none" xmlns="http://www.w3.org/2000/svg">
<path d="M1.39712 17.2283L3.34201 15.2821C3.60169 15.0274 3.95082 14.8848 4.31445 14.8848C4.67808 14.8848 5.02722 15.0274 5.2869 15.2821L12.1079 22.1077V26.0001H8.21813L1.39712 19.1745C1.14257 18.9147 1 18.5653 1 18.2014C1 17.8376 1.14257 17.4882 1.39712 17.2283Z" fill="#B7E1FF"/>
<path d="M1.39712 17.2283L3.34201 15.2821C3.60169 15.0274 3.95082 14.8848 4.31445 14.8848C4.67808 14.8848 5.02722 15.0274 5.2869 15.2821L12.1079 22.1077V26.0001H8.21813L1.39712 19.1745C1.14257 18.9147 1 18.5653 1 18.2014C1 17.8376 1.14257 17.4882 1.39712 17.2283Z" stroke="#8A8A8A" stroke-width="1.5" stroke-linecap="round" stroke-linejoin="round"/>
<path d="M15.4976 17.6592C17.1148 17.5402 18.6622 16.9517 19.9502 15.9659C21.2382 14.9802 22.2109 13.6398 22.7491 12.1092C23.2873 10.5785 23.3676 8.92399 22.9802 7.34833C22.5929 5.77267 21.7546 4.34429 20.5682 3.23818C19.3818 2.13208 17.8987 1.39629 16.3007 1.12096C14.7026 0.845623 13.059 1.04271 11.5712 1.68806C10.0834 2.33342 8.81606 3.39902 7.92439 4.75431C7.03271 6.1096 6.55546 7.69573 6.55109 9.31836C6.54417 9.44338 6.54417 9.56868 6.55109 9.6937" stroke="#8A8A8A" stroke-width="1.5" stroke-linecap="round" stroke-linejoin="round"/>
<path d="M21.0403 15.1982C22.4685 15.6248 23.7218 16.4997 24.6148 17.6938C25.5079 18.8879 25.9935 20.3377 25.9998 21.8292V23.2193C25.9998 23.2193 23.8465 25.4853 17.6646 25.9996" stroke="#8A8A8A" stroke-width="1.5" stroke-linecap="round" stroke-linejoin="round"/>
</svg>
