<svg width="30" height="18" viewBox="0 0 30 18" fill="none" xmlns="http://www.w3.org/2000/svg">
<path d="M17.1312 17.1303C17.2829 16.9791 17.4099 16.8128 17.5213 16.6395L29.1493 5.01159C30.283 3.87672 30.2841 2.03694 29.1493 0.901531C28.0144 -0.232261 26.1751 -0.233337 25.0392 0.901531L15.0261 10.9157L4.95973 0.850949C3.82487 -0.283381 1.98562 -0.283919 0.850212 0.850949C0.283585 1.41919 -0.00107317 2.16231 3.04018e-06 2.90544C-0.00107317 3.6491 0.283585 4.39277 0.851288 4.95886L12.5298 16.639C12.6412 16.8128 12.7693 16.9785 12.9221 17.1303C13.5022 17.7104 14.2652 17.9897 15.0261 17.9762C15.7859 17.9902 16.5511 17.7104 17.1312 17.1303Z" fill="#96D3FF"/>
</svg>
