<svg width="21" height="21" viewBox="0 0 21 21" fill="none" xmlns="http://www.w3.org/2000/svg">
<path d="M16.216 12.5508L16.216 12.5508C17.6189 12.0237 18.6173 11.6472 19.3014 11.2675C19.9777 10.8922 20.2329 10.5749 20.3099 10.2188L16.216 12.5508ZM16.216 12.5508L14.2952 13.2726C14.2952 13.2726 14.2951 13.2726 14.2951 13.2726C14.2668 13.2832 14.2387 13.2937 14.2111 13.3041C13.5493 13.5524 13.0978 13.7219 12.7423 14.0297M16.216 12.5508L12.3285 14.483M12.3285 14.483L12.3286 14.4828C12.4482 14.3163 12.5869 14.1642 12.7423 14.0297M12.3285 14.483C12.0545 14.8649 11.9267 15.3298 11.7394 16.0112C11.7315 16.0401 11.7235 16.0694 11.7153 16.0991L11.7153 16.0991M12.3285 14.483L11.7153 16.0991M12.7423 14.0297L13.0695 14.4077L12.7422 14.0297C12.7423 14.0297 12.7423 14.0297 12.7423 14.0297ZM11.7153 16.0991C11.4723 16.9823 11.3008 17.6027 11.1227 18.0463M11.7153 16.0991L11.1227 18.0463M10.1188 18.8797H10.1188C10.3085 18.88 10.4949 18.8307 10.6597 18.7367L10.1188 18.8797ZM10.1188 18.8797C9.96258 18.8795 9.75055 18.8069 9.37599 18.5085C9.00227 18.2109 8.54702 17.7563 7.89995 17.1086L7.54622 17.462M10.1188 18.8797L7.54622 17.462M7.54622 17.462L7.89994 17.1086L6.37286 15.5801L6.37281 15.58M7.54622 17.462L6.37281 15.58M6.37281 15.58L5.24888 14.4553L5.24879 14.4552L3.77535 12.98L3.77532 12.98M6.37281 15.58L3.77532 12.98M3.77532 12.98C3.13232 12.3363 2.68104 11.8835 2.38519 11.5118C2.08868 11.1393 2.01565 10.9281 2.01467 10.7725C2.01345 10.5787 2.06375 10.3882 2.16036 10.2205L2.16037 10.2205M3.77532 12.98L2.16037 10.2205M2.16037 10.2205C2.23797 10.0857 2.40553 9.93829 2.84709 9.76103C3.28769 9.58415 3.90348 9.41359 4.78018 9.17192L4.7802 9.17192M2.16037 10.2205L4.7802 9.17192M4.7802 9.17192C4.80973 9.16377 4.83887 9.15575 4.86762 9.14784C5.55058 8.95984 6.01662 8.83155 6.39887 8.55632L4.7802 9.17192ZM17.5457 6.40042L14.4575 3.30916C13.3902 2.2408 12.6291 1.48085 11.9964 1.01118C11.3706 0.546588 10.9747 0.44581 10.6185 0.524385C10.2623 0.602982 9.94527 0.861131 9.5725 1.54613C9.1957 2.23854 8.82427 3.2484 8.30454 4.66688L7.60874 6.56587C7.59827 6.59444 7.58796 6.62263 7.57778 6.65045C7.33399 7.31663 7.16775 7.77088 6.86218 8.12944L17.5457 6.40042ZM17.5457 6.40042C18.6053 7.46107 19.3588 8.21717 19.8249 8.84611M17.5457 6.40042L19.8249 8.84611M19.8249 8.84611C20.2857 9.46791 20.3869 9.86259 20.3099 10.2188L19.8249 8.84611ZM11.1227 18.0463C10.9443 18.4908 10.7957 18.659 10.6598 18.7366L11.1227 18.0463Z" stroke="#FF5E5E"/>
<path d="M1.0029 20.247L1.00285 20.247C0.887818 20.3622 0.701562 20.3622 0.586531 20.247L0.586471 20.247C0.471176 20.1316 0.471176 19.9443 0.586471 19.8289L0.586481 19.8289L4.8952 15.516L5.31236 15.9334L1.0029 20.247Z" stroke="#FF5E5E"/>
</svg>
