<svg width="21" height="21" viewBox="0 0 21 21" fill="none" xmlns="http://www.w3.org/2000/svg">
<path fill-rule="evenodd" clip-rule="evenodd" d="M14.8112 2.95578L17.8994 6.04705C19.9952 8.14485 21.0431 9.19375 20.7986 10.3245C20.554 11.4551 19.1666 11.9764 16.3918 13.0189L14.471 13.7406C13.7279 14.0198 13.3563 14.1594 13.0695 14.4077C12.9439 14.5165 12.8316 14.6396 12.7348 14.7745C12.5135 15.0828 12.4082 15.4658 12.1974 16.2318C11.718 17.9741 11.4783 18.8452 10.9076 19.1709C10.667 19.3081 10.395 19.3801 10.1181 19.3797C9.46111 19.3788 8.82277 18.7398 7.54622 17.462L6.01914 15.9334L4.89512 14.8086L3.42159 13.3333C2.15307 12.0635 1.51881 11.4286 1.51468 10.7756C1.5129 10.4932 1.58621 10.2155 1.72709 9.97094C2.05296 9.40511 2.91774 9.16667 4.64731 8.6899C5.41466 8.47834 5.79834 8.37261 6.10674 8.15053C6.24513 8.05091 6.37099 7.93494 6.48162 7.80513C6.72817 7.51584 6.8652 7.14185 7.13926 6.39386L7.83506 4.49486C8.86309 1.68912 9.37715 0.286253 10.5108 0.0361278C11.6445 -0.213987 12.7001 0.842607 14.8112 2.95578Z" fill="#FF5E5E"/>
<path d="M1.35662 20.6004L6.01917 15.9334L4.89515 14.8086L0.232758 19.4755C-0.0775859 19.7861 -0.0775859 20.2897 0.232758 20.6004C0.543102 20.9111 1.04628 20.9111 1.35662 20.6004Z" fill="#FF5E5E"/>
</svg>
