<svg width="28" height="15" viewBox="0 0 28 15" fill="none" xmlns="http://www.w3.org/2000/svg">
<path d="M2.5 7.5C2.5 10.2558 4.73566 12.5 7.49348 12.5H20.0065C22.7604 12.5 25 10.2614 25 7.5C25 4.74419 22.7643 2.5 20.0065 2.5H7.49348C4.73964 2.5 2.5 4.73858 2.5 7.5ZM0 7.5C0 3.35966 3.35713 0 7.49348 0H20.0065C24.1443 0 27.5 3.36271 27.5 7.5C27.5 11.6403 24.1429 15 20.0065 15H7.49348C3.35572 15 0 11.6373 0 7.5ZM7.5 8.75C8.19036 8.75 8.75 8.19036 8.75 7.5C8.75 6.80964 8.19036 6.25 7.5 6.25C6.80964 6.25 6.25 6.80964 6.25 7.5C6.25 8.19036 6.80964 8.75 7.5 8.75ZM7.5 11.25C5.42893 11.25 3.75 9.57107 3.75 7.5C3.75 5.42893 5.42893 3.75 7.5 3.75C9.57107 3.75 11.25 5.42893 11.25 7.5C11.25 9.57107 9.57107 11.25 7.5 11.25Z" fill="#8A8A8A"/>
</svg>
