<svg width="30" height="17" viewBox="0 0 30 17" fill="none" xmlns="http://www.w3.org/2000/svg">
<path d="M2.72727 8.18182C2.72727 11.1882 5.16617 13.6364 8.1747 13.6364H21.8253C24.8295 13.6364 27.2727 11.1943 27.2727 8.18182C27.2727 5.17549 24.8338 2.72727 21.8253 2.72727H8.1747C5.17052 2.72727 2.72727 5.16936 2.72727 8.18182ZM0 8.18182C0 3.66509 3.66233 0 8.1747 0H21.8253C26.3392 0 30 3.66841 30 8.18182C30 12.6985 26.3377 16.3636 21.8253 16.3636H8.1747C3.66078 16.3636 0 12.6952 0 8.18182ZM21.8182 12.2727C19.5588 12.2727 17.7273 10.4412 17.7273 8.18182C17.7273 5.92247 19.5588 4.09091 21.8182 4.09091C24.0775 4.09091 25.9091 5.92247 25.9091 8.18182C25.9091 10.4412 24.0775 12.2727 21.8182 12.2727Z" fill="#FF9999"/>
</svg>
