<svg width="40" height="32" viewBox="0 0 40 32" fill="none" xmlns="http://www.w3.org/2000/svg">
<path d="M18.9105 0.0376596C18.5061 0.0633307 18.0055 0.114675 17.8002 0.146764C17.5948 0.178853 17.4151 0.178853 17.3958 0.153181C17.3766 0.121092 17.2867 0.0954208 17.1905 0.101838L17.0172 0.108256L17.1776 0.153181L17.3381 0.198107L17.1776 0.243032C16.9273 0.307211 16.8567 0.294375 16.8952 0.191689C16.9273 0.121092 16.8888 0.0954208 16.7605 0.0954208C16.4973 0.0954208 16.0224 0.230196 16.0609 0.294375C16.0802 0.326465 16.0673 0.352136 16.0288 0.352136C15.9967 0.352136 15.9582 0.320046 15.9454 0.281539C15.9326 0.236614 15.862 0.223779 15.7785 0.24945C15.7015 0.275122 15.6502 0.320046 15.6694 0.352136C15.7079 0.416315 15.0661 0.762881 15.0084 0.711538C14.9891 0.692285 15.0084 0.673031 15.0533 0.673031C15.0982 0.673031 15.1175 0.647359 15.0918 0.61527C15.0726 0.58318 15.1688 0.519001 15.2972 0.474076C15.432 0.429151 15.509 0.384226 15.4705 0.371389C15.4384 0.358554 15.2073 0.422733 14.9635 0.512584C14.7132 0.602434 14.4629 0.673031 14.3987 0.673031C14.2382 0.673031 13.9687 0.846313 13.7248 1.11586C13.5323 1.33407 13.4938 1.34691 13.1151 1.35333C12.7557 1.35333 12.6787 1.38542 12.2872 1.64213C12.0497 1.79616 11.6711 2.04004 11.44 2.18124C11.2154 2.32243 11.055 2.4572 11.0935 2.47646C11.132 2.50213 11.1063 2.53422 11.0357 2.55989C10.8945 2.60482 10.5608 2.95138 10.6057 3.00273C10.625 3.02198 10.4581 3.17601 10.2335 3.34287C9.63018 3.80496 8.43004 4.97302 7.89094 5.61481C7.10154 6.57107 6.27363 7.79689 6.42766 7.79689C6.56885 7.79689 6.55601 7.82898 6.21587 8.17555C5.92064 8.47719 5.88855 8.49644 5.65751 8.45793C5.43288 8.41943 5.42005 8.42584 5.46497 8.56062C5.49706 8.67614 5.48423 8.6954 5.31094 8.6954C5.20184 8.6954 5.11199 8.72749 5.11199 8.76599C5.11199 8.8045 5.21468 8.82375 5.3687 8.81734C5.50348 8.8045 5.63826 8.81734 5.66393 8.84301C5.6896 8.86868 5.65109 8.88793 5.58049 8.88793C5.5099 8.88793 5.34945 8.97136 5.23393 9.08047C5.11199 9.18316 4.9708 9.27301 4.91945 9.27301C4.85527 9.27301 4.82318 9.3436 4.81677 9.47838C4.81035 9.61315 4.759 9.71584 4.66915 9.7736C4.59856 9.82494 4.53438 9.92121 4.53438 9.98539C4.53438 10.1202 4.7205 10.364 4.82318 10.364C4.86169 10.364 4.89378 10.4154 4.9002 10.486C4.91303 10.6079 4.69483 10.7427 4.48304 10.7555C4.39319 10.7555 4.3996 10.7684 4.50229 10.8133C4.59856 10.8518 4.60498 10.8711 4.52796 10.8711C4.4702 10.8775 4.39319 10.9481 4.35468 11.0379C4.25199 11.2561 4.25199 12.1611 4.34826 12.1611C4.39319 12.1611 4.41244 12.2381 4.39319 12.3536C4.37393 12.4755 4.39319 12.5461 4.43811 12.5461C4.51512 12.5461 4.52154 12.6873 4.45095 12.867C4.39319 13.0339 4.27766 13.8746 4.27766 14.1442C4.27766 14.2918 4.30975 14.4073 4.34184 14.4073C4.38035 14.4073 4.40602 14.4843 4.40602 14.5742C4.40602 14.6961 4.38035 14.7346 4.30975 14.7025C4.23916 14.6769 4.21348 14.7154 4.21348 14.8437C4.21348 14.94 4.19423 15.171 4.17498 15.3507C4.13647 15.6652 4.14289 15.6909 4.27125 15.6909C4.34826 15.6909 4.40602 15.7294 4.40602 15.7872C4.40602 15.8642 4.45095 15.877 4.58572 15.8449C4.86169 15.7743 4.87453 15.7551 4.83602 15.4278C4.81035 15.2416 4.82318 15.1133 4.85527 15.1133C4.91303 15.1133 4.95154 15.4021 4.92587 15.6075C4.91945 15.6524 4.95154 15.6909 4.99647 15.6909C5.06706 15.6909 8.44287 14.5934 8.7381 14.4779C8.80869 14.4458 9.07825 14.3624 9.33496 14.2854C9.58526 14.2084 9.79705 14.1121 9.79705 14.08C9.79705 14.0415 9.82272 14.0351 9.86123 14.0543C9.97033 14.1185 12.9418 13.1237 12.9418 13.0211C12.9418 12.9697 12.9226 12.9312 12.8969 12.9312C12.8648 12.9312 11.6775 13.3163 10.2463 13.7848L7.64706 14.6384L7.61497 14.1955L7.58288 13.7463L7.46736 13.9837C7.40318 14.1185 7.339 14.3496 7.31974 14.4972L7.28124 14.7667L6.38915 15.0619C5.53557 15.3443 5.49706 15.3507 5.52273 15.2224C5.54199 15.1454 5.57408 14.8052 5.59333 14.4715C5.72169 12.5205 6.54318 10.0303 7.63422 8.2654C7.83317 7.9445 8.00004 7.66212 8.00004 7.64286C8.00004 7.62361 8.05138 7.55301 8.11556 7.48883C8.17332 7.42465 8.42362 7.11018 8.67392 6.7957C8.9178 6.48122 9.14242 6.21167 9.1681 6.20525C9.19377 6.19242 9.21302 6.12182 9.21302 6.04481C9.2066 5.9357 9.20019 5.92929 9.17451 6.01914C9.16168 6.0769 9.12317 6.1154 9.09108 6.09615C9.01407 6.05122 8.42362 6.77003 7.87168 7.57868C6.99243 8.86868 6.21587 10.5887 5.81796 12.1097C5.69602 12.5654 5.65109 12.6617 5.58049 12.6039C5.47781 12.514 5.46497 12.6231 5.55482 12.79C5.59333 12.8606 5.56766 13.1943 5.49706 13.7014C5.42647 14.1442 5.37512 14.709 5.3687 14.9593C5.3687 15.3828 5.35587 15.4213 5.22751 15.4599C5.14408 15.4791 5.05423 15.4984 5.02214 15.4984C4.88094 15.4984 5.13124 13.4061 5.38154 12.482C5.52273 11.9685 5.52915 11.9493 5.54841 12.1931C5.57408 12.4434 5.57408 12.437 5.7602 11.9108C5.86288 11.6091 5.93348 11.3524 5.91423 11.3396C5.90139 11.3203 5.8693 11.3588 5.84363 11.4166C5.7987 11.5257 5.6896 11.5578 5.6896 11.4551C5.6896 11.423 5.77945 11.2497 5.88855 11.0636C6.06825 10.7491 6.28005 10.1073 6.29288 9.81853C6.2993 9.69017 6.71004 8.6954 6.78064 8.63122C6.79989 8.61196 6.90258 8.45152 6.99885 8.27823C7.24273 7.85465 7.90377 6.8663 8.16691 6.5454C8.27601 6.40421 8.38511 6.23093 8.39795 6.16033C8.41079 6.08973 8.46213 6.03839 8.50064 6.05122C8.54556 6.05764 8.57765 6.0063 8.57765 5.9357C8.57765 5.86511 8.61616 5.80734 8.6675 5.80734C8.71884 5.80734 9.03974 5.52496 9.39272 5.17839C10.5929 3.98466 11.7417 3.16317 13.2948 2.37377C13.6285 2.20691 13.8339 2.14915 14.097 2.14273C14.2896 2.13631 14.3858 2.11706 14.3088 2.10422C14.1227 2.07213 14.1163 1.97586 14.296 1.92452C14.3858 1.89243 14.4564 1.9181 14.5206 2.00153C14.5912 2.09138 14.604 2.0978 14.572 2.01437C14.5206 1.86676 14.7838 1.69348 14.9891 1.7384C15.1175 1.76407 15.1367 1.75765 15.0597 1.70631C14.9827 1.65497 15.0084 1.6293 15.1881 1.59079C15.31 1.56512 15.464 1.54586 15.5218 1.54586C15.586 1.55228 15.6245 1.53303 15.6052 1.50736C15.5539 1.42392 16.0417 1.31482 16.1315 1.39183C16.1957 1.44318 16.2149 1.43676 16.2149 1.37258C16.2149 1.26989 16.7861 1.1287 17.8836 0.949C18.7243 0.814224 20.9834 0.794971 21.8306 0.91691C23.281 1.1287 24.6609 1.50736 25.8674 2.02721C26.1819 2.1684 26.4515 2.2775 26.4643 2.2775C26.4771 2.2775 26.4836 2.11706 26.4836 1.9181C26.4836 1.69989 26.5092 1.57795 26.5477 1.60363C26.5863 1.62288 26.6119 1.809 26.6119 2.00795V2.37377L27.0355 2.59198C27.6965 2.93213 28.518 3.46481 29.1342 3.95257C29.5706 4.29914 29.7246 4.38899 29.7888 4.33123C29.8465 4.27989 29.8786 4.2863 29.9107 4.36332C29.93 4.41466 29.9877 4.45959 30.0327 4.45959C30.1803 4.45959 30.2958 4.63929 30.2124 4.73556C30.161 4.79974 30.1867 4.86391 30.3343 5.00511C30.437 5.10779 30.5461 5.17197 30.5653 5.1463C30.6359 5.0757 30.7001 4.5366 30.6488 4.45317C30.6231 4.40183 30.5268 4.38899 30.3921 4.42108L30.1739 4.45959L30.3792 4.31839C30.591 4.17078 30.6488 4.07451 30.5268 4.07451C30.4883 4.07451 30.3215 3.93332 30.1546 3.76646C29.5192 3.12467 28.1201 2.21974 26.7595 1.5587C24.3657 0.397061 21.529 -0.154877 18.9105 0.0376596ZM14.2896 1.0196C14.2896 1.09019 14.1676 1.11586 14.1291 1.0581C14.1099 1.02601 14.1355 0.993925 14.1869 0.993925C14.2446 0.993925 14.2896 1.00676 14.2896 1.0196ZM7.33258 7.10376C7.30691 7.41182 7.2684 7.50809 7.14004 7.61077C7.04377 7.68137 6.97318 7.80331 6.97318 7.88032C6.97318 7.95734 6.94109 8.06644 6.909 8.11779C6.86407 8.18838 6.84482 8.14988 6.83198 7.95734C6.79989 7.23853 6.80631 7.19361 7.03094 6.91764C7.14646 6.76361 7.27482 6.66092 7.30691 6.68018C7.339 6.69943 7.35183 6.89197 7.33258 7.10376ZM6.69721 7.87391C6.67795 7.92525 6.6587 7.906 6.6587 7.8354C6.65228 7.7648 6.67154 7.72629 6.69079 7.75197C6.71004 7.77122 6.71646 7.82898 6.69721 7.87391Z" fill="#3BADFF"/>
<path d="M17.8514 1.30903C16.6384 1.50156 15.2008 1.89947 14.3729 2.28455C14.2188 2.34872 14.0841 2.40649 14.0584 2.40649C13.9942 2.40649 13.2947 2.75947 12.7812 3.05469C11.7351 3.65156 10.8623 4.29335 9.92528 5.15334C9.59797 5.4614 9.52737 5.55767 9.58513 5.62185C9.64931 5.68603 9.67498 5.66677 9.72632 5.532C9.76483 5.43573 9.81617 5.36513 9.84826 5.37155C9.88035 5.38439 10.1563 5.1726 10.4644 4.90946C11.5811 3.9532 12.9609 3.08036 14.1932 2.5541C14.5141 2.41932 14.7836 2.29096 14.79 2.26529C14.8029 2.2332 14.8671 2.21395 14.9248 2.21395C14.989 2.21395 15.2072 2.15619 15.419 2.08559C15.9773 1.89305 16.7218 1.70694 17.6267 1.54007C18.352 1.40529 18.583 1.39246 20.0976 1.40529C21.8754 1.42455 22.2926 1.47589 23.7558 1.86096C25.4181 2.3038 27.2985 3.23439 28.6976 4.29976C28.9479 4.4923 29.2367 4.66558 29.3394 4.69125L29.5319 4.73618L29.3394 4.58215C29.2367 4.49872 29.1404 4.40887 29.1276 4.3832C29.1148 4.35752 29.0634 4.35752 29.0121 4.37678C28.9607 4.39603 28.9222 4.37036 28.9222 4.31902C28.9222 4.12648 27.4012 3.15096 26.2588 2.59902C25.0137 2.00858 23.8328 1.62992 22.4081 1.3732C21.2914 1.17425 18.9424 1.14216 17.8514 1.30903Z" fill="#3BADFF"/>
<path d="M14.8032 1.86651C14.8032 1.91785 14.8353 1.94353 14.8674 1.92427C14.9059 1.90502 14.9316 1.86009 14.9316 1.82159C14.9316 1.7895 14.9059 1.76382 14.8674 1.76382C14.8353 1.76382 14.8032 1.80875 14.8032 1.86651Z" fill="#3BADFF"/>
<path d="M19.7387 3.06031C19.7323 3.07314 19.7194 3.14374 19.713 3.22076C19.7002 3.36195 19.7194 3.36837 20.1623 3.36837C20.419 3.36837 20.7527 3.38762 20.9132 3.40687C21.1763 3.44538 21.2084 3.43255 21.2405 3.29777C21.2597 3.21434 21.2726 3.14374 21.2661 3.13732C21.2405 3.11807 19.7451 3.04105 19.7387 3.06031Z" fill="#3BADFF"/>
<path d="M18.0117 3.21503C16.9271 3.38189 15.3676 3.87607 14.3407 4.3895C13.4615 4.82592 12.1009 5.71801 12.0559 5.88487C12.0431 5.94905 11.9789 6.00039 11.9212 6.00039C11.857 6.00039 11.7479 6.08382 11.6709 6.19293C11.5874 6.29562 11.4912 6.38547 11.4462 6.38547C11.2024 6.38547 9.21924 8.77292 9.21924 9.06173C9.21924 9.17083 9.39894 9.17083 9.50163 9.06173C9.707 8.84994 9.8867 8.52904 9.87386 8.38785C9.86745 8.27874 9.8867 8.24024 9.95088 8.26591C10.0151 8.29158 10.1691 8.15039 10.4001 7.868C11.1254 6.98233 12.3576 5.89771 13.2753 5.3201C13.4486 5.21741 13.5834 5.09547 13.5834 5.05054C13.5834 5.00562 13.6219 4.97353 13.6668 4.98637C13.7182 4.9992 14.0776 4.85159 14.4755 4.65905C15.0274 4.3895 15.2007 4.2804 15.2264 4.16488C15.2649 4.01726 15.3804 3.94667 15.3804 4.06861C15.3804 4.15204 15.8104 4.10711 16.1185 3.98517C16.7153 3.75413 18.0182 3.49741 19.09 3.40115C19.4686 3.36264 19.552 3.33697 19.5264 3.25995C19.5071 3.20861 19.4879 3.15085 19.4879 3.13801C19.4879 3.08025 18.5958 3.13159 18.0117 3.21503ZM15.0916 4.26756C15.1109 4.29965 15.098 4.33174 15.0659 4.33174C15.0274 4.33174 14.9953 4.29965 14.9953 4.26756C14.9953 4.22905 15.0082 4.20338 15.021 4.20338C15.0403 4.20338 15.0724 4.22905 15.0916 4.26756Z" fill="#3BADFF"/>
<path d="M23.2557 3.60615C23.1273 3.72809 23.2749 3.82436 23.936 4.03615C24.8216 4.33138 26.0154 4.90899 26.7406 5.39674C27.8316 6.12197 29.2821 7.41196 29.1473 7.52748C29.1088 7.55316 28.9804 7.61092 28.8585 7.64942C27.4786 8.09226 23.4097 9.4336 18.7375 10.9803C14.5723 12.3537 13.0063 12.8993 13.0063 12.9699C13.0063 13.0405 13.0512 13.0533 13.186 13.0212C13.4876 12.9442 13.6481 12.8736 13.6481 12.8094C13.6481 12.7709 13.6866 12.7581 13.7379 12.7773C13.7893 12.7966 14.7263 12.5206 15.8173 12.1676C17.056 11.7633 17.8454 11.5322 17.916 11.5579C17.993 11.59 18.0187 11.5836 17.9866 11.5322C17.9481 11.4681 18.224 11.3654 19.6809 10.9033L19.9633 10.8134L19.8221 10.9418C19.7515 11.0124 19.6296 11.0702 19.5654 11.0702C19.4948 11.0702 19.3664 11.1279 19.2766 11.1985C19.129 11.314 18.0508 11.7119 17.8839 11.7119C17.8454 11.7119 17.8325 11.6799 17.8582 11.6349C17.8903 11.5836 17.8711 11.5772 17.794 11.6028C17.7299 11.6285 17.6593 11.6478 17.64 11.6478C17.6143 11.6478 17.6336 11.6734 17.6849 11.7055C17.7491 11.744 17.6978 11.7633 17.5373 11.7569C17.4025 11.7505 17.2806 11.7825 17.2549 11.8211C17.2293 11.8531 17.1394 11.9045 17.0496 11.9237C16.3308 12.0906 16.0548 12.1869 15.1435 12.5848C15.0343 12.6361 14.9188 12.6746 14.8803 12.6746C14.7712 12.6746 13.8149 12.9955 13.539 13.1239C13.3849 13.1945 13.2373 13.2522 13.1988 13.2522C13.1603 13.2522 13.0255 13.31 12.8972 13.3806C12.4608 13.6116 12.326 13.6566 16.3757 12.3409C20.0788 11.1408 22.8578 10.2102 23.1851 10.069C23.3648 9.99195 23.6279 9.9021 23.7627 9.87643C23.9039 9.85718 24.0579 9.81225 24.1092 9.78016C24.2312 9.70957 23.8718 9.76733 23.4033 9.89569C23.2107 9.94703 22.9091 10.0112 22.7294 10.0433C22.5561 10.069 22.3251 10.1139 22.216 10.146C22.0491 10.1845 22.0427 10.1973 22.1518 10.2358C22.2545 10.2743 22.2224 10.3 21.9913 10.3642C21.8309 10.4027 21.6704 10.4669 21.6319 10.499C21.5934 10.5311 21.5485 10.5375 21.5293 10.5182C21.5036 10.499 21.3752 10.5439 21.2276 10.6145C20.9516 10.7621 20.804 10.7878 20.8682 10.6851C20.8875 10.6466 20.9645 10.6209 21.0287 10.6209C21.1121 10.6209 21.1378 10.5888 21.1185 10.5311C21.0928 10.4605 21.3688 10.3514 22.2288 10.069C22.8578 9.87001 23.4161 9.6839 23.4675 9.65822C23.5188 9.63255 24.3595 9.35658 25.3286 9.04852C26.2977 8.74047 27.453 8.36181 27.8958 8.2142C28.8842 7.87405 28.9868 7.84196 28.9868 7.88689C28.9868 7.89972 28.8392 7.9639 28.6595 8.02166C28.4157 8.10509 28.3515 8.15002 28.4157 8.19495C28.4862 8.24629 28.4798 8.24629 28.39 8.22062C28.2616 8.17569 27.0615 8.56077 27.0615 8.6442C27.0615 8.66987 27.0101 8.69554 26.9395 8.69554C26.8754 8.69554 26.7406 8.74047 26.6379 8.78539C26.5416 8.83673 26.4389 8.86882 26.4069 8.84957C26.3812 8.83032 26.3106 8.86241 26.2528 8.91375C26.2015 8.97151 26.118 9.01644 26.0731 9.01644C26.0282 9.01644 25.8742 9.0742 25.7266 9.14479C25.5854 9.21539 25.4185 9.27315 25.3672 9.27315C25.3158 9.27315 25.2516 9.29882 25.2324 9.33733C25.1746 9.42718 25.1746 9.42718 26.1116 9.11912C27.5621 8.63778 28.6788 8.27838 30.848 7.61092C32.8183 7.00122 34.4164 6.46853 36.008 5.87809C36.3995 5.73047 36.7332 5.61495 36.7589 5.61495C36.7846 5.61495 36.868 5.80107 36.945 6.03212C37.0862 6.46853 37.1055 6.48779 37.2659 6.3851C37.3429 6.33376 37.3301 6.23749 37.1504 5.67913C37.0349 5.32615 36.9065 5.03734 36.868 5.03734C36.8038 5.03734 33.1713 6.21824 32.9146 6.32734C32.7285 6.40435 32.5103 6.40435 32.5359 6.32734C32.5552 6.24391 31.6759 5.17854 31.2588 4.78063C31.0727 4.60093 30.9058 4.4854 30.8801 4.52391C30.8609 4.556 30.8737 4.58809 30.9186 4.58809C30.9636 4.58809 30.9828 4.65869 30.9636 4.78063C30.9443 4.88331 30.9636 4.97316 30.9956 4.97316C31.0277 4.97316 31.0406 5.01809 31.0149 5.06943C30.9892 5.14645 31.0342 5.1657 31.201 5.1657C31.4192 5.1657 31.4962 5.24272 31.3615 5.32615C31.2652 5.38391 31.2844 5.55077 31.3871 5.51227C31.4449 5.4866 31.4706 5.53152 31.4641 5.6663C31.4641 5.76898 31.5027 5.89734 31.554 5.9551C31.8556 6.28883 31.8813 6.35301 31.6695 6.30167C31.5412 6.26316 31.5412 6.276 31.7016 6.42361C31.9134 6.61614 31.9198 6.70599 31.7337 6.71241C31.6246 6.71883 31.6118 6.72525 31.7016 6.75092C31.8941 6.80226 31.8236 6.87286 31.4577 7.00764C31.0983 7.14241 30.9636 7.11032 31.2716 6.96913C31.477 6.87928 31.4385 6.80868 31.2267 6.89211C31.1433 6.9242 30.7261 7.05256 30.2961 7.18734L29.5195 7.4248L29.173 7.05256C27.7931 5.58928 26.1886 4.53675 24.2569 3.82436C23.5445 3.56765 23.3391 3.52272 23.2557 3.60615ZM20.7078 10.7108C20.7078 10.7685 20.6564 10.7878 20.5537 10.7685C20.451 10.7493 20.3227 10.7878 20.2007 10.8712C19.9697 11.0381 19.9119 11.0445 20.0146 10.884C20.0531 10.8199 20.1302 10.7749 20.1751 10.7942C20.22 10.8134 20.2585 10.7942 20.2585 10.7621C20.2585 10.7043 20.3869 10.653 20.6307 10.6273C20.6693 10.6273 20.7078 10.6594 20.7078 10.7108Z" fill="#3BADFF"/>
<path d="M18.526 4.3311C18.526 4.47871 18.4811 4.54289 18.3207 4.62632L18.1089 4.73542L18.3207 4.83169C18.4811 4.90871 18.526 4.97288 18.526 5.11408C18.526 5.32587 18.5902 5.3387 18.7507 5.16542C18.8405 5.06274 18.9175 5.04348 19.0908 5.07557L19.309 5.1205L19.1999 4.91512C19.1037 4.72259 19.1037 4.6905 19.1935 4.55572C19.3347 4.34393 19.3283 4.3311 19.0844 4.37602C18.9304 4.40169 18.8469 4.37602 18.7571 4.27333C18.5902 4.08722 18.526 4.10647 18.526 4.3311Z" fill="#3BADFF"/>
<path d="M16.1251 4.34475C16.1058 4.42818 16.0866 4.55654 16.0866 4.62713C16.0866 4.70415 16.016 4.81325 15.9326 4.8646C15.7464 4.98654 15.7464 5.17265 15.9326 5.27534C16.0288 5.3331 16.0866 5.44862 16.1187 5.654L16.1636 5.94922L16.3754 5.74385C16.5743 5.55131 16.6193 5.53847 16.8824 5.57056C17.0749 5.59623 17.1776 5.58982 17.1776 5.54489C17.1776 5.50638 17.1263 5.46146 17.0621 5.44221C16.9723 5.42295 16.9466 5.35877 16.9594 5.14698C16.9787 4.84534 16.8503 4.58863 16.6835 4.58863C16.6257 4.58863 16.4845 4.49878 16.369 4.38967L16.17 4.19713L16.1251 4.34475Z" fill="#3BADFF"/>
<path d="M17.0176 4.588C16.9984 4.62008 16.9984 4.68426 17.024 4.72277C17.0626 4.79337 17.1717 4.68426 17.1781 4.56874C17.1781 4.50456 17.0626 4.51098 17.0176 4.588Z" fill="#3BADFF"/>
<path d="M30.078 4.65262C30.0203 4.69113 30.0139 4.7168 30.0588 4.7168C30.0973 4.7168 30.155 4.68471 30.1743 4.65262C30.2256 4.5756 30.2 4.5756 30.078 4.65262Z" fill="#3BADFF"/>
<path d="M29.545 4.87658C29.5 4.97926 29.9044 5.35792 30.052 5.35792C30.1033 5.35792 30.1354 5.38359 30.1097 5.41568C30.0905 5.44777 30.283 5.70449 30.5333 5.98046C30.79 6.25642 31.0275 6.51314 31.066 6.55807C31.1045 6.60299 31.1751 6.61583 31.22 6.58374C31.2842 6.54523 31.2072 6.43613 30.9505 6.15374C30.7515 5.94837 30.5911 5.76866 30.5911 5.75583C30.5911 5.70449 30.405 5.55046 30.3408 5.55046C30.3023 5.55046 30.2702 5.51195 30.2702 5.46702C30.2702 5.4221 30.1162 5.24882 29.9236 5.08195C29.6669 4.86374 29.5642 4.80598 29.545 4.87658Z" fill="#3BADFF"/>
<path d="M30.6808 5.13389C30.5653 5.22374 30.5653 5.23658 30.7771 5.4227C30.8926 5.52538 31.0274 5.61523 31.0659 5.61523C31.1044 5.61523 31.0851 5.57031 31.0274 5.52538C30.9632 5.48046 30.9119 5.40986 30.9119 5.37135C30.9119 5.33285 30.8734 5.28792 30.8348 5.27509C30.7707 5.24941 30.7707 5.22374 30.8413 5.17882C30.8862 5.14031 30.899 5.1018 30.8669 5.08255C30.8284 5.05688 30.745 5.08255 30.6808 5.13389Z" fill="#3BADFF"/>
<path d="M14.1357 5.77504C14.0972 5.96115 14.0459 6.02533 13.8918 6.07668L13.6929 6.14727L13.9239 6.26921C14.1229 6.36548 14.1614 6.42324 14.1614 6.59011V6.78906L14.3154 6.64787C14.4309 6.53876 14.5272 6.50668 14.6748 6.52593C14.8545 6.5516 14.8738 6.54518 14.8353 6.42324C14.7711 6.24354 14.7711 6.05742 14.8288 5.91623C14.8738 5.82638 14.8481 5.80713 14.6684 5.80713C14.5465 5.80713 14.3988 5.75578 14.3154 5.67235L14.1742 5.54399L14.1357 5.77504Z" fill="#3BADFF"/>
<path d="M9.36712 5.68545C9.3222 5.73037 9.28369 5.82664 9.28369 5.89724C9.28369 6.01918 9.29011 6.01918 9.38638 5.92291C9.44414 5.87157 9.47623 5.7753 9.46339 5.71754C9.45056 5.62769 9.4313 5.62127 9.36712 5.68545Z" fill="#3BADFF"/>
<path d="M31.2329 6.70633C31.2329 6.73842 31.265 6.77051 31.2971 6.77051C31.3356 6.77051 31.3613 6.73842 31.3613 6.70633C31.3613 6.66782 31.3356 6.64215 31.2971 6.64215C31.265 6.64215 31.2329 6.66782 31.2329 6.70633Z" fill="#3BADFF"/>
<path d="M37.3428 6.88577C37.2273 6.92428 37.2465 7.02697 37.3813 7.03339C37.4455 7.03339 37.4583 7.05264 37.4134 7.07189C37.3685 7.08473 37.33 7.12965 37.33 7.16816C37.33 7.22592 38.6906 11.4168 39.3965 13.5283C39.5377 13.9519 39.6404 14.2984 39.6276 14.3113C39.6147 14.3241 39.4864 14.369 39.3323 14.4204C39.1783 14.4717 39.0628 14.5359 39.0628 14.568C39.0756 14.645 38.9216 14.7284 38.7612 14.7284C38.6777 14.7284 38.6135 14.7605 38.6135 14.7926C38.6135 14.8311 38.498 14.8568 38.344 14.8504C38.0809 14.8375 37.8177 14.9146 33.6076 16.2816C33.1647 16.4292 32.7476 16.5704 32.677 16.596C32.6064 16.6217 31.9197 16.8528 31.1559 17.1031C30.097 17.456 29.7761 17.5844 29.8018 17.655C29.8467 17.7769 29.9109 17.7705 30.5591 17.5523C30.8736 17.4432 31.1688 17.3598 31.2265 17.3598C31.2779 17.3598 31.4448 17.302 31.5924 17.2314C31.74 17.1544 31.9646 17.0774 32.093 17.0581C32.3176 17.026 32.324 17.026 32.2919 17.2057C32.0288 18.8166 31.7721 19.7344 31.2651 20.896C31.1046 21.2618 30.9891 21.5956 31.0019 21.6405C31.0212 21.6854 30.9955 21.7239 30.9506 21.7239C30.8222 21.7239 30.5783 22.1604 30.6233 22.308C30.681 22.4812 30.8158 22.4556 30.9121 22.2502C30.9634 22.1539 31.0019 22.0641 31.0083 22.0448C31.0083 22.0256 31.0597 21.9421 31.1174 21.8523C31.8042 20.8254 32.8053 17.4175 32.5165 17.071C32.4524 16.994 32.4524 16.9747 32.5422 16.9747C32.6 16.9747 32.6449 16.949 32.6449 16.9169C32.6449 16.8848 32.7476 16.8399 32.8759 16.8207C32.9979 16.795 33.3124 16.6923 33.5627 16.5896C33.8194 16.4869 34.1082 16.3843 34.2109 16.3586L34.397 16.3137L34.3521 16.9169C34.2622 18.0786 33.8643 19.8692 33.4856 20.819C33.4086 21.0051 33.3573 21.172 33.3701 21.1913C33.4215 21.2362 33.6076 21.1335 33.6012 21.0565C33.5947 21.018 33.6333 20.8768 33.691 20.7484C33.7552 20.6136 33.8001 20.466 33.8001 20.4147C33.8001 20.3698 33.845 20.2478 33.8964 20.1451C33.9477 20.0489 34.0376 19.7472 34.0889 19.4777C34.1467 19.2145 34.2173 18.9065 34.2494 18.8038C34.3392 18.515 34.4933 17.4625 34.5446 16.8335C34.5767 16.4163 34.6152 16.2495 34.705 16.1725C34.8847 15.9992 34.9489 16.1083 34.9104 16.5319L34.8719 16.9169L35.058 16.8784C35.1607 16.8592 35.2056 16.8656 35.1671 16.8848C35.1222 16.9041 35.0837 16.9683 35.0837 17.0196C35.0837 17.0774 35.0452 17.1031 34.9938 17.0838C34.9233 17.0581 34.8912 17.1223 34.8591 17.3148C34.827 17.4881 34.8334 17.5844 34.8847 17.6037C34.9233 17.6165 34.9553 17.6678 34.9553 17.7192C34.9553 17.7641 34.9168 17.7898 34.8719 17.7705C34.8141 17.7513 34.7821 17.8154 34.7756 17.9759C34.7628 18.1107 34.7435 18.239 34.7243 18.2711C34.705 18.2968 34.7371 18.3417 34.7949 18.361C34.8847 18.3995 34.8847 18.4123 34.8013 18.4765C34.7435 18.515 34.6152 18.8936 34.5061 19.3172C34.2686 20.2542 34.0889 20.8383 33.9413 21.172C33.4471 22.3015 33.3637 22.462 33.2289 22.4812C33.1583 22.4941 33.0942 22.5262 33.0942 22.5583C33.0942 22.5904 33.1391 22.6032 33.1968 22.5775C33.2867 22.5454 33.2931 22.5583 33.2289 22.6738C33.1904 22.7508 33.1327 22.8086 33.107 22.8086C32.9915 22.7893 32.9401 22.8214 33.0171 22.8727C33.0877 22.9112 33.0621 23.0011 32.908 23.2835C32.6128 23.8226 32.555 23.9381 32.5101 23.9702C32.4909 23.9895 32.3818 24.1435 32.2598 24.3232C31.9839 24.7339 31.8042 24.9393 31.74 24.9008C31.7143 24.8815 31.6758 24.8944 31.6501 24.9329C31.6309 24.965 31.6437 24.9971 31.6822 24.9971C31.7207 24.9971 31.7336 25.0292 31.7143 25.0612C31.6886 25.0997 31.6501 25.1126 31.6245 25.0997C31.5988 25.0805 31.541 25.0997 31.4897 25.1383C31.4127 25.1896 31.4127 25.196 31.5089 25.1639C31.6758 25.1126 31.6437 25.1703 31.2843 25.5939C30.681 26.2871 29.7312 27.1791 29.6285 27.1471C29.5771 27.1342 29.4873 27.1471 29.436 27.1856C29.3654 27.2369 29.3782 27.2433 29.5001 27.2048C29.6606 27.1599 29.6606 27.1599 29.5386 27.3011C29.4103 27.4423 29.2113 27.4744 29.0637 27.3845C29.006 27.3396 29.0252 27.3011 29.1471 27.2048C29.5194 26.9288 30.5912 25.8314 30.5912 25.7351C30.5912 25.6645 30.5591 25.6389 30.5013 25.6581C30.45 25.6774 30.3922 25.6774 30.3794 25.6517C30.3665 25.626 30.3665 25.6453 30.373 25.6838C30.3858 25.7287 30.3345 25.7929 30.2703 25.8314C30.1997 25.8699 30.1419 25.9405 30.1419 25.9918C30.1419 26.0432 30.1034 26.1074 30.0521 26.133C30.0007 26.1587 29.7825 26.3512 29.5643 26.5566C29.038 27.0444 28.8134 27.1984 28.7621 27.115C28.7428 27.0765 28.7685 27.0315 28.8198 27.0123C28.8776 26.993 28.9225 26.9417 28.9225 26.9096C28.9225 26.8711 28.8776 26.8775 28.8198 26.9288C28.7557 26.9802 28.7043 26.9866 28.6786 26.9417C28.653 26.9096 28.576 26.8839 28.5054 26.8968C28.4348 26.9096 28.3064 26.9224 28.2166 26.9288C27.7224 26.9417 27.3566 27.0059 27.4785 27.0508C27.5491 27.0765 27.6389 27.07 27.6839 27.038C27.7609 26.9738 28.146 27.1342 28.2294 27.269C28.2551 27.3139 28.2872 27.2947 28.3192 27.2241C28.3385 27.1663 28.3834 27.115 28.4219 27.115C28.454 27.115 28.4604 27.1471 28.4348 27.192C28.4027 27.2433 28.4348 27.2497 28.5246 27.2305C28.6016 27.2048 28.6658 27.2177 28.6658 27.2433C28.6658 27.3075 28.2679 27.6284 28.1909 27.6284C28.1652 27.6284 28.0946 27.6797 28.024 27.7375C27.8058 27.9429 27.4272 28.1162 27.3951 28.0263C27.3822 27.9878 27.3437 27.9685 27.3116 27.9878C27.2731 28.0071 27.2795 28.0584 27.3245 28.1162C27.4464 28.2638 27.2346 28.2253 27.0678 28.0712C26.9907 27.9942 26.9073 27.9557 26.8816 27.9814C26.8624 28.0006 26.8816 28.0456 26.933 28.0841C27.0164 28.1354 27.01 28.1611 26.9073 28.2381C26.8303 28.2959 26.811 28.3344 26.8624 28.3344C26.9266 28.3344 26.933 28.3536 26.8752 28.4242C26.8367 28.4691 26.6955 28.5141 26.5607 28.5141C26.0987 28.5205 26.0345 28.5269 26.0345 28.5975C26.0345 28.636 26.0858 28.6488 26.15 28.6296C26.2078 28.6103 26.2976 28.6168 26.3425 28.6488C26.4324 28.7066 25.4504 29.1879 25.091 29.265C24.9755 29.2842 24.8664 29.3356 24.8472 29.3676C24.8215 29.3997 24.7509 29.4254 24.6803 29.4254C24.6097 29.4254 24.5648 29.3997 24.5904 29.3676C24.6097 29.3291 24.5455 29.3291 24.4172 29.3676C24.276 29.4062 24.199 29.3997 24.1669 29.3548C24.1412 29.3099 24.0642 29.3035 23.9807 29.3291C23.8845 29.3612 23.8524 29.3548 23.8781 29.3035C23.9358 29.2136 23.923 29.2136 23.6599 29.3035C23.5187 29.3548 23.4416 29.3548 23.4096 29.3099C23.3839 29.2714 23.2684 29.2906 23.0822 29.3612C22.8576 29.4511 22.8191 29.4896 22.909 29.5217C23.0309 29.573 23.063 29.7078 22.941 29.6693C22.8384 29.6308 22.6779 29.7912 22.7293 29.8682C22.7934 29.9773 22.6394 30.0159 21.9463 30.0415C21.5034 30.0608 21.2403 30.0993 21.2082 30.1506C21.1697 30.2084 21.144 30.202 21.0927 30.1314C21.0349 30.0479 21.0285 30.0479 21.0285 30.1314C21.0285 30.2084 20.9194 30.2276 20.4573 30.2276C19.9311 30.2276 19.7321 30.2662 19.822 30.356C19.8412 30.3753 20.329 30.4009 20.9066 30.4073C21.4842 30.4138 21.9784 30.4459 21.9976 30.4779C22.0233 30.51 22.1966 30.5036 22.4019 30.4715C22.6009 30.433 22.7806 30.4266 22.7934 30.4523C22.8319 30.5164 22.0297 30.6384 21.6061 30.6384C21.4136 30.6384 21.1825 30.6641 21.0927 30.6961C20.836 30.7924 19.3342 30.7282 18.5705 30.587C18.1854 30.5164 17.8581 30.4587 17.8324 30.4651C17.8067 30.4715 17.7426 30.4523 17.6912 30.433C17.5757 30.3881 16.4333 30.0672 16.3755 30.0672C16.3499 30.0672 16.3563 30.125 16.3755 30.1956C16.4269 30.356 16.4141 30.356 15.875 30.202L15.445 30.0736V30.4266C15.445 30.7667 15.4385 30.7796 15.3038 30.7411C15.015 30.6576 15.3936 30.8758 15.7273 30.985C16.1188 31.1197 16.1573 31.1197 16.1124 30.9978C16.0867 30.9464 16.106 30.9015 16.1445 30.9015C16.183 30.9015 16.2151 30.9657 16.2151 31.0363C16.2151 31.1518 16.2279 31.1582 16.3114 31.0941C16.3948 31.0299 16.4333 31.0299 16.5232 31.1069C16.5809 31.1647 16.7799 31.2224 16.9532 31.2481C17.2676 31.2866 17.2676 31.2866 17.0879 31.1903C16.9917 31.139 16.8633 31.0941 16.8184 31.0941C16.767 31.0941 16.7285 31.062 16.7285 31.0299C16.7285 30.9914 16.6515 30.9657 16.5552 30.9657C16.3948 30.9593 16.3884 30.9529 16.4975 30.8887C16.5873 30.8373 16.6515 30.8373 16.7349 30.8951C16.8954 30.9914 16.9146 30.985 16.8761 30.8373C16.8376 30.6833 16.9339 30.6705 17.0494 30.8053C17.12 30.8887 17.1457 30.8887 17.1842 30.8245C17.2227 30.7667 17.242 30.786 17.242 30.8823C17.242 30.9721 17.2805 31.0299 17.3382 31.0299C17.3896 31.0299 17.4345 30.9785 17.4345 30.9144C17.4345 30.8245 17.4473 30.8181 17.4987 30.9015C17.5436 30.9721 17.5308 31.017 17.4602 31.0748C17.396 31.1197 17.3832 31.1582 17.4345 31.1903C17.4858 31.2224 17.4858 31.2545 17.4345 31.3187C17.3446 31.4278 17.5179 31.4535 18.8785 31.5433C21.2467 31.6973 23.4416 31.3572 25.7457 30.4651C26.2398 30.279 26.7597 30.0929 26.9009 30.0608C27.0421 30.0287 27.2795 29.9709 27.4272 29.9388C27.6775 29.8811 27.9406 29.7656 28.5118 29.4639C28.7428 29.3484 28.9803 29.1045 28.8712 29.1045C28.8263 29.1045 28.7942 29.0724 28.7942 29.0403C28.7942 29.0018 28.8327 28.9762 28.8776 28.9826C29.0445 29.0147 29.314 28.8927 29.2819 28.8093C29.237 28.6938 30.5398 27.7568 30.7452 27.7568C30.8736 27.7568 30.8864 27.7311 30.8607 27.5899C30.8351 27.4423 30.8479 27.4294 30.9762 27.4679C31.0789 27.5 31.1046 27.4936 31.0725 27.4359C31.0212 27.346 31.6694 26.6529 31.7592 26.7042C31.7849 26.7235 31.8362 26.6657 31.8748 26.5759C31.9133 26.4668 31.9646 26.4218 32.0352 26.4475C32.1058 26.4732 32.125 26.4603 32.093 26.3897C32.0737 26.3384 32.093 26.2742 32.1379 26.2421C32.1892 26.2165 32.2021 26.2229 32.17 26.2678C32.1443 26.3127 32.1571 26.3448 32.1956 26.3448C32.2406 26.3448 32.2534 26.2935 32.2277 26.2229C32.2085 26.1523 32.2342 26.0688 32.2983 26.0239C32.4973 25.8506 33.4279 24.6441 33.6846 24.2077C33.7103 24.1627 33.8322 23.9574 33.9606 23.7456C34.0825 23.5338 34.1852 23.3862 34.1852 23.4183C34.1852 23.4503 34.2301 23.4375 34.2815 23.3926C34.3328 23.3477 34.3777 23.2386 34.3777 23.1423C34.3777 23.0524 34.4547 22.815 34.5446 22.6224C34.6344 22.4299 34.8077 22.0448 34.9297 21.7624C35.0452 21.4865 35.1928 21.2169 35.257 21.1656C35.3212 21.1142 35.334 21.0886 35.2955 21.1142C35.1864 21.1656 35.1928 21.0886 35.3019 20.7484C35.3468 20.5944 35.4688 20.1708 35.565 19.7986C35.6613 19.4263 35.764 19.099 35.7961 19.0669C35.8218 19.0348 35.8218 18.9578 35.7832 18.8872C35.7512 18.8231 35.7383 18.7396 35.7576 18.7075C35.7768 18.669 35.7576 18.6433 35.7127 18.6433C35.6549 18.6433 35.5715 18.8423 35.4816 19.2017C35.3982 19.5162 35.2762 19.9654 35.2056 20.2157C35.058 20.7099 34.628 21.801 34.5895 21.7689C34.5767 21.756 34.6665 21.4801 34.7885 21.1592C34.904 20.8383 34.9874 20.5623 34.9682 20.543C34.9489 20.5238 34.9682 20.466 35.0067 20.4211C35.0516 20.3698 35.0644 20.312 35.0388 20.2863C35.0131 20.2607 35.0195 20.2222 35.058 20.1965C35.1992 20.1066 35.5843 18.3481 35.5073 18.1492C35.4816 18.0914 35.4944 18.0272 35.5265 18.0016C35.6164 17.9502 35.7447 16.718 35.7127 16.288C35.6934 16.0826 35.7127 15.9222 35.7512 15.8901C35.7897 15.858 36.7652 15.5243 37.9204 15.1456C39.0756 14.7669 40.0126 14.4396 39.9998 14.414C39.987 14.3947 39.8971 14.1123 39.8008 13.7978C39.7046 13.4769 39.5955 13.1946 39.5698 13.1561C39.5377 13.124 39.512 13.0598 39.512 13.0084C39.512 12.8544 37.5738 7.0013 37.4968 6.9307C37.4583 6.88577 37.3877 6.86652 37.3428 6.88577ZM32.5165 17.2314C32.5165 17.2635 32.4909 17.2956 32.4524 17.2956C32.4203 17.2956 32.3882 17.2635 32.3882 17.2314C32.3882 17.1929 32.4203 17.1672 32.4524 17.1672C32.4909 17.1672 32.5165 17.1929 32.5165 17.2314ZM34.9553 18.5728C34.9553 18.6048 34.9104 18.6433 34.8591 18.669C34.8013 18.6883 34.7628 18.669 34.7628 18.6113C34.7628 18.5599 34.8077 18.515 34.8591 18.515C34.9104 18.515 34.9553 18.5407 34.9553 18.5728ZM35.18 20.8254C35.1992 20.8575 35.1864 20.8896 35.1543 20.8896C35.1158 20.8896 35.0837 20.8575 35.0837 20.8254C35.0837 20.7869 35.0965 20.7613 35.1094 20.7613C35.1286 20.7613 35.1607 20.7869 35.18 20.8254ZM34.2494 20.8896C34.2494 20.9217 34.2365 20.9538 34.2237 20.9538C34.2044 20.9538 34.1724 20.9217 34.1531 20.8896C34.1339 20.8511 34.1467 20.8254 34.1788 20.8254C34.2173 20.8254 34.2494 20.8511 34.2494 20.8896ZM34.3136 23.2642C34.3136 23.2963 34.2815 23.3284 34.243 23.3284C34.2109 23.3284 34.198 23.2963 34.2173 23.2642C34.2365 23.2257 34.2686 23.2001 34.2879 23.2001C34.3007 23.2001 34.3136 23.2257 34.3136 23.2642ZM27.1897 28.2702C27.1897 28.3023 27.164 28.3344 27.1255 28.3344C27.0934 28.3344 27.0613 28.3023 27.0613 28.2702C27.0613 28.2317 27.0934 28.206 27.1255 28.206C27.164 28.206 27.1897 28.2317 27.1897 28.2702ZM28.6016 29.2008C28.5567 29.2521 28.4925 29.297 28.4604 29.297C28.4219 29.297 28.4283 29.2521 28.4733 29.2008C28.5182 29.1494 28.5824 29.1045 28.6145 29.1045C28.653 29.1045 28.6466 29.1494 28.6016 29.2008ZM23.8524 29.4447C23.8524 29.4896 23.7946 29.5281 23.724 29.5345C23.5828 29.5473 23.5507 29.4575 23.6791 29.4062C23.8139 29.3484 23.8524 29.3548 23.8524 29.4447ZM23.2106 29.5538C23.2106 29.5859 23.1785 29.6179 23.14 29.6179C23.1079 29.6179 23.0951 29.5859 23.1143 29.5538C23.1336 29.5153 23.1657 29.4896 23.1849 29.4896C23.1978 29.4896 23.2106 29.5153 23.2106 29.5538ZM23.5315 29.7463C23.2106 29.8297 22.8897 29.8682 22.8897 29.8169C22.8897 29.7463 23.4031 29.6372 23.5636 29.6757C23.6791 29.7014 23.6727 29.7078 23.5315 29.7463ZM22.1003 30.2982C22.0811 30.3175 22.0233 30.3239 21.9784 30.3047C21.927 30.2854 21.9463 30.2662 22.0169 30.2662C22.0875 30.2597 22.126 30.279 22.1003 30.2982Z" fill="#3BADFF"/>
<path d="M5.20827 8.3743C5.18901 8.40639 5.20185 8.43848 5.23394 8.43848C5.27244 8.43848 5.30453 8.40639 5.30453 8.3743C5.30453 8.33579 5.2917 8.31012 5.27886 8.31012C5.25961 8.31012 5.22752 8.33579 5.20827 8.3743Z" fill="#3BADFF"/>
<path d="M5.01637 9.01688C5.03562 9.04897 5.06771 9.08105 5.08697 9.08105C5.0998 9.08105 5.11264 9.04897 5.11264 9.01688C5.11264 8.97837 5.08055 8.9527 5.04204 8.9527C5.00995 8.9527 4.99712 8.97837 5.01637 9.01688Z" fill="#3BADFF"/>
<path d="M25.2517 9.18955C25.2966 9.2088 25.3544 9.20238 25.3736 9.18313C25.3993 9.16388 25.3608 9.14462 25.2902 9.15104C25.2196 9.15104 25.2003 9.17029 25.2517 9.18955Z" fill="#3BADFF"/>
<path d="M9.0271 9.27943C9.0271 9.31152 8.9565 9.45271 8.86665 9.59391C8.7768 9.7351 8.7062 9.88913 8.7062 9.94689C8.7062 9.99823 8.68053 10.0432 8.64844 10.0432C8.5265 10.0432 7.6665 12.3151 7.6665 12.6424C7.6665 12.7258 7.70501 12.8478 7.75635 12.9248C7.83979 13.0467 7.85904 13.0082 8.03232 12.3985C8.30188 11.4358 8.75755 10.3512 9.24531 9.51689L9.41217 9.22809L9.21963 9.22167C9.11695 9.22167 9.0271 9.24734 9.0271 9.27943Z" fill="#3BADFF"/>
<path d="M24.9434 9.46528C24.9434 9.49737 24.9883 9.51021 25.0396 9.49095C25.091 9.46528 25.1359 9.43961 25.1359 9.42677C25.1359 9.41394 25.091 9.4011 25.0396 9.4011C24.9883 9.4011 24.9434 9.42677 24.9434 9.46528Z" fill="#3BADFF"/>
<path d="M24.5456 9.57533C24.5841 9.58817 24.6611 9.58817 24.706 9.57533C24.7445 9.55608 24.7124 9.54324 24.6226 9.54324C24.5327 9.54324 24.5006 9.55608 24.5456 9.57533Z" fill="#3BADFF"/>
<path d="M4.08215 16.9482C3.97946 16.9932 3.97304 17.006 4.0629 17.006C4.12066 17.0124 4.19125 16.9803 4.21051 16.9482C4.25543 16.8777 4.25543 16.8777 4.08215 16.9482Z" fill="#3BADFF"/>
<path d="M7.55104 13.1435C7.55104 13.2462 7.51895 13.381 7.48686 13.4516C7.4291 13.5543 7.44194 13.5735 7.54462 13.5735C7.61522 13.5735 7.68582 13.612 7.70507 13.6505C7.72432 13.6955 7.73074 13.6056 7.71149 13.4516C7.66656 13.0922 7.55746 12.8804 7.55104 13.1435Z" fill="#3BADFF"/>
<path d="M12.4285 13.5735C12.3771 13.6056 12.3643 13.6377 12.3964 13.6377C12.4349 13.6377 12.5055 13.6056 12.5568 13.5735C12.6082 13.5414 12.6274 13.5093 12.5889 13.5093C12.5568 13.5093 12.4798 13.5414 12.4285 13.5735Z" fill="#3BADFF"/>
<path d="M4.02732 15.8451C3.82195 15.9157 3.67434 16.0762 3.81553 16.0762C3.97598 16.0762 4.27762 15.9221 4.27762 15.8451C4.27762 15.7938 4.2712 15.7553 4.26479 15.7617C4.25195 15.7617 4.14926 15.8002 4.02732 15.8451Z" fill="#3BADFF"/>
<path d="M3.31535 16.1727C3.2255 16.2753 3.25117 16.2882 3.4052 16.2304C3.46296 16.2112 3.50789 16.1662 3.50789 16.1342C3.50789 16.0443 3.4052 16.0636 3.31535 16.1727Z" fill="#3BADFF"/>
<path d="M2.62199 16.3201C2.26259 16.4356 2.16632 16.4934 2.22409 16.5511C2.28185 16.6025 2.31394 16.6025 2.33319 16.5447C2.34603 16.4998 2.39737 16.4805 2.43588 16.4998C2.56423 16.5447 3.18677 16.3072 3.13543 16.2302C3.10334 16.1789 2.94931 16.211 2.62199 16.3201Z" fill="#3BADFF"/>
<path d="M3.47563 16.5253C3.45638 16.5638 3.48205 16.5703 3.53339 16.551C3.64891 16.5061 3.66817 16.4612 3.57832 16.4612C3.53981 16.4612 3.49488 16.4868 3.47563 16.5253Z" fill="#3BADFF"/>
<path d="M1.99928 16.5891C2.01853 16.6212 2.05062 16.6533 2.06988 16.6533C2.08271 16.6533 2.09555 16.6212 2.09555 16.5891C2.09555 16.5506 2.06346 16.525 2.02495 16.525C1.99286 16.525 1.98003 16.5506 1.99928 16.5891Z" fill="#3BADFF"/>
<path d="M1.65921 16.6604C1.67205 16.6989 1.71055 16.7246 1.74264 16.7246C1.77473 16.7246 1.81324 16.6989 1.82608 16.6604C1.83891 16.6219 1.80041 16.5898 1.74264 16.5898C1.68488 16.5898 1.64638 16.6219 1.65921 16.6604Z" fill="#3BADFF"/>
<path d="M2.22463 16.9104C2.1412 16.9618 2.1412 16.9746 2.23747 16.9746C2.29523 16.9746 2.36582 16.9425 2.38508 16.9104C2.43642 16.827 2.35299 16.827 2.22463 16.9104Z" fill="#3BADFF"/>
<path d="M0.530169 17.0707C0.510916 17.1285 0.530169 17.167 0.58793 17.167C0.690617 17.167 0.716288 17.0643 0.626438 17.013C0.594348 16.9937 0.555841 17.0194 0.530169 17.0707Z" fill="#3BADFF"/>
<path d="M0.016408 17.4816C0.0420796 17.5394 0.151184 17.8731 0.266706 18.2197C0.382228 18.5855 0.491332 18.823 0.517004 18.7844C0.613272 18.624 0.677451 18.7909 0.671033 19.1888C0.664615 19.4198 0.683869 19.6316 0.722376 19.6701C0.818644 19.7664 0.754466 18.7909 0.638943 18.4186C0.369392 17.533 0.298795 17.3918 0.13193 17.3853C0.00357224 17.3725 -0.0220993 17.3982 0.016408 17.4816Z" fill="#3BADFF"/>
<path d="M29.3717 17.7768C29.3267 17.8282 29.2112 17.8667 29.0893 17.8538C28.9545 17.8474 28.8967 17.8667 28.9096 17.9244C28.916 17.9758 28.8775 17.995 28.7748 17.9694C28.6849 17.9437 28.1779 18.0721 27.4784 18.2903C26.843 18.4892 26.2846 18.6689 26.2461 18.6818C26.1755 18.701 26.1178 19.0283 26.1884 19.0283C26.2397 19.0283 26.6569 18.8807 26.7981 18.8165C26.9136 18.7588 26.9585 18.7588 26.9778 18.8101C27.0163 18.9192 27.3179 18.8358 27.3179 18.7138C27.3179 18.5855 28.1908 18.2838 28.3897 18.348C28.4603 18.3737 28.5694 18.3673 28.6336 18.3416C28.7491 18.3031 28.7491 18.2967 28.6336 18.2582C28.5502 18.2261 28.6785 18.1619 29.0636 18.0464C29.3652 17.9501 29.6284 17.8282 29.654 17.7768C29.699 17.6485 29.4808 17.6485 29.3717 17.7768Z" fill="#3BADFF"/>
<path d="M28.8454 18.2394C28.8903 18.2586 28.9481 18.2522 28.9674 18.2329C28.993 18.2137 28.9545 18.1944 28.8839 18.2008C28.8133 18.2008 28.7941 18.2201 28.8454 18.2394Z" fill="#3BADFF"/>
<path d="M32.8374 18.5854C32.8374 18.6175 32.8695 18.6303 32.9016 18.6111C32.9401 18.5918 32.9658 18.5597 32.9658 18.5405C32.9658 18.5276 32.9401 18.5148 32.9016 18.5148C32.8695 18.5148 32.8374 18.5469 32.8374 18.5854Z" fill="#3BADFF"/>
<path d="M25.5471 18.9066C25.3995 18.9708 25.2262 19.035 25.162 19.0478C25.0914 19.0606 24.9695 19.1055 24.8796 19.1376C24.7898 19.1761 24.4625 19.2852 24.1416 19.3815C23.8271 19.4778 23.519 19.5741 23.4677 19.5933C23.3201 19.6447 23.994 19.7858 24.225 19.7473C24.3469 19.7345 24.4304 19.6832 24.4304 19.6254C24.4304 19.5612 24.4689 19.5484 24.5587 19.5741C24.6293 19.5933 24.6871 19.5933 24.6871 19.5612C24.6871 19.465 25.0465 19.3623 25.1556 19.42C25.2198 19.4585 25.361 19.4329 25.5663 19.3494C25.791 19.2532 25.8231 19.2275 25.6819 19.2467C25.5214 19.2724 25.5343 19.2596 25.7781 19.1376C25.9899 19.035 26.0669 18.9644 26.0477 18.8809C26.022 18.7461 25.8808 18.7461 25.5471 18.9066Z" fill="#3BADFF"/>
<path d="M0.254186 18.9831C0.279858 19.0537 0.401798 19.5992 0.523738 20.2025C0.741946 21.2486 1.22329 22.8788 1.6597 24.0019C1.76881 24.2843 1.99343 24.9197 2.16672 25.4074C2.5903 26.6204 2.88552 27.2173 2.73791 26.5755C2.64164 26.1519 2.80209 25.985 2.93045 26.3701L3.00104 26.5883L3.28985 26.4728C3.4503 26.415 3.61074 26.3252 3.64283 26.2738C3.68134 26.2161 3.70059 26.2097 3.70059 26.261C3.70059 26.3059 3.74552 26.3252 3.81612 26.3059C3.87388 26.2867 3.96373 26.2546 4.00865 26.2417C4.07925 26.2225 4.07283 26.1968 3.99582 26.1134C3.89955 26.0235 3.86746 26.0235 3.59149 26.1134C3.42462 26.1711 3.2706 26.2161 3.24492 26.2161C3.21283 26.2161 3.1294 26.0107 3.05239 25.7668C2.98179 25.5165 2.89194 25.3176 2.85985 25.3176C2.82776 25.3176 2.80209 25.247 2.80209 25.1635C2.80209 24.9389 1.97418 22.4295 1.90358 22.4295C1.86508 22.4295 1.83941 22.468 1.83299 22.5065C1.83299 22.5515 1.8009 22.5194 1.76881 22.4295C1.7303 22.3397 1.71747 22.1728 1.73672 22.0573C1.75597 21.9097 1.67254 21.5695 1.44791 20.9021C1.27463 20.3822 1.08209 19.7918 1.02433 19.5864C0.97299 19.3874 0.902393 19.2206 0.870304 19.2206C0.786871 19.2206 0.799707 19.3233 0.921647 19.6827C1.0115 19.9265 1.01792 20.0035 0.960154 20.0421C0.895975 20.0806 0.953736 20.3309 1.19762 21.0497C1.3709 21.5759 1.5506 22.0252 1.58911 22.0444C1.62761 22.0701 1.64687 22.1856 1.63403 22.3076C1.61478 22.5065 1.60194 22.4809 1.42866 22.0123C0.831797 20.363 0.292694 18.9318 0.254186 18.9061C0.234933 18.8868 0.234933 18.9189 0.254186 18.9831ZM2.91119 25.9401C2.89194 26.0043 2.8791 25.9529 2.8791 25.831C2.8791 25.7091 2.89194 25.6577 2.91119 25.7155C2.92403 25.7797 2.92403 25.8823 2.91119 25.9401Z" fill="#3BADFF"/>
<path d="M22.9286 19.8561C22.8516 19.8882 22.8323 19.9203 22.8708 19.946C22.9093 19.9717 22.9735 19.946 23.0184 19.8946C23.1083 19.7855 23.1019 19.7855 22.9286 19.8561Z" fill="#3BADFF"/>
<path d="M22.4536 20.0038C22.4086 20.0487 22.2803 20.0872 22.1648 20.0937C21.9466 20.1001 20.1431 20.6777 20.0404 20.7675C20.0084 20.7996 20.079 20.7932 20.2009 20.7547C20.3228 20.7226 20.6181 20.6777 20.8619 20.6649C21.2663 20.6392 21.5358 20.5493 22.0557 20.2862C22.1455 20.2413 22.2931 20.1835 22.383 20.1643C22.4728 20.1386 22.5498 20.0808 22.5498 20.0231C22.5498 19.9075 22.5498 19.9075 22.4536 20.0038Z" fill="#3BADFF"/>
<path d="M21.8953 20.5042C21.876 20.5363 21.8889 20.5684 21.9209 20.5684C21.9595 20.5684 21.9915 20.5363 21.9915 20.5042C21.9915 20.4657 21.9787 20.44 21.9659 20.44C21.9466 20.44 21.9145 20.4657 21.8953 20.5042Z" fill="#3BADFF"/>
<path d="M21.2023 20.7743C20.9969 20.8449 20.8429 20.9155 20.8557 20.9348C20.8878 20.9669 21.735 20.7038 21.735 20.6588C21.735 20.6075 21.5745 20.646 21.2023 20.7743Z" fill="#3BADFF"/>
<path d="M20.2453 20.8703C20.2838 20.8831 20.3608 20.8831 20.4057 20.8703C20.4442 20.851 20.4121 20.8382 20.3223 20.8382C20.2324 20.8382 20.2003 20.851 20.2453 20.8703Z" fill="#3BADFF"/>
<path d="M19.5399 20.9542C19.4822 20.9927 19.3538 21.0248 19.2576 21.0312C19.1549 21.0441 19.0714 21.0954 19.0522 21.1596C19.0393 21.2238 18.9944 21.2751 18.9495 21.2751C18.911 21.2751 18.8083 21.2944 18.7249 21.32C18.6093 21.3521 18.5837 21.3393 18.6222 21.2751C18.6607 21.2173 18.6479 21.1981 18.5837 21.2173C18.5323 21.2366 17.5825 21.5511 16.4722 21.9105C14.7073 22.4881 14.4377 22.5972 14.3735 22.732C14.3029 22.8732 14.3094 22.886 14.4056 22.8475C14.4634 22.8218 14.7843 22.7127 15.118 22.61C15.702 22.4239 15.7277 22.4239 15.8111 22.5394C15.8946 22.6485 15.9588 22.6357 17.1204 22.2378C18.3976 21.8014 18.5131 21.7564 18.4553 21.6923C18.4361 21.673 18.2179 21.7372 17.974 21.827C17.7301 21.9169 17.4862 21.9939 17.4349 22.0003C17.3835 22.0067 17.3193 22.0324 17.3001 22.0645C17.2616 22.1223 16.2219 22.4945 16.1064 22.4945C16.0614 22.4945 16.0229 22.456 16.0229 22.4111C16.0229 22.3276 16.5107 22.1223 16.6262 22.1608C16.6519 22.1672 16.7161 22.1479 16.761 22.1094C16.8573 22.026 18.9816 21.32 19.649 21.1532C19.8929 21.089 20.1047 20.9991 20.1175 20.9606C20.1496 20.8708 19.694 20.8708 19.5399 20.9542Z" fill="#3BADFF"/>
<path d="M20.3418 21.0369C20.2327 21.0819 20.1172 21.1396 20.0851 21.1717C20.053 21.2038 20.0851 21.2102 20.1621 21.1781C20.2327 21.1524 20.3867 21.1075 20.5023 21.0819C20.6242 21.0498 20.7333 21.0113 20.7526 20.992C20.8167 20.9278 20.56 20.9599 20.3418 21.0369Z" fill="#3BADFF"/>
<path d="M18.8145 21.1464C18.7952 21.1849 18.8209 21.1914 18.8723 21.1721C18.9878 21.1272 19.007 21.0823 18.9172 21.0823C18.8787 21.0823 18.8338 21.1079 18.8145 21.1464Z" fill="#3BADFF"/>
<path d="M33.4028 21.2557C33.268 21.2878 33.2487 21.4033 33.3771 21.4033C33.4284 21.4033 33.4798 21.3584 33.5054 21.3071C33.5247 21.2557 33.5311 21.2172 33.5247 21.2172C33.5183 21.2236 33.4605 21.2365 33.4028 21.2557Z" fill="#3BADFF"/>
<path d="M19.3474 21.4483C19.3923 21.4676 19.4501 21.4612 19.4693 21.4419C19.495 21.4227 19.4565 21.4034 19.3859 21.4098C19.3153 21.4098 19.296 21.4291 19.3474 21.4483Z" fill="#3BADFF"/>
<path d="M32.2598 21.5696C32.2598 21.621 32.2919 21.6467 32.3239 21.6274C32.3625 21.6017 32.3753 21.5568 32.356 21.5247C32.2983 21.4349 32.2598 21.4541 32.2598 21.5696Z" fill="#3BADFF"/>
<path d="M32.9398 22.0902C32.6767 22.6293 32.1569 23.5342 31.99 23.746C31.9579 23.7781 31.8488 23.9386 31.7461 24.099C31.6434 24.2594 31.4445 24.5162 31.3033 24.6766C31.1621 24.8371 31.0401 25.0039 31.0401 25.0424C31.0401 25.0874 30.9952 25.1259 30.9439 25.1259C30.8925 25.1259 30.854 25.158 30.8604 25.2029C30.8733 25.2478 30.7963 25.3248 30.6872 25.3826L30.4946 25.4788L30.6422 25.62C30.8091 25.7869 30.8797 25.8062 30.8284 25.6842C30.8091 25.6393 30.9246 25.4596 31.0787 25.2863C31.2327 25.1194 31.361 24.9526 31.361 24.9205C31.361 24.8884 31.3931 24.882 31.4252 24.9012C31.4637 24.9205 31.5215 24.9205 31.56 24.8948C31.6113 24.8627 31.6113 24.8435 31.56 24.8114C31.5151 24.7793 31.56 24.6766 31.6948 24.5097C31.9964 24.1503 32.1954 23.8551 32.1954 23.7781C32.1954 23.746 32.2275 23.7139 32.2595 23.7139C32.2981 23.7139 32.3237 23.6818 32.3237 23.6369C32.3237 23.5984 32.3879 23.4765 32.4713 23.3674C32.6639 23.1042 33.3506 21.7115 33.3506 21.5768C33.3506 21.3393 33.2222 21.4998 32.9398 22.0902Z" fill="#3BADFF"/>
<path d="M35.4048 21.5375C35.4048 21.5696 35.4369 21.5825 35.469 21.5632C35.5075 21.544 35.5331 21.5119 35.5331 21.4926C35.5331 21.4798 35.5075 21.467 35.469 21.467C35.4369 21.467 35.4048 21.499 35.4048 21.5375Z" fill="#3BADFF"/>
<path d="M30.4177 22.4624C30.3664 22.5523 30.3664 22.6293 30.4049 22.7063C30.4947 22.8603 30.5589 22.8411 30.6424 22.655C30.7001 22.5266 30.7001 22.4945 30.6295 22.4945C30.5782 22.4945 30.5268 22.456 30.514 22.4175C30.4947 22.3662 30.4562 22.379 30.4177 22.4624Z" fill="#3BADFF"/>
<path d="M13.199 22.975C12.493 23.2124 12.1978 23.3408 12.1849 23.4114C12.1721 23.4692 12.1978 23.5205 12.2427 23.5205C12.3133 23.5205 14.136 22.9493 14.213 22.9044C14.2258 22.898 14.2258 22.8338 14.213 22.7632C14.1937 22.6477 14.1231 22.6669 13.199 22.975Z" fill="#3BADFF"/>
<path d="M30.0653 22.9945C29.7188 23.5143 28.8138 24.5155 28.1977 25.0675C26.6959 26.4024 24.931 27.3266 22.9543 27.8272C21.5488 28.1801 20.0277 28.2893 18.7506 28.1352C18.4361 28.0967 18.0382 28.0582 17.8713 28.0454C17.7045 28.0325 17.544 28.0133 17.5184 27.994C17.4863 27.9748 17.2424 27.9042 16.9664 27.8336C16.5621 27.7309 16.4722 27.7245 16.4722 27.7951C16.4722 27.8464 16.4145 27.8849 16.331 27.8785C16.2155 27.8721 16.2091 27.8657 16.299 27.84C16.4273 27.8079 16.4081 27.6475 16.2797 27.6796C16.2348 27.686 16.1642 27.6667 16.1128 27.6218C16.0615 27.5833 15.9524 27.5704 15.8625 27.5897C15.7406 27.6218 15.7149 27.609 15.7406 27.5319C15.7663 27.4678 15.7406 27.4357 15.6764 27.4357C15.6122 27.4357 15.5737 27.4934 15.5737 27.5833C15.5737 27.7116 15.6443 27.7566 16.1064 27.9042C16.883 28.1673 18.0318 28.3855 19.0715 28.469C22.1264 28.7257 25.4188 27.6988 27.864 25.7349C29.0192 24.8108 30.4311 23.2255 30.3541 22.9431C30.2964 22.7314 30.2322 22.7378 30.0653 22.9945Z" fill="#3BADFF"/>
<path d="M32.1315 23.2642C32.093 23.3348 32.0866 23.3926 32.1187 23.3926C32.1572 23.3926 32.1957 23.3348 32.215 23.2642C32.2342 23.1936 32.2342 23.1359 32.2214 23.1359C32.2085 23.1359 32.17 23.1936 32.1315 23.2642Z" fill="#3BADFF"/>
<path d="M34.1335 23.649C34.0886 23.7196 34.0822 23.7773 34.1143 23.7773C34.1721 23.7773 34.2683 23.5848 34.2298 23.5463C34.2234 23.5335 34.1785 23.5848 34.1335 23.649Z" fill="#3BADFF"/>
<path d="M10.8758 23.7263C10.7282 23.7777 10.7089 23.8033 10.7731 23.8996C10.8308 23.9959 10.8758 24.0023 11.0298 23.9445C11.1325 23.906 11.2095 23.829 11.2095 23.7648C11.2095 23.6365 11.1325 23.6301 10.8758 23.7263Z" fill="#3BADFF"/>
<path d="M10.2017 23.9511C10.0284 24.0088 9.92575 24.0859 9.92575 24.15C9.92575 24.2335 9.91291 24.2399 9.86799 24.1757C9.82948 24.1051 9.59202 24.1629 8.73202 24.4388L7.6474 24.7854L7.63456 25.0678C7.62814 25.2988 7.63456 25.3181 7.66665 25.1576L7.71158 24.9651L7.79501 25.2282C7.83352 25.3759 7.87202 25.5748 7.87202 25.6775C7.87202 25.9021 8.01963 26.1396 8.44963 26.6017C8.75769 26.929 8.77695 26.9418 8.73844 26.7685C8.69993 26.6017 8.70635 26.5888 8.80262 26.6659C8.87321 26.7236 8.89247 26.807 8.8668 26.9033C8.84754 26.9867 8.86038 27.0509 8.89889 27.0509C8.93097 27.0509 8.96306 27.0188 8.96306 26.9803C8.96306 26.9482 8.99515 26.9354 9.02724 26.9547C9.06575 26.9739 9.09142 27.0445 9.09142 27.1087C9.09142 27.2242 9.43157 27.5708 9.93858 27.9751C10.1054 28.1099 10.2274 28.2511 10.2081 28.2832C10.1825 28.3217 10.144 28.3217 10.099 28.2767C10.0605 28.2382 10.0028 28.2061 9.96426 28.2061C9.93217 28.2061 9.95784 28.2447 10.022 28.296C10.0862 28.3409 10.1889 28.3666 10.2466 28.3538C10.3108 28.3345 10.606 28.5014 10.9526 28.7452C11.4019 29.0597 11.5687 29.1496 11.6137 29.0918C11.6522 29.0341 11.6586 29.0533 11.6393 29.1496C11.5944 29.3614 11.6522 29.3293 11.7356 29.0982C11.8126 28.8736 11.8832 28.9121 11.9602 29.2266C12.0051 29.4063 12.0822 29.4769 12.4287 29.663C12.6598 29.7849 12.8587 29.9069 12.8651 29.939C12.878 29.9775 12.9293 30.0032 12.9742 30.0032C13.0256 30.0032 13.3336 30.1187 13.6545 30.2599C13.9819 30.4011 14.2835 30.5166 14.322 30.5166C14.3669 30.5166 14.3862 30.446 14.3733 30.3433C14.3477 30.1379 14.4375 29.9646 14.5338 30.0288C14.5723 30.0545 14.5851 30.17 14.5659 30.3112C14.5338 30.5358 14.5338 30.5423 14.6301 30.4203C14.6878 30.3497 14.7392 30.3176 14.7392 30.3561C14.7392 30.3882 14.7713 30.3754 14.8033 30.324C14.8483 30.2535 14.8675 30.292 14.8739 30.4845L14.8868 30.7412L14.9317 30.4845C14.9574 30.3369 14.983 30.292 14.9895 30.3754C14.9895 30.4588 15.0216 30.5102 15.0472 30.4909C15.0793 30.4717 15.0922 30.3626 15.0729 30.247C15.0344 29.9839 15.105 30.0417 15.2205 30.369L15.3104 30.6129V30.324L15.3168 30.0352L14.7456 29.8299C14.1423 29.6052 13.9754 29.6052 13.9626 29.8363C13.9562 29.9646 13.9562 29.9646 13.9048 29.8427C13.8792 29.7721 13.8407 29.6502 13.8086 29.5667C13.7187 29.3036 13.6481 29.4191 13.6738 29.7914C13.6866 29.9967 13.6866 30.0866 13.6674 29.9839C13.6545 29.8876 13.616 29.8235 13.5839 29.8427C13.5583 29.862 13.5133 29.7464 13.4941 29.5924C13.4556 29.3549 13.4107 29.2843 13.2181 29.1688C13.0962 29.0982 12.9807 29.0469 12.9614 29.0597C12.9486 29.079 12.9871 29.1945 13.0513 29.3293C13.1604 29.5603 13.1604 29.5667 13.0384 29.6566C12.878 29.7785 12.8202 29.7721 12.8202 29.6309C12.8202 29.5732 12.7945 29.4191 12.7625 29.2972C12.7304 29.1752 12.6919 29.0276 12.679 28.9827C12.6662 28.9314 12.3517 28.6939 11.9795 28.4564C11.4083 28.0906 11.2992 28.0393 11.2607 28.1291C11.2286 28.219 11.2157 28.2126 11.2157 28.097C11.2093 28.0136 11.1131 27.8852 10.9719 27.7761C10.8371 27.6799 10.574 27.4745 10.3943 27.3205C10.2081 27.1664 10.0541 27.0702 10.0541 27.1087C10.0541 27.1472 10.0092 27.1793 9.95784 27.1793C9.90649 27.1793 9.86157 27.2242 9.86157 27.2755C9.86157 27.3269 9.8359 27.3718 9.79739 27.3718C9.7653 27.3718 9.73321 27.237 9.73321 27.0702C9.73321 26.7878 9.70754 26.7429 9.36739 26.3963C9.16202 26.1909 8.96306 26.0241 8.92456 26.0241C8.87963 26.0241 8.81545 25.947 8.78336 25.8444C8.74486 25.7481 8.58441 25.5299 8.42396 25.3502C8.26351 25.1769 8.12874 24.9972 8.12874 24.9587C8.12874 24.8945 8.44321 24.7662 8.4753 24.8175C8.48172 24.8303 8.59724 24.9779 8.73202 25.1448C8.9053 25.363 8.99515 25.4336 9.03366 25.3759C9.06575 25.3245 9.00157 25.1962 8.86038 25.0357C8.73844 24.8945 8.64217 24.7662 8.64217 24.7469C8.64217 24.7276 9.04008 24.58 9.515 24.4324C10.144 24.2271 10.4071 24.1693 10.4584 24.2206C10.574 24.3362 10.5996 24.3041 10.5996 24.0666C10.5996 23.8163 10.5868 23.8099 10.2017 23.9511ZM9.085 26.73C9.09142 26.8584 9.07859 26.8712 9.02724 26.7942C8.99515 26.7429 8.96948 26.6081 8.96948 26.5054C8.96948 26.3385 8.98232 26.3321 9.02724 26.4412C9.05933 26.5118 9.085 26.6402 9.085 26.73ZM11.3954 28.3152C11.3954 28.4179 11.3762 28.4564 11.3569 28.4115C11.3441 28.373 11.2992 28.3538 11.2607 28.373C11.2286 28.3923 11.235 28.3538 11.2863 28.2767C11.3954 28.1035 11.4019 28.1035 11.3954 28.3152Z" fill="#3BADFF"/>
<path d="M26.0217 24.0985C25.8613 24.2526 25.8164 24.2718 25.5853 24.2269C25.4441 24.2012 25.3286 24.1884 25.3286 24.2012C25.3286 24.2141 25.38 24.3232 25.4377 24.4515C25.5404 24.6633 25.5404 24.689 25.4377 24.9008C25.38 25.0291 25.3286 25.1446 25.3286 25.1575C25.3286 25.1767 25.4506 25.1703 25.6046 25.1511C25.8356 25.119 25.8934 25.1382 26.0282 25.2794C26.118 25.3693 26.2079 25.4463 26.2271 25.4463C26.2528 25.4463 26.2913 25.3308 26.317 25.1896C26.3491 24.9714 26.394 24.9136 26.5801 24.8238C26.702 24.766 26.8047 24.6954 26.8047 24.6697C26.8047 24.6441 26.702 24.5863 26.5801 24.5414C26.3876 24.4708 26.3555 24.4258 26.317 24.182C26.2977 24.0279 26.2592 23.9124 26.2335 23.9124C26.2143 23.9188 26.118 24.0023 26.0217 24.0985Z" fill="#3BADFF"/>
<path d="M10.7664 24.2655C10.7664 24.3361 10.7856 24.3553 10.8049 24.304C10.8242 24.2591 10.8177 24.2013 10.7985 24.1821C10.7792 24.1564 10.76 24.1949 10.7664 24.2655Z" fill="#3BADFF"/>
<path d="M10.8882 24.6376C10.8882 24.689 10.9203 24.7532 10.9524 24.7724C10.9909 24.7917 11.0165 24.7532 11.0165 24.6826C11.0165 24.6055 10.9909 24.5478 10.9524 24.5478C10.9203 24.5478 10.8882 24.5863 10.8882 24.6376Z" fill="#3BADFF"/>
<path d="M11.1577 24.8045C11.1577 24.9265 11.1706 24.9778 11.1898 24.9136C11.2026 24.8559 11.2026 24.7532 11.1898 24.689C11.1706 24.6312 11.1577 24.6826 11.1577 24.8045Z" fill="#3BADFF"/>
<path d="M31.6507 24.6761C31.6314 24.7081 31.6378 24.7402 31.6763 24.7402C31.7084 24.7402 31.7598 24.7081 31.779 24.6761C31.7983 24.6375 31.7918 24.6119 31.7533 24.6119C31.7212 24.6119 31.6699 24.6375 31.6507 24.6761Z" fill="#3BADFF"/>
<path d="M11.2797 24.8178C11.2797 24.9013 11.299 25.0104 11.3247 25.0681C11.3889 25.2157 12.1012 25.8062 12.7815 26.2747C13.3399 26.6598 13.3591 26.6662 13.3977 26.525C13.4297 26.4223 13.3977 26.3517 13.3014 26.2811C13.2308 26.2298 12.9484 26.0244 12.6724 25.8254C12.3965 25.6329 11.9665 25.2927 11.7226 25.0681C11.3311 24.7215 11.2733 24.6895 11.2797 24.8178Z" fill="#3BADFF"/>
<path d="M7.42905 24.9461C7.42905 24.9911 7.45472 25.0873 7.48681 25.1579C7.53173 25.267 7.54457 25.2542 7.54457 25.0745C7.55099 24.9654 7.52532 24.8691 7.48681 24.8691C7.45472 24.8691 7.42263 24.9076 7.42905 24.9461Z" fill="#3BADFF"/>
<path d="M23.4033 25.2218L23.1145 25.5106L22.7615 25.4529C22.569 25.4208 22.3957 25.4079 22.3893 25.4143C22.3765 25.4272 22.4406 25.5812 22.5433 25.7609L22.7166 26.0882L22.5497 26.4027C22.4535 26.576 22.3765 26.7364 22.3765 26.7557C22.3765 26.7814 22.5497 26.7814 22.768 26.7557L23.153 26.7108L23.4354 26.9867L23.7114 27.2627L23.7563 26.9482C23.8205 26.4605 23.8333 26.4412 24.1735 26.2808C24.3532 26.1973 24.4944 26.1139 24.4944 26.0882C24.4944 26.069 24.3339 25.9727 24.1414 25.8764C23.8077 25.716 23.7884 25.6903 23.782 25.4657C23.7756 25.3309 23.7563 25.1576 23.7371 25.0742C23.6921 24.9394 23.6793 24.9458 23.4033 25.2218Z" fill="#3BADFF"/>
<path d="M7.10156 25.0932C7.10156 25.1445 7.12723 25.1895 7.16574 25.1895C7.19783 25.1895 7.21067 25.1445 7.19141 25.0932C7.16574 25.0418 7.14007 24.9969 7.12723 24.9969C7.1144 24.9969 7.10156 25.0418 7.10156 25.0932Z" fill="#3BADFF"/>
<path d="M30.4632 25.2214C30.3797 25.3112 30.3412 25.3818 30.3797 25.3818C30.4567 25.3818 30.6878 25.138 30.6429 25.093C30.63 25.0738 30.5466 25.1315 30.4632 25.2214Z" fill="#3BADFF"/>
<path d="M5.78611 25.4073C5.40745 25.5357 5.2085 25.6384 5.2085 25.7026C5.2085 25.8117 5.29835 25.8053 5.80536 25.6576C6.04282 25.5935 6.16476 25.5165 6.20327 25.4266C6.25461 25.2982 6.26103 25.2982 6.26103 25.4073C6.26745 25.5036 6.2867 25.5165 6.33804 25.4651C6.37655 25.4266 6.39581 25.3496 6.38297 25.2982C6.37013 25.2212 6.26103 25.2405 5.78611 25.4073Z" fill="#3BADFF"/>
<path d="M31.2329 25.35C31.188 25.4014 31.1816 25.4463 31.2201 25.4463C31.2522 25.4463 31.3164 25.4014 31.3613 25.35C31.4062 25.2987 31.4126 25.2538 31.3741 25.2538C31.342 25.2538 31.2779 25.2987 31.2329 25.35Z" fill="#3BADFF"/>
<path d="M33.0683 25.4209C32.9592 25.4979 32.9592 25.5107 33.0426 25.5107C33.1004 25.5107 33.171 25.4787 33.1902 25.4401C33.2608 25.331 33.203 25.3246 33.0683 25.4209Z" fill="#3BADFF"/>
<path d="M7.53829 25.4269C7.58321 25.4461 7.64097 25.4397 7.66023 25.4204C7.6859 25.4012 7.64739 25.3819 7.57679 25.3883C7.5062 25.3883 7.48694 25.4076 7.53829 25.4269Z" fill="#3BADFF"/>
<path d="M30.957 25.5555C30.8928 25.6133 30.8992 25.7031 30.9698 25.7031C31.0019 25.7031 31.0404 25.6582 31.0661 25.6069C31.0982 25.5106 31.034 25.4785 30.957 25.5555Z" fill="#3BADFF"/>
<path d="M29.9047 25.7351C29.8084 25.8185 29.7571 25.8955 29.7956 25.8955C29.8341 25.8955 29.9303 25.8249 30.0138 25.7351C30.2063 25.5297 30.1357 25.5297 29.9047 25.7351Z" fill="#3BADFF"/>
<path d="M4.96427 25.6837C4.88083 25.7607 4.91934 25.8955 5.01561 25.8955C5.06695 25.8955 5.11188 25.8377 5.11188 25.7671C5.11188 25.6388 5.04128 25.6003 4.96427 25.6837Z" fill="#3BADFF"/>
<path d="M4.70107 25.8637C4.72674 25.915 4.76525 25.96 4.79734 25.96C4.82943 25.96 4.8551 25.915 4.8551 25.8637C4.8551 25.8123 4.81017 25.7674 4.75883 25.7674C4.70107 25.7674 4.68181 25.8059 4.70107 25.8637Z" fill="#3BADFF"/>
<path d="M20.3803 25.9344C20.252 26.0756 20.1878 26.0948 19.9568 26.0692C19.8027 26.0563 19.6808 26.0499 19.6808 26.0692C19.6808 26.082 19.7257 26.1847 19.7835 26.2874C19.8862 26.4928 19.8541 26.8522 19.7257 26.9356C19.5909 27.019 19.7129 27.0447 19.9568 26.9869C20.1814 26.942 20.2199 26.9484 20.3675 27.1217C20.5793 27.3592 20.6435 27.3592 20.6435 27.1217C20.6435 26.8329 20.7012 26.7431 20.9387 26.666C21.0606 26.6275 21.1569 26.5698 21.1569 26.5441C21.1569 26.5184 21.0414 26.4414 20.9002 26.3772C20.6627 26.2681 20.6435 26.2425 20.6435 26.0114C20.6435 25.7226 20.5921 25.7098 20.3803 25.9344Z" fill="#3BADFF"/>
<path d="M4.42513 25.9595C4.43154 26.0301 4.47005 26.0879 4.51498 26.0879C4.5599 26.0879 4.59841 26.0301 4.59841 25.9595C4.59841 25.8889 4.5599 25.8312 4.50856 25.8312C4.4508 25.8312 4.41871 25.8889 4.42513 25.9595Z" fill="#3BADFF"/>
<path d="M4.02148 26.0237C4.02148 26.0558 4.05357 26.0879 4.08566 26.0879C4.12417 26.0879 4.14984 26.0558 4.14984 26.0237C4.14984 25.9852 4.12417 25.9595 4.08566 25.9595C4.05357 25.9595 4.02148 25.9852 4.02148 26.0237Z" fill="#3BADFF"/>
<path d="M32.5171 26.0307C32.5171 26.0628 32.5492 26.0756 32.5813 26.0564C32.6198 26.0371 32.6454 26.005 32.6454 25.9858C32.6454 25.973 32.6198 25.9601 32.5813 25.9601C32.5492 25.9601 32.5171 25.9922 32.5171 26.0307Z" fill="#3BADFF"/>
<path d="M29.3591 26.0685C29.404 26.0877 29.4618 26.0813 29.481 26.062C29.5067 26.0428 29.4682 26.0235 29.3976 26.0299C29.327 26.0299 29.3077 26.0492 29.3591 26.0685Z" fill="#3BADFF"/>
<path d="M9.79736 26.2164C9.79736 26.287 9.82303 26.3447 9.84871 26.3447C9.87438 26.3447 9.90005 26.287 9.90647 26.2164C9.91289 26.1458 9.89363 26.088 9.85512 26.088C9.82303 26.088 9.79736 26.1458 9.79736 26.2164Z" fill="#3BADFF"/>
<path d="M9.98975 26.3958C9.98975 26.4664 10.1117 26.6204 10.285 26.7616C10.5545 26.9862 10.5738 26.9926 10.5545 26.8578C10.5481 26.7808 10.4133 26.614 10.2657 26.4856C10.0218 26.2867 9.98975 26.2802 9.98975 26.3958Z" fill="#3BADFF"/>
<path d="M13.6479 26.6017C13.6479 26.6723 13.725 26.807 13.8212 26.8969L14.0009 27.0638L14.0394 26.9097C14.0844 26.7621 14.0844 26.7621 14.0908 26.929C14.0972 27.0638 14.155 27.1215 14.4373 27.237C14.6171 27.3205 14.8481 27.4296 14.9444 27.4745C15.1626 27.59 15.2524 27.59 15.2524 27.4617C15.2524 27.3333 15.3744 27.4103 15.445 27.59C15.4963 27.7184 15.5027 27.7184 15.5027 27.5579C15.5091 27.4103 15.4385 27.359 14.7582 27.0509C14.3411 26.8584 13.9239 26.653 13.8277 26.5824C13.6479 26.4669 13.6479 26.4669 13.6479 26.6017Z" fill="#3BADFF"/>
<path d="M10.7147 27.0123C10.734 27.0636 10.7211 27.1214 10.6762 27.1406C10.6249 27.1599 10.6249 27.1727 10.689 27.1727C10.734 27.1791 10.9137 27.2818 11.0869 27.4102C11.3244 27.5835 11.4014 27.6156 11.4014 27.5321C11.4014 27.4038 11.0741 27.1085 10.9714 27.147C10.9329 27.1599 10.888 27.115 10.8687 27.0444C10.8495 26.9802 10.7981 26.9224 10.7596 26.9224C10.7147 26.9224 10.6955 26.9609 10.7147 27.0123Z" fill="#3BADFF"/>
<path d="M27.0293 27.1145C27.01 27.1466 27.0357 27.1787 27.0934 27.1787C27.1512 27.1787 27.1769 27.1466 27.1576 27.1145C27.1384 27.076 27.1063 27.0504 27.0934 27.0504C27.0806 27.0504 27.0485 27.076 27.0293 27.1145Z" fill="#3BADFF"/>
<path d="M8.51367 27.2374C8.51367 27.2695 8.54576 27.3208 8.57785 27.3401C8.61636 27.3593 8.64203 27.3529 8.64203 27.3144C8.64203 27.2823 8.61636 27.231 8.57785 27.2117C8.54576 27.1925 8.51367 27.1989 8.51367 27.2374Z" fill="#3BADFF"/>
<path d="M27.1897 27.2749C27.1447 27.3327 27.1255 27.3969 27.1512 27.4161C27.1768 27.4418 27.1255 27.4996 27.0485 27.5445C26.9137 27.6151 26.9201 27.6215 27.1768 27.6279C27.4336 27.6279 27.44 27.6215 27.3694 27.4996C27.3244 27.429 27.2603 27.3712 27.2218 27.3712C27.1897 27.3712 27.2025 27.3455 27.2539 27.307C27.3052 27.2749 27.3309 27.23 27.3116 27.2108C27.2859 27.1915 27.2346 27.2172 27.1897 27.2749Z" fill="#3BADFF"/>
<path d="M26.3873 27.5638C26.368 27.5958 26.3937 27.6279 26.445 27.6279C26.5028 27.6279 26.5477 27.5958 26.5477 27.5638C26.5477 27.5252 26.522 27.4996 26.4899 27.4996C26.4514 27.4996 26.4065 27.5252 26.3873 27.5638Z" fill="#3BADFF"/>
<path d="M11.6582 27.7183C11.6582 27.8339 12.4604 28.373 13.1215 28.7067C13.7633 29.034 13.6092 28.7901 12.9289 28.3986C12.6016 28.2125 12.2872 28.0264 12.2358 27.9815C12.1845 27.943 12.0304 27.8403 11.9021 27.7633C11.6967 27.6413 11.6582 27.6349 11.6582 27.7183Z" fill="#3BADFF"/>
<path d="M26.4516 27.725C26.2976 27.7956 26.2847 27.8148 26.3938 27.8148C26.4644 27.8212 26.58 27.7763 26.6506 27.725C26.8046 27.6094 26.7019 27.6094 26.4516 27.725Z" fill="#3BADFF"/>
<path d="M26.9201 27.7374C26.965 27.7567 27.0228 27.7502 27.0421 27.731C27.0677 27.7117 27.0292 27.6925 26.9586 27.6989C26.888 27.6989 26.8688 27.7181 26.9201 27.7374Z" fill="#3BADFF"/>
<path d="M25.9965 27.8012C26.0158 27.8205 25.9837 27.8782 25.9195 27.9296C25.8168 28.0194 25.8168 28.0194 25.9259 27.9873C25.9901 27.9681 26.0864 27.9488 26.1377 27.9488C26.2789 27.9488 26.2468 27.8397 26.0928 27.8012C26.0158 27.7819 25.9773 27.7819 25.9965 27.8012Z" fill="#3BADFF"/>
<path d="M25.5407 27.9298C25.5984 27.9427 25.6883 27.9427 25.7332 27.9298C25.7717 27.9106 25.7268 27.8977 25.6177 27.8977C25.515 27.8977 25.4765 27.9106 25.5407 27.9298Z" fill="#3BADFF"/>
<path d="M24.43 28.1166L24.2695 28.2129L24.43 28.168C24.5198 28.1487 24.6161 28.1038 24.6546 28.0717C24.7509 27.9818 24.6097 28.0075 24.43 28.1166Z" fill="#3BADFF"/>
<path d="M26.4833 28.1739C26.4833 28.2252 26.3678 28.2958 26.2266 28.3407C25.8736 28.4498 25.9571 28.5012 26.3165 28.3985C26.6117 28.315 26.7401 28.1803 26.5732 28.1161C26.5218 28.0968 26.4833 28.1225 26.4833 28.1739Z" fill="#3BADFF"/>
<path d="M24.815 28.3343C24.7315 28.3856 24.7315 28.3984 24.8278 28.3984C24.8856 28.3984 24.9562 28.3663 24.9754 28.3343C25.0268 28.2508 24.9433 28.2508 24.815 28.3343Z" fill="#3BADFF"/>
<path d="M25.3286 28.3413C25.3286 28.3733 25.3607 28.3862 25.3928 28.3669C25.4313 28.3477 25.457 28.3156 25.457 28.2963C25.457 28.2835 25.4313 28.2707 25.3928 28.2707C25.3607 28.2707 25.3286 28.3028 25.3286 28.3413Z" fill="#3BADFF"/>
<path d="M24.5586 28.4047C24.5586 28.4368 24.5907 28.4497 24.6228 28.4304C24.6613 28.4112 24.687 28.3791 24.687 28.3598C24.687 28.347 24.6613 28.3341 24.6228 28.3341C24.5907 28.3341 24.5586 28.3662 24.5586 28.4047Z" fill="#3BADFF"/>
<path d="M25.0527 28.3793C25.0271 28.3985 25.0078 28.4499 25.0078 28.4884C25.0078 28.5269 25.0399 28.5205 25.0848 28.4756C25.1233 28.437 25.1426 28.3857 25.1298 28.3664C25.1105 28.3472 25.072 28.3536 25.0527 28.3793Z" fill="#3BADFF"/>
<path d="M29.7891 28.4628C29.7699 28.5013 29.7955 28.5078 29.8469 28.4885C29.9624 28.4436 29.9816 28.3987 29.8918 28.3987C29.8533 28.3987 29.8084 28.4243 29.7891 28.4628Z" fill="#3BADFF"/>
<path d="M9.66901 28.6233C9.71394 28.6747 9.7717 28.7004 9.80379 28.6811C9.88722 28.6298 9.8102 28.5271 9.68826 28.5271C9.60483 28.5271 9.60483 28.5463 9.66901 28.6233Z" fill="#3BADFF"/>
<path d="M10.0542 28.5522C10.0542 28.565 10.1055 28.6163 10.1697 28.6613C10.266 28.7447 10.2724 28.7383 10.189 28.6356C10.1055 28.5329 10.0542 28.5008 10.0542 28.5522Z" fill="#3BADFF"/>
<path d="M25.521 28.5913C25.521 28.6233 25.5659 28.6362 25.6173 28.6169C25.6686 28.5913 25.7135 28.5656 25.7135 28.5528C25.7135 28.5399 25.6686 28.5271 25.6173 28.5271C25.5659 28.5271 25.521 28.5528 25.521 28.5913Z" fill="#3BADFF"/>
<path d="M24.3014 28.6555C24.1667 28.7004 24.1602 28.7069 24.2693 28.7133C24.3913 28.7261 24.3913 28.7261 24.2758 28.816C24.2116 28.8609 24.1795 28.9315 24.2052 28.97C24.2629 29.0663 24.4362 29.0598 24.417 28.9636C24.4041 28.9186 24.4555 28.8801 24.5325 28.8737C24.6031 28.8737 24.7186 28.8352 24.7892 28.7967C24.9047 28.7261 24.8983 28.7261 24.7507 28.7197C24.6223 28.7197 24.6095 28.7069 24.6865 28.6555C24.7635 28.6042 24.7507 28.5913 24.6223 28.5978C24.5325 28.6042 24.3913 28.6298 24.3014 28.6555Z" fill="#3BADFF"/>
<path d="M22.9922 28.8029C22.8831 28.8864 22.9151 28.8928 23.2938 28.8543C23.3772 28.8479 23.2745 28.7195 23.1847 28.7195C23.1398 28.7195 23.0563 28.758 22.9922 28.8029Z" fill="#3BADFF"/>
<path d="M13.5906 28.8866C13.5906 28.9572 13.6099 28.9764 13.6291 28.9251C13.6484 28.8802 13.642 28.8224 13.6227 28.8032C13.6035 28.7775 13.5842 28.816 13.5906 28.8866Z" fill="#3BADFF"/>
<path d="M13.8533 28.9758C13.9431 29.117 14.0073 29.0977 13.9495 28.9437C13.9239 28.8924 13.8789 28.8474 13.8404 28.8474C13.8019 28.8474 13.8019 28.8924 13.8533 28.9758Z" fill="#3BADFF"/>
<path d="M22.4404 28.9501C22.3249 29.0015 22.2479 29.0592 22.2671 29.0849C22.2928 29.1042 22.3441 29.0913 22.389 29.0528C22.434 29.0207 22.5623 28.9758 22.665 28.963C22.7934 28.9501 22.8255 28.9309 22.7549 28.9052C22.7035 28.8795 22.5623 28.8988 22.4404 28.9501Z" fill="#3BADFF"/>
<path d="M23.9483 28.9765C23.929 29.015 23.9547 29.0214 24.006 29.0022C24.1216 28.9573 24.1408 28.9123 24.051 28.9123C24.0125 28.9123 23.9675 28.938 23.9483 28.9765Z" fill="#3BADFF"/>
<path d="M23.4996 29.0403C23.4803 29.0724 23.5188 29.1045 23.5894 29.1045C23.6664 29.1045 23.7242 29.0724 23.7242 29.0403C23.7242 29.0018 23.6857 28.9761 23.6343 28.9761C23.583 28.9761 23.5188 29.0018 23.4996 29.0403Z" fill="#3BADFF"/>
<path d="M23.1979 29.0851C23.2364 29.0979 23.3134 29.0979 23.3583 29.0851C23.3968 29.0658 23.3648 29.053 23.2749 29.053C23.1851 29.053 23.153 29.0658 23.1979 29.0851Z" fill="#3BADFF"/>
<path d="M14.2896 29.1752C14.2896 29.2073 14.3216 29.2202 14.3537 29.2009C14.3922 29.1817 14.4179 29.1496 14.4179 29.1303C14.4179 29.1175 14.3922 29.1046 14.3537 29.1046C14.3216 29.1046 14.2896 29.1367 14.2896 29.1752Z" fill="#3BADFF"/>
<path d="M24.3013 29.2327C24.3013 29.2648 24.3334 29.2969 24.3654 29.2969C24.404 29.2969 24.4296 29.2648 24.4296 29.2327C24.4296 29.1942 24.404 29.1685 24.3654 29.1685C24.3334 29.1685 24.3013 29.1942 24.3013 29.2327Z" fill="#3BADFF"/>
<path d="M14.6561 29.316C14.6304 29.3866 14.7203 29.4507 14.9706 29.5406C15.2914 29.6561 15.3171 29.6561 15.3171 29.5534C15.3171 29.4828 15.2337 29.4186 15.0797 29.3673C14.9449 29.3224 14.8037 29.2775 14.7652 29.2582C14.7267 29.2389 14.6753 29.271 14.6561 29.316Z" fill="#3BADFF"/>
<path d="M10.8564 29.4575C10.927 29.5152 11.0553 29.573 11.1452 29.5923C11.235 29.6115 11.5431 29.7078 11.8319 29.8105C12.1207 29.9067 12.371 29.9709 12.3903 29.9517C12.4416 29.9003 11.9988 29.6821 11.8383 29.6821C11.7549 29.6757 11.5303 29.6179 11.3377 29.5473C11.1452 29.4767 10.927 29.4061 10.8564 29.3869L10.728 29.3548L10.8564 29.4575Z" fill="#3BADFF"/>
<path d="M11.4334 29.4251C11.4526 29.4572 11.4847 29.4893 11.504 29.4893C11.5168 29.4893 11.5296 29.4572 11.5296 29.4251C11.5296 29.3866 11.4975 29.3609 11.459 29.3609C11.4269 29.3609 11.4141 29.3866 11.4334 29.4251Z" fill="#3BADFF"/>
<path d="M15.4453 29.5861C15.4453 29.708 15.5993 29.7658 16.4529 29.984C17.0755 30.138 17.2808 30.1444 17.1396 30.0097C17.1075 29.9776 16.7867 29.8749 16.4272 29.785C16.0678 29.6952 15.702 29.5925 15.6122 29.554C15.4774 29.5027 15.4453 29.5155 15.4453 29.5861Z" fill="#3BADFF"/>
<path d="M22.4274 29.8556C22.4724 29.8748 22.5301 29.8684 22.5494 29.8491C22.5751 29.8299 22.5365 29.8106 22.466 29.8171C22.3954 29.8171 22.3761 29.8363 22.4274 29.8556Z" fill="#3BADFF"/>
<path d="M17.2549 30.0803C17.287 30.1765 17.5116 30.2279 18.3331 30.3306C19.1289 30.4333 19.1353 30.4333 19.1482 30.3562C19.1546 30.3177 19.1032 30.2985 19.0326 30.3049C18.9621 30.3177 18.9235 30.2985 18.9428 30.26C18.9621 30.2215 18.93 30.1958 18.8658 30.1958C18.8016 30.1958 18.4358 30.1509 18.0443 30.0995C17.1907 29.984 17.2228 29.984 17.2549 30.0803Z" fill="#3BADFF"/>
<path d="M19.4752 30.4328C19.5137 30.4456 19.5908 30.4456 19.6357 30.4328C19.6742 30.4135 19.6421 30.4007 19.5523 30.4007C19.4624 30.4007 19.4303 30.4135 19.4752 30.4328Z" fill="#3BADFF"/>
<path d="M20.4059 30.5617C20.4636 30.5745 20.5535 30.5745 20.5984 30.5617C20.6369 30.5424 20.592 30.5296 20.4829 30.5296C20.3802 30.5296 20.3417 30.5424 20.4059 30.5617Z" fill="#3BADFF"/>
<path d="M12.8582 15.4448C12.9367 15.3749 13.0357 15.3431 13.1554 15.3496C13.2734 15.351 13.3725 15.3893 13.4526 15.4644C13.5625 15.5804 13.5695 15.777 13.4734 16.0542C13.4247 16.1818 13.3984 16.2658 13.3946 16.3062C13.3942 16.34 13.4124 16.3705 13.4492 16.398C13.4927 16.4288 13.6301 16.4996 13.8616 16.6103C14.093 16.721 14.2834 16.8084 14.4328 16.8725C14.6124 16.9438 14.739 17.0069 14.8126 17.0617C14.8845 17.1115 14.9319 17.1719 14.9547 17.243C14.987 17.3615 14.9603 17.4792 14.8746 17.5963C14.7889 17.7133 14.6845 17.772 14.5614 17.7722C14.4449 17.7759 14.3363 17.7603 14.2355 17.7254C14.1398 17.6888 13.9511 17.598 13.6695 17.453C13.3476 17.2873 13.1663 17.211 13.1257 17.224C13.1054 17.2305 13.0899 17.2607 13.0791 17.3145C13.0702 17.3566 13.0623 17.3843 13.0554 17.3977C13.0192 17.4597 12.9843 17.5605 12.9506 17.7001C12.9471 17.7068 12.9411 17.7228 12.9323 17.748C12.9236 17.7732 12.9122 17.8076 12.8982 17.8513C12.8893 17.8933 12.8795 17.9329 12.869 17.9698C12.7967 18.2338 12.7095 18.4073 12.6073 18.4905C12.5102 18.572 12.3837 18.5705 12.2279 18.486C12.1257 18.4291 12.0625 18.3542 12.0383 18.2611C12.0191 18.1665 12.0325 18.0334 12.0784 17.8619C12.0857 17.8147 12.0921 17.7735 12.0975 17.7381C12.1065 17.6961 12.1188 17.6473 12.1347 17.5918C12.1521 17.5414 12.1601 17.5137 12.1584 17.5086C12.1568 17.5035 12.1894 17.3867 12.2562 17.1581C12.3337 16.8756 12.3849 16.6857 12.4096 16.5881C12.45 16.452 12.5008 16.2957 12.5619 16.1193C12.623 15.943 12.6623 15.8296 12.6797 15.7792C12.7254 15.6245 12.7849 15.5131 12.8582 15.4448ZM12.3676 19.9449C12.549 19.8644 13.2363 19.6499 14.4295 19.3013C14.8594 19.1748 15.1743 19.0739 15.3742 18.9987C15.5691 18.9251 15.7037 18.882 15.778 18.8694C15.8575 18.8551 15.94 18.8679 16.0255 18.9077C16.1749 18.9719 16.2503 19.0849 16.2517 19.2469C16.2567 19.4021 16.1869 19.5252 16.0425 19.6163C15.9848 19.646 15.4032 19.8323 14.2978 20.1751C13.199 20.5214 12.6142 20.6976 12.5433 20.7035C12.3897 20.7135 12.2696 20.6707 12.183 20.5753C12.0999 20.4731 12.0743 20.3581 12.1061 20.2303C12.138 20.1025 12.2251 20.0073 12.3676 19.9449ZM17.2337 13.9845C17.3743 13.9339 17.5699 13.8713 17.8204 13.7966C18.0692 13.7169 18.208 13.6781 18.2367 13.6801C18.3378 13.6813 18.4293 13.722 18.511 13.8022C18.5911 13.8774 18.6263 13.9613 18.6168 14.0539C18.6122 14.1618 18.591 14.2442 18.5532 14.3011C18.5138 14.353 18.4432 14.4036 18.3414 14.453C18.238 14.4973 18.0568 14.5609 17.7977 14.6439C17.0984 14.8735 16.735 15.0151 16.7074 15.0688C16.6952 15.1007 16.7044 15.1733 16.7352 15.2867C16.7642 15.3949 16.7888 15.4543 16.809 15.4646C16.8224 15.4715 17.111 15.3847 17.6748 15.2041C18.1014 15.0675 18.3536 14.9895 18.4315 14.9701C18.5076 14.9457 18.5642 14.9388 18.6012 14.9494C18.7794 14.9987 18.887 15.0986 18.924 15.2492C18.9594 15.3947 18.9081 15.5315 18.7699 15.6598C18.7358 15.6931 18.6815 15.7245 18.6069 15.754C18.5358 15.7768 18.3055 15.8533 17.916 15.9837C17.3961 16.1614 17.1226 16.2602 17.0954 16.2801C17.0681 16.3 17.065 16.3515 17.086 16.4343C17.1104 16.5105 17.1386 16.5463 17.1707 16.5416C17.2804 16.5345 17.6544 16.4343 18.2925 16.2411C18.7208 16.1095 18.9696 16.0382 19.0389 16.0272C19.1065 16.0112 19.1772 16.0221 19.251 16.0601C19.38 16.1308 19.4488 16.2319 19.4574 16.3636C19.471 16.4936 19.4216 16.6103 19.3091 16.7135C19.2613 16.7568 19.1697 16.803 19.0342 16.852C18.8987 16.901 18.5652 17.005 18.0337 17.164C17.6089 17.2889 17.3322 17.3691 17.2036 17.4047C17.0784 17.4336 16.9897 17.4452 16.9375 17.4395C16.8971 17.4357 16.8743 17.4346 16.8692 17.4362C16.8337 17.4476 16.7774 17.4292 16.7004 17.3811C16.6268 17.3262 16.5726 17.2708 16.5379 17.2147C16.4783 17.1162 16.3485 16.7546 16.1484 16.1298C15.9534 15.5035 15.8483 15.1143 15.8332 14.9623C15.8149 14.8002 15.8392 14.6748 15.906 14.5862C15.9779 14.496 16.1181 14.4091 16.3265 14.3255C16.7958 14.1472 17.0982 14.0335 17.2337 13.9845ZM16.5489 18.6392C16.6034 18.5994 17.2249 18.3891 18.4134 18.0085C19.6054 17.6211 20.2257 17.4336 20.2745 17.4459C20.4513 17.4733 20.5623 17.5666 20.6077 17.7256C20.6565 17.878 20.6169 18.0167 20.4889 18.1417C20.4599 18.1734 20.2329 18.2601 19.8078 18.4019C19.3879 18.542 18.4397 18.8513 16.9633 19.3298C16.8109 19.3786 16.6753 19.366 16.5564 19.2921C16.4375 19.2181 16.3738 19.1154 16.3652 18.9837C16.3567 18.852 16.4179 18.7372 16.5489 18.6392ZM23.955 12.0417C24.0622 11.957 24.1746 11.9406 24.2921 11.9926C24.4146 12.0429 24.4994 12.1417 24.5466 12.289C25.0996 14.0328 25.4327 15.1078 25.5459 15.5139C25.6643 15.9184 25.7096 16.1559 25.6818 16.2264C25.6487 16.3154 25.5863 16.383 25.4947 16.4292C25.4065 16.4686 25.3162 16.4751 25.2237 16.4487C25.217 16.4453 25.2078 16.4426 25.196 16.4408C25.1103 16.4179 25.0402 16.3479 24.986 16.2309C24.9368 16.1122 24.8024 15.7016 24.583 14.9991C24.544 14.8772 24.5139 14.7832 24.4927 14.7172C24.1853 13.7572 23.9902 13.1309 23.9077 12.8381C23.8235 12.5403 23.7842 12.3652 23.7899 12.313C23.8098 12.2002 23.8648 12.1098 23.955 12.0417ZM20.7656 13.4665C20.9182 13.4008 21.0435 13.3551 21.1416 13.3292C21.2382 13.2983 21.3311 13.2826 21.4205 13.2819C21.5134 13.2746 21.5857 13.2906 21.6375 13.33C21.6877 13.3643 21.7411 13.4173 21.7976 13.4888C21.8575 13.5536 21.9037 13.6452 21.936 13.7636C21.9683 13.8821 22.0131 14.0218 22.0702 14.1827C22.1318 14.3925 22.1736 14.4968 22.1956 14.4953C22.2023 14.4988 22.227 14.4797 22.2696 14.438C22.3139 14.4014 22.4368 14.3481 22.6384 14.2779L22.9483 14.1702L22.8775 13.9493C22.8645 13.9087 22.8393 13.8299 22.8019 13.7131C22.7628 13.5912 22.7352 13.5049 22.7189 13.4541C22.6752 13.3001 22.6503 13.1961 22.6441 13.142C22.6431 13.0863 22.6641 13.0208 22.7072 12.9454C22.7382 12.8851 22.7886 12.8325 22.8583 12.7878C22.9314 12.7364 22.9805 12.7235 23.0055 12.7491C23.0122 12.7525 23.0316 12.7519 23.0637 12.7472C23.1076 12.7444 23.158 12.7618 23.2149 12.7996C23.2702 12.8323 23.3169 12.8733 23.3551 12.9227C23.3883 12.9737 23.4699 13.2023 23.6 13.6087C23.7336 14.0083 23.8133 14.2656 23.8389 14.3806C23.8564 14.4702 23.9406 14.768 24.0915 15.2741C24.2117 15.6669 24.2813 15.9106 24.3005 16.0052C24.3247 16.0983 24.3305 16.1776 24.3179 16.2433C24.3073 16.2802 24.2866 16.3205 24.2558 16.364C24.2249 16.4075 24.1993 16.4325 24.179 16.439C24.1587 16.4455 24.1476 16.4546 24.1458 16.4664C24.1421 16.49 24.1006 16.5089 24.0211 16.5231C23.9451 16.5307 23.8878 16.5266 23.8492 16.511C23.7334 16.4641 23.6449 16.3888 23.5837 16.2852C23.5276 16.18 23.4535 15.9573 23.3613 15.6172C23.3483 15.5766 23.333 15.5199 23.3153 15.4471C23.2473 15.2001 23.1967 15.0595 23.1634 15.0254C23.13 14.9913 23.0474 14.9953 22.9153 15.0376C22.8797 15.049 22.8518 15.058 22.8315 15.0645C22.6419 15.1196 22.521 15.1443 22.4688 15.1386C22.4284 15.1348 22.383 15.1241 22.3326 15.1067C22.2856 15.0825 22.2597 15.0628 22.2548 15.0476C22.2516 15.0374 22.2341 15.0178 22.2024 14.9888L22.1573 14.9528L22.1183 15.0409C22.0923 15.0996 22.0555 15.1506 22.0077 15.1939C21.9941 15.2039 21.9745 15.2214 21.9489 15.2464C21.9268 15.2647 21.9165 15.2763 21.9181 15.2814C21.9011 15.2981 21.8476 15.3236 21.7578 15.358C21.6748 15.3958 21.5993 15.4312 21.5314 15.4641C21.4737 15.4938 21.3687 15.533 21.2163 15.5818C21.2011 15.5867 21.1808 15.5932 21.1554 15.6013C21.0385 15.6388 20.9766 15.6726 20.9695 15.7029C20.9624 15.7332 20.9866 15.8262 21.0421 15.982C21.0586 16.016 21.07 16.0431 21.0766 16.0634C21.1599 16.2887 21.2091 16.4074 21.2242 16.4193C21.2427 16.4246 21.4203 16.3761 21.7572 16.2738C22.0416 16.1827 22.2218 16.1334 22.2978 16.1259C22.3773 16.1116 22.4497 16.1192 22.5151 16.1487C22.609 16.197 22.6713 16.2778 22.702 16.3912C22.7362 16.4979 22.7266 16.599 22.6731 16.6945C22.6181 16.7849 22.5109 16.8612 22.3517 16.9234C22.1975 16.984 21.8429 17.0836 21.2881 17.2221C21.0851 17.2703 20.9333 17.2685 20.8327 17.2167C20.7356 17.1582 20.6386 17.0129 20.5419 16.7807C20.353 16.3484 20.2287 16.0214 20.1689 15.7997C20.1125 15.5713 20.1086 15.4018 20.1571 15.291C20.1935 15.2122 20.244 15.1512 20.3086 15.1081C20.3782 15.0634 20.5462 14.9844 20.8123 14.8712C20.9547 14.8088 21.0522 14.7635 21.1048 14.7355C21.1625 14.7058 21.2142 14.6836 21.26 14.669C21.3209 14.6495 21.3541 14.622 21.3596 14.5867C21.3651 14.5513 21.3499 14.4778 21.3141 14.366C21.2816 14.2645 21.2528 14.2009 21.2278 14.1753C21.2079 14.1481 21.1767 14.1468 21.1343 14.1716C21.0357 14.2312 20.9103 14.2854 20.7579 14.3342C20.6716 14.3618 20.5902 14.3963 20.5138 14.4376C20.3543 14.5167 20.2408 14.5642 20.1731 14.5803C20.1054 14.5964 20.0372 14.593 19.9683 14.5703C19.849 14.5301 19.7689 14.4549 19.7281 14.3448C19.6872 14.2347 19.6961 14.1227 19.7548 14.0087C19.7928 13.9349 19.8491 13.8748 19.9239 13.8285C19.9987 13.7821 20.1555 13.7123 20.3944 13.619C20.4639 13.5911 20.5876 13.5403 20.7656 13.4665ZM27.3368 10.8073C27.4152 10.7374 27.5143 10.7057 27.6339 10.7121C27.752 10.7135 27.8511 10.7518 27.9311 10.827C28.0411 10.9429 28.048 11.1395 27.952 11.4167C27.9033 11.5443 27.877 11.6283 27.8731 11.6688C27.8727 11.7025 27.8909 11.7331 27.9277 11.7605C27.9712 11.7914 28.1087 11.8621 28.3401 11.9728C28.5716 12.0835 28.762 12.1709 28.9114 12.2351C29.091 12.3063 29.2176 12.3694 29.2912 12.4242C29.3631 12.474 29.4105 12.5344 29.4332 12.6055C29.4656 12.724 29.4389 12.8417 29.3532 12.9588C29.2675 13.0758 29.1631 13.1345 29.0399 13.1347C28.9235 13.1384 28.8149 13.1228 28.7141 13.0879C28.6184 13.0513 28.4297 12.9606 28.1481 12.8156C27.8262 12.6499 27.6449 12.5735 27.6043 12.5865C27.584 12.593 27.5684 12.6232 27.5577 12.6771C27.5487 12.7191 27.5408 12.7468 27.5339 12.7603C27.4978 12.8222 27.4629 12.923 27.4292 13.0626C27.4257 13.0693 27.4196 13.0853 27.4109 13.1105C27.4022 13.1357 27.3908 13.1701 27.3768 13.2138C27.3679 13.2559 27.3581 13.2954 27.3476 13.3324C27.2753 13.5963 27.1881 13.7699 27.0859 13.853C26.9888 13.9345 26.8623 13.933 26.7064 13.8485C26.6042 13.7917 26.541 13.7167 26.5168 13.6237C26.4977 13.529 26.5111 13.3959 26.5569 13.2244C26.5642 13.1773 26.5706 13.136 26.5761 13.1007C26.585 13.0586 26.5974 13.0098 26.6132 12.9543C26.6307 12.904 26.6386 12.8762 26.637 12.8711C26.6354 12.8661 26.668 12.7492 26.7347 12.5206C26.8123 12.2382 26.8634 12.0482 26.8882 11.9506C26.9286 11.8145 26.9793 11.6582 27.0404 11.4819C27.1016 11.3055 27.1408 11.1921 27.1583 11.1417C27.204 10.9871 27.2635 10.8756 27.3368 10.8073ZM26.8461 15.3075C27.0275 15.2269 27.7149 15.0124 28.9081 14.6638C29.338 14.5373 29.6529 14.4365 29.8528 14.3612C30.0476 14.2876 30.1822 14.2445 30.2566 14.2319C30.336 14.2176 30.4185 14.2304 30.5041 14.2702C30.6534 14.3344 30.7288 14.4474 30.7303 14.6094C30.7352 14.7646 30.6655 14.8878 30.521 14.9788C30.4633 15.0085 29.8818 15.1948 28.7763 15.5376C27.6776 15.884 27.0928 16.0601 27.0219 16.066C26.8683 16.076 26.7482 16.0333 26.6616 15.9378C26.5785 15.8356 26.5528 15.7206 26.5847 15.5928C26.6166 15.465 26.7037 15.3699 26.8461 15.3075Z" fill="#505050"/>
</svg>
