<svg width="60" height="48" viewBox="0 0 60 48" fill="none" xmlns="http://www.w3.org/2000/svg">
<path d="M28.3667 0.0564499C27.7602 0.0949574 27.0093 0.171972 26.7013 0.220106C26.3932 0.26824 26.1236 0.26824 26.0948 0.229733C26.0659 0.181599 25.9311 0.143091 25.7867 0.152718L25.5268 0.162346L25.7674 0.229733L26.0081 0.297121L25.7674 0.36451C25.392 0.460777 25.2861 0.441525 25.3439 0.287495C25.392 0.181599 25.3342 0.143091 25.1417 0.143091C24.747 0.143091 24.0346 0.345255 24.0924 0.441525C24.1213 0.489658 24.102 0.528166 24.0442 0.528166C23.9961 0.528166 23.9383 0.480032 23.9191 0.42227C23.8998 0.354881 23.7939 0.335629 23.6688 0.374136C23.5533 0.412643 23.4763 0.480032 23.5051 0.528166C23.5629 0.624434 22.6002 1.14428 22.5136 1.06727C22.4847 1.03839 22.5136 1.00951 22.581 1.00951C22.6483 1.00951 22.6772 0.971001 22.6387 0.922867C22.6098 0.874733 22.7542 0.778463 22.9468 0.711075C23.1489 0.643688 23.2645 0.5763 23.2067 0.557045C23.1586 0.537792 22.812 0.63406 22.4462 0.768837C22.0707 0.903612 21.6953 1.00951 21.599 1.00951C21.3583 1.00951 20.954 1.26943 20.5882 1.67376C20.2994 2.00107 20.2416 2.02033 19.6736 2.02995C19.1345 2.02995 19.019 2.07809 18.4318 2.46316C18.0756 2.69421 17.5076 3.06003 17.161 3.27182C16.8241 3.48361 16.5834 3.68577 16.6412 3.71465C16.6989 3.75316 16.6604 3.8013 16.5545 3.8398C16.3428 3.90719 15.8422 4.42704 15.9095 4.50406C15.9384 4.53294 15.6881 4.76398 15.3512 5.01428C14.4463 5.70741 12.646 7.4595 11.8374 8.42219C10.6533 9.85659 9.41142 11.6953 9.64247 11.6953C9.85426 11.6953 9.835 11.7435 9.32478 12.2633C8.88195 12.7158 8.83381 12.7446 8.48724 12.6869C8.15031 12.6291 8.13105 12.6387 8.19844 12.8409C8.24657 13.0142 8.22732 13.0431 7.96739 13.0431C7.80374 13.0431 7.66896 13.0912 7.66896 13.149C7.66896 13.2067 7.82299 13.2356 8.05404 13.226C8.2562 13.2067 8.45836 13.226 8.49687 13.2645C8.53538 13.303 8.47762 13.3319 8.37172 13.3319C8.26583 13.3319 8.02516 13.457 7.85187 13.6207C7.66896 13.7747 7.45717 13.9095 7.38016 13.9095C7.28389 13.9095 7.23575 14.0154 7.22613 14.2176C7.2165 14.4197 7.13949 14.5737 7.00471 14.6604C6.89881 14.7374 6.80255 14.8818 6.80255 14.9781C6.80255 15.1802 7.08172 15.5461 7.23575 15.5461C7.29352 15.5461 7.34165 15.6231 7.35128 15.729C7.37053 15.9119 7.04322 16.114 6.72553 16.1333C6.59075 16.1333 6.60038 16.1525 6.75441 16.2199C6.89881 16.2777 6.90844 16.3066 6.79292 16.3066C6.70628 16.3162 6.59075 16.4221 6.53299 16.5569C6.37896 16.8842 6.37896 18.2416 6.52337 18.2416C6.59075 18.2416 6.61964 18.3571 6.59075 18.5304C6.56187 18.7133 6.59075 18.8192 6.65814 18.8192C6.77366 18.8192 6.78329 19.031 6.6774 19.3005C6.59075 19.5508 6.41747 20.8119 6.41747 21.2163C6.41747 21.4377 6.46561 21.611 6.51374 21.611C6.5715 21.611 6.61001 21.7265 6.61001 21.8613C6.61001 22.0442 6.5715 22.1019 6.46561 22.0538C6.35971 22.0153 6.3212 22.0731 6.3212 22.2656C6.3212 22.41 6.29232 22.7566 6.26344 23.0261C6.20568 23.4978 6.21531 23.5363 6.40784 23.5363C6.52337 23.5363 6.61001 23.5941 6.61001 23.6807C6.61001 23.7963 6.6774 23.8155 6.87956 23.7674C7.29352 23.6615 7.31277 23.6326 7.25501 23.1416C7.2165 22.8625 7.23575 22.6699 7.28389 22.6699C7.37053 22.6699 7.42829 23.1031 7.38978 23.4112C7.38016 23.4786 7.42829 23.5363 7.49568 23.5363C7.60157 23.5363 12.6653 21.8902 13.1081 21.7169C13.214 21.6687 13.6184 21.5436 14.0034 21.4281C14.3789 21.3125 14.6966 21.1681 14.6966 21.12C14.6966 21.0622 14.7351 21.0526 14.7928 21.0815C14.9565 21.1778 19.4137 19.6856 19.4137 19.5316C19.4137 19.4546 19.3848 19.3968 19.3463 19.3968C19.2982 19.3968 17.5172 19.9744 15.3704 20.6772L11.4716 21.9575L11.4234 21.2933L11.3753 20.6194L11.202 20.9756C11.1057 21.1778 11.0095 21.5243 10.9806 21.7458L10.9228 22.1501L9.58471 22.5929C8.30433 23.0165 8.24657 23.0261 8.28508 22.8336C8.31396 22.7181 8.3621 22.2078 8.39098 21.7072C8.58351 18.7807 9.81575 15.0455 11.4523 12.3981C11.7507 11.9167 12.001 11.4932 12.001 11.4643C12.001 11.4354 12.0781 11.3295 12.1743 11.2332C12.261 11.137 12.6364 10.6652 13.0119 10.1935C13.3777 9.72181 13.7146 9.31748 13.7531 9.30786C13.7916 9.2886 13.8205 9.18271 13.8205 9.06719C13.8109 8.90353 13.8013 8.8939 13.7628 9.02868C13.7435 9.11532 13.6857 9.17308 13.6376 9.1442C13.5221 9.07681 12.6364 10.155 11.8085 11.368C10.4896 13.303 9.32478 15.883 8.72792 18.1646C8.54501 18.8481 8.47762 18.9925 8.37172 18.9058C8.21769 18.7711 8.19844 18.9347 8.33322 19.185C8.39098 19.2909 8.35247 19.7915 8.24657 20.552C8.14068 21.2163 8.06366 22.0634 8.05404 22.4389C8.05404 23.0743 8.03478 23.132 7.84225 23.1898C7.7171 23.2187 7.58232 23.2475 7.53419 23.2475C7.3224 23.2475 7.69784 20.1092 8.07329 18.7229C8.28508 17.9528 8.29471 17.9239 8.32359 18.2897C8.3621 18.6652 8.3621 18.6555 8.64127 17.8661C8.7953 17.4137 8.9012 17.0286 8.87232 17.0093C8.85307 16.9805 8.80493 17.0382 8.76642 17.1249C8.69904 17.2885 8.53538 17.3367 8.53538 17.1826C8.53538 17.1345 8.67016 16.8746 8.83381 16.5954C9.10336 16.1237 9.42105 15.161 9.4403 14.7278C9.44993 14.5352 10.066 13.0431 10.1719 12.9468C10.2008 12.9179 10.3549 12.6773 10.4993 12.4173C10.8651 11.782 11.8566 10.2994 12.2513 9.81808C12.415 9.60629 12.5787 9.34636 12.5979 9.24047C12.6172 9.13457 12.6942 9.05756 12.7519 9.07681C12.8193 9.08644 12.8675 9.00942 12.8675 8.90353C12.8675 8.79763 12.9252 8.71099 13.0022 8.71099C13.0793 8.71099 13.5606 8.28741 14.0901 7.76756C15.8903 5.97696 17.6135 4.74473 19.9432 3.56063C20.4438 3.31033 20.7519 3.22368 21.1466 3.21406C21.4354 3.20443 21.5798 3.17555 21.4642 3.1563C21.1851 3.10816 21.1754 2.96376 21.445 2.88674C21.5798 2.83861 21.6857 2.87712 21.7819 3.00227C21.8878 3.13704 21.9071 3.14667 21.8589 3.02152C21.7819 2.8001 22.1766 2.54018 22.4847 2.60756C22.6772 2.64607 22.7061 2.63645 22.5906 2.55943C22.4751 2.48242 22.5136 2.44391 22.7831 2.38615C22.966 2.34764 23.1971 2.31876 23.2837 2.31876C23.38 2.32839 23.4377 2.29951 23.4089 2.261C23.3319 2.13585 24.0635 1.97219 24.1983 2.08772C24.2945 2.16473 24.3234 2.1551 24.3234 2.05884C24.3234 1.90481 25.1802 1.69301 26.8264 1.42346C28.0875 1.2213 31.4762 1.19242 32.7469 1.37533C34.9226 1.69301 36.9924 2.261 38.8022 3.04077C39.2739 3.25257 39.6782 3.41622 39.6975 3.41622C39.7168 3.41622 39.7264 3.17555 39.7264 2.87712C39.7264 2.5498 39.7649 2.36689 39.8227 2.4054C39.8804 2.43428 39.9189 2.71346 39.9189 3.01189V3.56063L40.5543 3.88794C41.5459 4.39816 42.7781 5.19719 43.7023 5.92883C44.3569 6.44868 44.5879 6.58346 44.6842 6.49681C44.7709 6.4198 44.819 6.42943 44.8671 6.54495C44.896 6.62197 44.9826 6.68935 45.05 6.68935C45.2715 6.68935 45.4447 6.9589 45.3196 7.10331C45.2426 7.19958 45.2811 7.29585 45.5025 7.50764C45.6565 7.66166 45.8202 7.75793 45.8491 7.71943C45.955 7.61353 46.0512 6.80487 45.9742 6.67973C45.9357 6.60271 45.7913 6.58346 45.5891 6.63159L45.2618 6.68935L45.5699 6.47756C45.8876 6.25614 45.9742 6.11174 45.7913 6.11174C45.7335 6.11174 45.4832 5.89995 45.2329 5.64965C44.2799 4.68697 42.1812 3.32958 40.1403 2.33801C36.5495 0.595552 32.2945 -0.232355 28.3667 0.0564499ZM21.4354 1.52936C21.4354 1.63525 21.2525 1.67376 21.1947 1.58712C21.1658 1.53898 21.2043 1.49085 21.2813 1.49085C21.368 1.49085 21.4354 1.51011 21.4354 1.52936ZM10.9999 10.6556C10.9613 11.1177 10.9036 11.2621 10.711 11.4161C10.5666 11.522 10.4607 11.7049 10.4607 11.8205C10.4607 11.936 10.4126 12.0996 10.3645 12.1767C10.2971 12.2826 10.2682 12.2248 10.249 11.936C10.2008 10.8578 10.2105 10.7904 10.5474 10.3764C10.7207 10.1454 10.9132 9.99136 10.9613 10.0202C11.0095 10.0491 11.0287 10.3379 10.9999 10.6556ZM10.0468 11.8108C10.0179 11.8879 9.98903 11.859 9.98903 11.7531C9.97941 11.6472 10.0083 11.5894 10.0372 11.6279C10.066 11.6568 10.0757 11.7435 10.0468 11.8108Z" fill="#3BADFF"/>
<path d="M26.7773 1.96304C24.9579 2.25185 22.8014 2.84871 21.5596 3.42632C21.3285 3.52259 21.1264 3.60923 21.0879 3.60923C20.9916 3.60923 19.9423 4.13871 19.1721 4.58154C17.6029 5.47684 16.2937 6.43953 14.8882 7.72952C14.3972 8.19161 14.2913 8.33602 14.3779 8.43229C14.4742 8.52855 14.5127 8.49967 14.5897 8.29751C14.6475 8.15311 14.7245 8.04721 14.7726 8.05684C14.8208 8.07609 15.2347 7.75841 15.6968 7.3637C17.3719 5.9293 19.4417 4.62005 21.29 3.83065C21.7714 3.62849 22.1757 3.43595 22.1853 3.39744C22.2046 3.34931 22.3008 3.32043 22.3875 3.32043C22.4837 3.32043 22.8111 3.23378 23.1287 3.12789C23.9663 2.83908 25.083 2.5599 26.4404 2.30961C27.5282 2.10744 27.8748 2.08819 30.1467 2.10744C32.8134 2.13632 33.4391 2.21334 35.634 2.79095C38.1274 3.4552 40.9481 4.8511 43.0467 6.44915C43.4222 6.73796 43.8554 6.99788 44.0094 7.03639L44.2982 7.10378L44.0094 6.87273C43.8554 6.74759 43.711 6.61281 43.6917 6.5743C43.6725 6.5358 43.5954 6.5358 43.5184 6.56468C43.4414 6.59356 43.3836 6.55505 43.3836 6.47803C43.3836 6.18923 41.1021 4.72595 39.3885 3.89804C37.5209 3.01237 35.7496 2.44438 33.6124 2.05931C31.9373 1.76088 28.4139 1.71274 26.7773 1.96304Z" fill="#3BADFF"/>
<path d="M22.2061 2.79928C22.2061 2.87629 22.2542 2.9148 22.3023 2.88592C22.3601 2.85704 22.3986 2.78965 22.3986 2.73189C22.3986 2.68376 22.3601 2.64525 22.3023 2.64525C22.2542 2.64525 22.2061 2.71264 22.2061 2.79928Z" fill="#3BADFF"/>
<path d="M29.6078 4.59046C29.5982 4.60972 29.5789 4.71561 29.5693 4.83113C29.55 5.04292 29.5789 5.05255 30.2432 5.05255C30.6282 5.05255 31.1288 5.08143 31.3695 5.11031C31.7642 5.16807 31.8123 5.14882 31.8605 4.94666C31.8893 4.82151 31.9086 4.71561 31.899 4.70598C31.8605 4.6771 29.6174 4.56158 29.6078 4.59046Z" fill="#3BADFF"/>
<path d="M27.0179 4.82204C25.391 5.07234 23.0516 5.8136 21.5113 6.58375C20.1925 7.23838 18.1516 8.57651 18.0842 8.82681C18.0649 8.92308 17.9686 9.00009 17.882 9.00009C17.7857 9.00009 17.6221 9.12524 17.5066 9.2889C17.3814 9.44293 17.237 9.5777 17.1696 9.5777C16.8038 9.5777 13.8291 13.1589 13.8291 13.5921C13.8291 13.7558 14.0987 13.7558 14.2527 13.5921C14.5607 13.2744 14.8303 12.7931 14.811 12.5813C14.8014 12.4176 14.8303 12.3599 14.9266 12.3984C15.0228 12.4369 15.2539 12.2251 15.6004 11.8015C16.6883 10.473 18.5366 8.84606 19.9133 7.97965C20.1732 7.82562 20.3754 7.64271 20.3754 7.57532C20.3754 7.50793 20.4331 7.4598 20.5005 7.47905C20.5775 7.4983 21.1166 7.27689 21.7135 6.98808C22.5414 6.58375 22.8013 6.4201 22.8398 6.24681C22.8976 6.02539 23.0709 5.9195 23.0709 6.10241C23.0709 6.22756 23.7159 6.16017 24.178 5.97726C25.0733 5.63069 27.0275 5.24562 28.6352 5.10122C29.2032 5.04346 29.3283 5.00495 29.2898 4.88943C29.2609 4.81241 29.2321 4.72577 29.2321 4.70652C29.2321 4.61987 27.8939 4.69689 27.0179 4.82204ZM22.6377 6.40084C22.6666 6.44898 22.6473 6.49711 22.5992 6.49711C22.5414 6.49711 22.4933 6.44898 22.4933 6.40084C22.4933 6.34308 22.5125 6.30457 22.5318 6.30457C22.5607 6.30457 22.6088 6.34308 22.6377 6.40084Z" fill="#3BADFF"/>
<path d="M34.8847 5.40872C34.6922 5.59163 34.9136 5.73603 35.9052 6.05372C37.2337 6.49655 39.0243 7.36297 40.1121 8.09461C41.7487 9.18244 43.9244 11.1174 43.7222 11.2907C43.6644 11.3292 43.4719 11.4159 43.289 11.4736C41.2192 12.1379 35.1158 14.1499 28.1074 16.47C21.8596 18.5301 19.5107 19.3484 19.5107 19.4543C19.5107 19.5602 19.578 19.5794 19.7802 19.5313C20.2327 19.4158 20.4733 19.3099 20.4733 19.2136C20.4733 19.1559 20.5311 19.1366 20.6081 19.1655C20.6851 19.1944 22.0907 18.7804 23.7272 18.2509C25.5852 17.6444 26.7693 17.2979 26.8752 17.3364C26.9907 17.3845 27.0292 17.3749 26.9811 17.2979C26.9233 17.2016 27.3373 17.0476 29.5226 16.3544L29.9462 16.2197L29.7344 16.4122C29.6285 16.5181 29.4456 16.6047 29.3493 16.6047C29.2434 16.6047 29.0509 16.6914 28.9161 16.7973C28.6947 16.9706 27.0774 17.5674 26.8271 17.5674C26.7693 17.5674 26.7501 17.5193 26.7886 17.4519C26.8367 17.3749 26.8078 17.3653 26.6923 17.4038C26.596 17.4423 26.4901 17.4712 26.4612 17.4712C26.4227 17.4712 26.4516 17.5097 26.5286 17.5578C26.6249 17.6156 26.5479 17.6444 26.3072 17.6348C26.1051 17.6252 25.9221 17.6733 25.8836 17.7311C25.8451 17.7792 25.7104 17.8562 25.5756 17.8851C24.4974 18.1354 24.0834 18.2798 22.7164 18.8767C22.5527 18.9537 22.3795 19.0115 22.3217 19.0115C22.158 19.0115 20.7236 19.4928 20.3097 19.6853C20.0786 19.7912 19.8572 19.8779 19.7995 19.8779C19.7417 19.8779 19.5395 19.9645 19.347 20.0704C18.6924 20.417 18.4902 20.4844 24.5648 18.5109C30.1195 16.7106 34.2879 15.3147 34.7789 15.103C35.0484 14.9874 35.4431 14.8527 35.6453 14.8142C35.8571 14.7853 36.0881 14.7179 36.1651 14.6697C36.348 14.5639 35.8089 14.6505 35.1062 14.843C34.8174 14.92 34.3649 15.0163 34.0953 15.0644C33.8354 15.103 33.4889 15.1703 33.3252 15.2185C33.0749 15.2762 33.0653 15.2955 33.2289 15.3533C33.383 15.411 33.3348 15.4495 32.9883 15.5458C32.7476 15.6036 32.5069 15.6998 32.4492 15.748C32.3914 15.7961 32.324 15.8057 32.2951 15.7768C32.2566 15.748 32.0641 15.8153 31.8427 15.9212C31.4287 16.1427 31.2073 16.1812 31.3036 16.0271C31.3324 15.9694 31.448 15.9309 31.5442 15.9309C31.6694 15.9309 31.7079 15.8827 31.679 15.7961C31.6405 15.6902 32.0545 15.5265 33.3444 15.103C34.2879 14.8045 35.1254 14.5253 35.2024 14.4868C35.2794 14.4483 36.5406 14.0344 37.9942 13.5723C39.4479 13.1102 41.1807 12.5422 41.845 12.3208C43.3275 11.8106 43.4815 11.7624 43.4815 11.8298C43.4815 11.8491 43.2601 11.9453 42.9906 12.032C42.6247 12.1571 42.5285 12.2245 42.6247 12.2919C42.7306 12.3689 42.721 12.3689 42.5862 12.3304C42.3937 12.263 40.5935 12.8406 40.5935 12.9658C40.5935 13.0043 40.5165 13.0428 40.4106 13.0428C40.3143 13.0428 40.1121 13.1102 39.9581 13.1776C39.8137 13.2546 39.6597 13.3027 39.6115 13.2739C39.573 13.245 39.4671 13.2931 39.3805 13.3701C39.3035 13.4568 39.1783 13.5242 39.1109 13.5242C39.0435 13.5242 38.8125 13.6108 38.5911 13.7167C38.3793 13.8226 38.129 13.9092 38.052 13.9092C37.975 13.9092 37.8787 13.9477 37.8498 14.0055C37.7632 14.1403 37.7632 14.1403 39.1687 13.6782C41.3444 12.9562 43.0194 12.4171 46.2733 11.4159C49.2288 10.5013 51.6258 9.70229 54.0133 8.81662C54.6005 8.59521 55.1011 8.42192 55.1396 8.42192C55.1782 8.42192 55.3033 8.7011 55.4188 9.04767C55.6306 9.70229 55.6595 9.73117 55.9002 9.57714C56.0157 9.50013 55.9964 9.35573 55.7269 8.51819C55.5536 7.98871 55.3611 7.5555 55.3033 7.5555C55.207 7.5555 49.7582 9.32685 49.3732 9.4905C49.094 9.60602 48.7667 9.60602 48.8052 9.4905C48.8341 9.36535 47.5152 7.7673 46.8894 7.17043C46.6103 6.90088 46.36 6.7276 46.3215 6.78536C46.2926 6.83349 46.3118 6.88163 46.3792 6.88163C46.4466 6.88163 46.4755 6.98752 46.4466 7.17043C46.4177 7.32446 46.4466 7.45924 46.4947 7.45924C46.5429 7.45924 46.5621 7.52662 46.5236 7.60364C46.4851 7.71916 46.5525 7.74804 46.8028 7.74804C47.1301 7.74804 47.2456 7.86356 47.0435 7.98871C46.8991 8.07536 46.9279 8.32565 47.082 8.26789C47.1686 8.22938 47.2071 8.29677 47.1975 8.49894C47.1975 8.65297 47.2553 8.8455 47.3323 8.93215C47.7847 9.43274 47.8232 9.52901 47.5056 9.45199C47.313 9.39423 47.313 9.41349 47.5537 9.6349C47.8714 9.92371 47.881 10.0585 47.6018 10.0681C47.4382 10.0777 47.4189 10.0874 47.5537 10.1259C47.8425 10.2029 47.7366 10.3088 47.1879 10.5109C46.6488 10.7131 46.4466 10.665 46.9087 10.4532C47.2167 10.3184 47.159 10.2125 46.8413 10.3377C46.7162 10.3858 46.0904 10.5783 45.4454 10.7805L44.2806 11.1367L43.7607 10.5783C41.6909 8.38341 39.2842 6.80461 36.3865 5.73603C35.318 5.35096 35.0099 5.28357 34.8847 5.40872ZM31.0629 16.0656C31.0629 16.1523 30.9859 16.1812 30.8318 16.1523C30.6778 16.1234 30.4853 16.1812 30.3024 16.3063C29.9558 16.5566 29.8692 16.5662 30.0232 16.3256C30.0809 16.2293 30.1965 16.1619 30.2639 16.1908C30.3312 16.2197 30.389 16.1908 30.389 16.1427C30.389 16.056 30.5815 15.979 30.9474 15.9405C31.0051 15.9405 31.0629 15.9886 31.0629 16.0656Z" fill="#3BADFF"/>
<path d="M27.7888 6.49664C27.7888 6.71806 27.7214 6.81433 27.4808 6.93948L27.1631 7.10313L27.4808 7.24754C27.7214 7.36306 27.7888 7.45933 27.7888 7.67112C27.7888 7.9888 27.8851 8.00806 28.1258 7.74813C28.2605 7.5941 28.3761 7.56522 28.636 7.61336L28.9633 7.68074L28.7997 7.37268C28.6552 7.08388 28.6552 7.03574 28.79 6.83358C29.0018 6.51589 28.9922 6.49664 28.6264 6.56403C28.3953 6.60254 28.2702 6.56403 28.1354 6.41C27.8851 6.13082 27.7888 6.1597 27.7888 6.49664Z" fill="#3BADFF"/>
<path d="M24.1876 6.51614C24.1588 6.64129 24.1299 6.83382 24.1299 6.93972C24.1299 7.05524 24.024 7.2189 23.8988 7.29591C23.6197 7.47882 23.6197 7.758 23.8988 7.91203C24.0432 7.99867 24.1299 8.17196 24.178 8.48002L24.2454 8.92285L24.5631 8.61479C24.8615 8.32599 24.9289 8.30673 25.3236 8.35487C25.6124 8.39337 25.7664 8.38375 25.7664 8.31636C25.7664 8.2586 25.6894 8.19121 25.5932 8.16233C25.4584 8.13345 25.4199 8.03718 25.4391 7.71949C25.468 7.26703 25.2755 6.88196 25.0252 6.88196C24.9385 6.88196 24.7267 6.74718 24.5535 6.58353L24.255 6.29472L24.1876 6.51614Z" fill="#3BADFF"/>
<path d="M25.5264 6.8815C25.4976 6.92964 25.4976 7.02591 25.5361 7.08367C25.5938 7.18956 25.7575 7.02591 25.7671 6.85262C25.7671 6.75635 25.5938 6.76598 25.5264 6.8815Z" fill="#3BADFF"/>
<path d="M45.118 6.97795C45.0314 7.03571 45.0218 7.07422 45.0891 7.07422C45.1469 7.07422 45.2335 7.02608 45.2624 6.97795C45.3394 6.86243 45.3009 6.86243 45.118 6.97795Z" fill="#3BADFF"/>
<path d="M44.3187 7.31486C44.2513 7.46889 44.8578 8.03688 45.0792 8.03688C45.1562 8.03688 45.2043 8.07538 45.1658 8.12352C45.137 8.17165 45.4258 8.55673 45.8012 8.97068C46.1863 9.38464 46.5425 9.76971 46.6002 9.8371C46.658 9.90449 46.7639 9.92374 46.8313 9.87561C46.9275 9.81784 46.812 9.65419 46.427 9.23061C46.1285 8.92255 45.8878 8.65299 45.8878 8.63374C45.8878 8.55673 45.6087 8.32568 45.5124 8.32568C45.4546 8.32568 45.4065 8.26792 45.4065 8.20053C45.4065 8.13314 45.1755 7.87322 44.8867 7.62292C44.5016 7.29561 44.3476 7.20897 44.3187 7.31486Z" fill="#3BADFF"/>
<path d="M46.0222 7.69986C45.8489 7.83464 45.8489 7.85389 46.1666 8.13307C46.3399 8.2871 46.5421 8.42188 46.5998 8.42188C46.6576 8.42188 46.6287 8.35449 46.5421 8.2871C46.4458 8.21971 46.3688 8.11382 46.3688 8.05605C46.3688 7.99829 46.311 7.93091 46.2532 7.91165C46.157 7.87314 46.157 7.83464 46.2629 7.76725C46.3303 7.70949 46.3495 7.65173 46.3014 7.62285C46.2436 7.58434 46.1185 7.62285 46.0222 7.69986Z" fill="#3BADFF"/>
<path d="M21.2023 8.66255C21.1446 8.94173 21.0676 9.038 20.8365 9.11501L20.5381 9.22091L20.8847 9.40382C21.1831 9.54822 21.2408 9.63486 21.2408 9.88516V10.1836L21.4719 9.9718C21.6452 9.80815 21.7896 9.76001 22.011 9.78889C22.2805 9.8274 22.3094 9.81777 22.2517 9.63486C22.1554 9.36531 22.1554 9.08613 22.242 8.87434C22.3094 8.73957 22.2709 8.71069 22.0014 8.71069C21.8185 8.71069 21.597 8.63367 21.4719 8.50852L21.2601 8.31598L21.2023 8.66255Z" fill="#3BADFF"/>
<path d="M14.0519 8.52817C13.9845 8.59556 13.9268 8.73996 13.9268 8.84586C13.9268 9.02877 13.9364 9.02877 14.0808 8.88437C14.1674 8.80735 14.2156 8.66295 14.1963 8.57631C14.1771 8.44153 14.1482 8.4319 14.0519 8.52817Z" fill="#3BADFF"/>
<path d="M46.8506 10.059C46.8506 10.1071 46.8987 10.1553 46.9469 10.1553C47.0046 10.1553 47.0431 10.1071 47.0431 10.059C47.0431 10.0012 47.0046 9.96274 46.9469 9.96274C46.8987 9.96274 46.8506 10.0012 46.8506 10.059Z" fill="#3BADFF"/>
<path d="M56.0152 10.3281C55.8419 10.3859 55.8708 10.5399 56.073 10.5495C56.1693 10.5495 56.1885 10.5784 56.1211 10.6073C56.0537 10.6265 55.996 10.6939 55.996 10.7517C55.996 10.8383 58.0369 17.1247 59.0958 20.2919C59.3076 20.9273 59.4616 21.4471 59.4424 21.4664C59.4231 21.4856 59.2306 21.553 58.9996 21.63C58.7685 21.707 58.5952 21.8033 58.5952 21.8515C58.6145 21.967 58.3834 22.0921 58.1428 22.0921C58.0176 22.0921 57.9213 22.1403 57.9213 22.1884C57.9213 22.2462 57.7481 22.2847 57.517 22.275C57.1223 22.2558 56.7276 22.3713 50.4124 24.4218C49.7481 24.6432 49.1224 24.855 49.0165 24.8935C48.9106 24.932 47.8805 25.2786 46.7349 25.6541C45.1465 26.1835 44.6652 26.3761 44.7037 26.482C44.7711 26.6649 44.8673 26.6553 45.8396 26.3279C46.3114 26.1643 46.7542 26.0391 46.8408 26.0391C46.9179 26.0391 47.1681 25.9525 47.3896 25.8466C47.611 25.7311 47.9479 25.6156 48.1405 25.5867C48.4774 25.5385 48.487 25.5385 48.4389 25.8081C48.0442 28.2244 47.6591 29.6011 46.8986 31.3435C46.6579 31.8923 46.4846 32.3929 46.5039 32.4602C46.5328 32.5276 46.4943 32.5854 46.4269 32.5854C46.2343 32.5854 45.8685 33.24 45.9359 33.4614C46.0226 33.7214 46.2247 33.6829 46.3691 33.3748C46.4461 33.2304 46.5039 33.0956 46.5135 33.0667C46.5135 33.0379 46.5905 32.9127 46.6772 32.7779C47.7073 31.2376 49.209 26.1258 48.7758 25.6059C48.6796 25.4904 48.6796 25.4615 48.8143 25.4615C48.901 25.4615 48.9684 25.423 48.9684 25.3749C48.9684 25.3267 49.1224 25.2594 49.3149 25.2305C49.4978 25.192 49.9696 25.0379 50.345 24.8839C50.7301 24.7299 51.1633 24.5759 51.3173 24.5373L51.5965 24.47L51.5291 25.3749C51.3943 27.1173 50.7975 29.8032 50.2295 31.228C50.114 31.5072 50.037 31.7575 50.0562 31.7864C50.1332 31.8538 50.4124 31.6997 50.4028 31.5842C50.3931 31.5264 50.4509 31.3146 50.5375 31.1221C50.6338 30.9199 50.7012 30.6985 50.7012 30.6215C50.7012 30.5541 50.7686 30.3712 50.8456 30.2172C50.9226 30.0728 51.0574 29.6203 51.1344 29.216C51.2211 28.8213 51.327 28.3592 51.3751 28.2052C51.5099 27.772 51.7409 26.1932 51.8179 25.2497C51.8661 24.624 51.9238 24.3737 52.0586 24.2582C52.3281 23.9982 52.4244 24.1619 52.3666 24.7973L52.3089 25.3749L52.5881 25.3171C52.7421 25.2882 52.8095 25.2979 52.7517 25.3267C52.6843 25.3556 52.6266 25.4519 52.6266 25.5289C52.6266 25.6156 52.5688 25.6541 52.4918 25.6252C52.3859 25.5867 52.3378 25.6829 52.2896 25.9717C52.2415 26.2317 52.2511 26.3761 52.3281 26.405C52.3859 26.4242 52.434 26.5012 52.434 26.5782C52.434 26.6456 52.3763 26.6841 52.3089 26.6553C52.2222 26.6264 52.1741 26.7226 52.1645 26.9633C52.1452 27.1655 52.1164 27.358 52.0875 27.4061C52.0586 27.4447 52.1067 27.512 52.1934 27.5409C52.3281 27.5987 52.3281 27.6179 52.203 27.7142C52.1164 27.772 51.9238 28.3399 51.7602 28.9753C51.404 30.3808 51.1344 31.2569 50.913 31.7575C50.1717 33.4518 50.0466 33.6925 49.8444 33.7214C49.7385 33.7406 49.6423 33.7887 49.6423 33.8369C49.6423 33.885 49.7096 33.9043 49.7963 33.8658C49.9311 33.8176 49.9407 33.8369 49.8444 34.0102C49.7867 34.1257 49.7 34.2123 49.6615 34.2123C49.4882 34.1834 49.4112 34.2316 49.5267 34.3086C49.6326 34.3664 49.5941 34.5011 49.3631 34.9247C48.9202 35.7334 48.8336 35.9067 48.7662 35.9548C48.7373 35.9837 48.5737 36.2147 48.3908 36.4843C47.9768 37.1004 47.7073 37.4084 47.611 37.3507C47.5725 37.3218 47.5147 37.3411 47.4762 37.3988C47.4473 37.447 47.4666 37.4951 47.5243 37.4951C47.5821 37.4951 47.6014 37.5432 47.5725 37.5914C47.534 37.6491 47.4762 37.6684 47.4377 37.6491C47.3992 37.6202 47.3126 37.6491 47.2355 37.7069C47.12 37.7839 47.12 37.7935 47.2644 37.7454C47.5147 37.6684 47.4666 37.755 46.9275 38.3904C46.0226 39.4301 44.5978 40.7682 44.4438 40.7201C44.3667 40.7008 44.232 40.7201 44.1549 40.7778C44.049 40.8549 44.0683 40.8645 44.2512 40.8067C44.4919 40.7393 44.4919 40.7393 44.309 40.9511C44.1164 41.1629 43.818 41.2111 43.5966 41.0763C43.5099 41.0089 43.5388 40.9511 43.7217 40.8067C44.2801 40.3928 45.8878 38.7466 45.8878 38.6022C45.8878 38.4963 45.8396 38.4578 45.753 38.4867C45.676 38.5155 45.5893 38.5155 45.5701 38.477C45.5508 38.4385 45.5508 38.4674 45.5605 38.5252C45.5797 38.5925 45.5027 38.6888 45.4064 38.7466C45.3005 38.8043 45.2139 38.9102 45.2139 38.9872C45.2139 39.0643 45.1561 39.1605 45.0791 39.199C45.0021 39.2375 44.6748 39.5264 44.3475 39.8344C43.5581 40.5661 43.2211 40.7971 43.1441 40.6719C43.1152 40.6142 43.1538 40.5468 43.2308 40.5179C43.3174 40.489 43.3848 40.412 43.3848 40.3639C43.3848 40.3061 43.3174 40.3158 43.2308 40.3928C43.1345 40.4698 43.0575 40.4794 43.019 40.412C42.9805 40.3639 42.8649 40.3254 42.7591 40.3446C42.6532 40.3639 42.4606 40.3831 42.3258 40.3928C41.5846 40.412 41.0358 40.5083 41.2188 40.5757C41.3246 40.6142 41.4594 40.6046 41.5268 40.5564C41.6423 40.4602 42.2199 40.7008 42.3451 40.903C42.3836 40.9704 42.4317 40.9415 42.4799 40.8356C42.5088 40.749 42.5761 40.6719 42.6339 40.6719C42.682 40.6719 42.6917 40.7201 42.6532 40.7875C42.605 40.8645 42.6532 40.8741 42.7879 40.8452C42.9035 40.8067 42.9997 40.826 42.9997 40.8645C42.9997 40.9608 42.4029 41.4421 42.2873 41.4421C42.2488 41.4421 42.1429 41.5191 42.037 41.6058C41.7097 41.9138 41.1417 42.1737 41.0936 42.039C41.0744 41.9812 41.0166 41.9523 40.9685 41.9812C40.9107 42.0101 40.9203 42.0871 40.9877 42.1737C41.1706 42.3952 40.8529 42.3374 40.6026 42.1063C40.4871 41.9908 40.362 41.9331 40.3235 41.9716C40.2946 42.0005 40.3235 42.0678 40.4005 42.1256C40.5256 42.2026 40.516 42.2411 40.362 42.3566C40.2464 42.4433 40.2176 42.5011 40.2946 42.5011C40.3908 42.5011 40.4005 42.5299 40.3138 42.6358C40.2561 42.7032 40.0443 42.7706 39.8421 42.7706C39.149 42.7802 39.0527 42.7899 39.0527 42.8958C39.0527 42.9535 39.1297 42.9728 39.226 42.9439C39.3126 42.915 39.4474 42.9246 39.5148 42.9728C39.6496 43.0594 38.1767 43.7814 37.6376 43.8969C37.4643 43.9258 37.3006 44.0028 37.2717 44.051C37.2332 44.0991 37.1273 44.1376 37.0214 44.1376C36.9156 44.1376 36.8482 44.0991 36.8867 44.051C36.9156 43.9932 36.8193 43.9932 36.6267 44.051C36.415 44.1087 36.2994 44.0991 36.2513 44.0317C36.2128 43.9643 36.0973 43.9547 35.9721 43.9932C35.8277 44.0413 35.7796 44.0317 35.8181 43.9547C35.9047 43.8199 35.8855 43.8199 35.4908 43.9547C35.279 44.0317 35.1635 44.0317 35.1153 43.9643C35.0768 43.9066 34.9035 43.9355 34.6244 44.0413C34.2874 44.1761 34.2297 44.2339 34.3644 44.282C34.5473 44.359 34.5955 44.5612 34.4126 44.5034C34.2585 44.4457 34.0179 44.6863 34.0949 44.8019C34.1912 44.9655 33.9601 45.0233 32.9204 45.0618C32.2562 45.0907 31.8615 45.1484 31.8133 45.2255C31.7556 45.3121 31.7171 45.3025 31.64 45.1966C31.5534 45.0714 31.5438 45.0714 31.5438 45.1966C31.5438 45.3121 31.3801 45.341 30.687 45.341C29.8976 45.341 29.5991 45.3987 29.7339 45.5335C29.7628 45.5624 30.4944 45.6009 31.3609 45.6105C32.2273 45.6202 32.9685 45.6683 32.9974 45.7164C33.0359 45.7646 33.2959 45.7549 33.6039 45.7068C33.9023 45.649 34.1719 45.6394 34.1912 45.6779C34.2489 45.7742 33.0456 45.9571 32.4102 45.9571C32.1214 45.9571 31.7748 45.9956 31.64 46.0437C31.255 46.1881 29.0023 46.0919 27.8567 45.8801C27.2791 45.7742 26.7881 45.6875 26.7496 45.6972C26.7111 45.7068 26.6148 45.6779 26.5378 45.649C26.3645 45.5816 24.6509 45.1003 24.5643 45.1003C24.5258 45.1003 24.5354 45.1869 24.5643 45.2928C24.6413 45.5335 24.6221 45.5335 23.8134 45.3025L23.1684 45.1099V45.6394C23.1684 46.1496 23.1588 46.1689 22.9566 46.1111C22.5234 45.986 23.0914 46.3133 23.592 46.4769C24.1792 46.6791 24.237 46.6791 24.1696 46.4962C24.1311 46.4192 24.16 46.3518 24.2177 46.3518C24.2755 46.3518 24.3236 46.4481 24.3236 46.554C24.3236 46.7272 24.3429 46.7369 24.468 46.6406C24.5932 46.5443 24.6509 46.5443 24.7857 46.6599C24.8724 46.7465 25.1708 46.8331 25.4307 46.8716C25.9024 46.9294 25.9024 46.9294 25.6329 46.785C25.4885 46.708 25.2959 46.6406 25.2286 46.6406C25.1515 46.6406 25.0938 46.5925 25.0938 46.5443C25.0938 46.4866 24.9783 46.4481 24.8339 46.4481C24.5932 46.4384 24.5836 46.4288 24.7472 46.3325C24.882 46.2555 24.9783 46.2555 25.1034 46.3422C25.3441 46.4866 25.373 46.4769 25.3152 46.2555C25.2574 46.0245 25.4018 46.0052 25.5751 46.2074C25.681 46.3325 25.7195 46.3325 25.7773 46.2363C25.835 46.1496 25.8639 46.1785 25.8639 46.3229C25.8639 46.4577 25.9217 46.5443 26.0083 46.5443C26.0853 46.5443 26.1527 46.4673 26.1527 46.371C26.1527 46.2363 26.172 46.2266 26.249 46.3518C26.3164 46.4577 26.2971 46.5251 26.1912 46.6117C26.095 46.6791 26.0757 46.7369 26.1527 46.785C26.2297 46.8331 26.2297 46.8813 26.1527 46.9775C26.018 47.1412 26.2779 47.1797 28.3188 47.3145C31.8711 47.5455 35.1635 47.0353 38.6195 45.6972C39.3608 45.418 40.1405 45.1388 40.3523 45.0907C40.5641 45.0425 40.9203 44.9559 41.1417 44.9078C41.5172 44.8211 41.9119 44.6478 42.7687 44.1954C43.1152 44.0221 43.4714 43.6563 43.3078 43.6563C43.2404 43.6563 43.1923 43.6081 43.1923 43.56C43.1923 43.5022 43.25 43.4637 43.3174 43.4734C43.5677 43.5215 43.972 43.3386 43.9239 43.2134C43.8565 43.0402 45.8108 41.6346 46.1188 41.6346C46.3114 41.6346 46.3306 41.5961 46.2921 41.3843C46.2536 41.1629 46.2729 41.1437 46.4654 41.2014C46.6194 41.2496 46.6579 41.2399 46.6098 41.1533C46.5328 41.0185 47.5051 39.9788 47.6399 40.0558C47.6784 40.0847 47.7554 39.9981 47.8131 39.8633C47.8709 39.6996 47.9479 39.6322 48.0538 39.6708C48.1597 39.7093 48.1886 39.69 48.1405 39.5841C48.1116 39.5071 48.1405 39.4108 48.2078 39.3627C48.2849 39.3242 48.3041 39.3338 48.256 39.4012C48.2175 39.4686 48.2367 39.5167 48.2945 39.5167C48.3619 39.5167 48.3811 39.4397 48.3426 39.3338C48.3137 39.2279 48.3523 39.1028 48.4485 39.0354C48.747 38.7755 50.1428 36.9656 50.5279 36.311C50.5664 36.2436 50.7493 35.9355 50.9419 35.6179C51.1248 35.3002 51.2788 35.0787 51.2788 35.1269C51.2788 35.175 51.3462 35.1558 51.4232 35.0884C51.5002 35.021 51.5676 34.8573 51.5676 34.7129C51.5676 34.5782 51.6831 34.222 51.8179 33.9332C51.9527 33.6443 52.2126 33.0667 52.3955 32.6432C52.5688 32.2292 52.7902 31.8249 52.8865 31.7479C52.9828 31.6708 53.002 31.6323 52.9443 31.6708C52.7806 31.7479 52.7902 31.6323 52.9539 31.1221C53.0213 30.8911 53.2042 30.2557 53.3486 29.6973C53.493 29.139 53.647 28.648 53.6952 28.5999C53.7337 28.5517 53.7337 28.4362 53.6759 28.3303C53.6278 28.2341 53.6085 28.1089 53.6374 28.0608C53.6663 28.003 53.6374 27.9645 53.57 27.9645C53.4834 27.9645 53.3582 28.2629 53.2234 28.802C53.0983 29.2738 52.9154 29.9476 52.8095 30.3231C52.5881 31.0643 51.9431 32.7009 51.8853 32.6528C51.8661 32.6335 52.0008 32.2196 52.1837 31.7382C52.357 31.2569 52.4822 30.8429 52.4533 30.8141C52.4244 30.7852 52.4533 30.6985 52.5111 30.6311C52.5784 30.5541 52.5977 30.4675 52.5592 30.429C52.5207 30.3905 52.5303 30.3327 52.5881 30.2942C52.7999 30.1594 53.3775 27.5217 53.2619 27.2232C53.2234 27.1366 53.2427 27.0403 53.2908 27.0018C53.4256 26.9248 53.6181 25.0764 53.57 24.4314C53.5411 24.1234 53.57 23.8827 53.6278 23.8346C53.6855 23.7864 55.1488 23.2859 56.8816 22.7179C58.6145 22.1499 60.02 21.6589 60.0007 21.6204C59.9815 21.5915 59.8467 21.1679 59.7023 20.6962C59.5579 20.2149 59.3943 19.7913 59.3557 19.7335C59.3076 19.6854 59.2691 19.5891 59.2691 19.5121C59.2691 19.2811 56.3618 10.5014 56.2463 10.3955C56.1885 10.3281 56.0826 10.2992 56.0152 10.3281ZM48.7758 25.8466C48.7758 25.8947 48.7373 25.9429 48.6796 25.9429C48.6314 25.9429 48.5833 25.8947 48.5833 25.8466C48.5833 25.7888 48.6314 25.7503 48.6796 25.7503C48.7373 25.7503 48.7758 25.7888 48.7758 25.8466ZM52.434 27.8586C52.434 27.9067 52.3666 27.9645 52.2896 28.003C52.203 28.0319 52.1452 28.003 52.1452 27.9164C52.1452 27.8394 52.2126 27.772 52.2896 27.772C52.3666 27.772 52.434 27.8105 52.434 27.8586ZM52.771 31.2376C52.7999 31.2858 52.7806 31.3339 52.7325 31.3339C52.6747 31.3339 52.6266 31.2858 52.6266 31.2376C52.6266 31.1799 52.6458 31.1414 52.6651 31.1414C52.694 31.1414 52.7421 31.1799 52.771 31.2376ZM51.3751 31.3339C51.3751 31.382 51.3558 31.4302 51.3366 31.4302C51.3077 31.4302 51.2596 31.382 51.2307 31.3339C51.2018 31.2761 51.2211 31.2376 51.2692 31.2376C51.327 31.2376 51.3751 31.2761 51.3751 31.3339ZM51.4714 34.8958C51.4714 34.944 51.4232 34.9921 51.3655 34.9921C51.3173 34.9921 51.2981 34.944 51.327 34.8958C51.3558 34.8381 51.404 34.7996 51.4328 34.7996C51.4521 34.7996 51.4714 34.8381 51.4714 34.8958ZM40.7855 42.4048C40.7855 42.4529 40.747 42.5011 40.6893 42.5011C40.6411 42.5011 40.593 42.4529 40.593 42.4048C40.593 42.347 40.6411 42.3085 40.6893 42.3085C40.747 42.3085 40.7855 42.347 40.7855 42.4048ZM42.9035 43.8007C42.8361 43.8777 42.7398 43.9451 42.6917 43.9451C42.6339 43.9451 42.6435 43.8777 42.7109 43.8007C42.7783 43.7237 42.8746 43.6563 42.9227 43.6563C42.9805 43.6563 42.9708 43.7237 42.9035 43.8007ZM35.7796 44.1665C35.7796 44.2339 35.6929 44.2916 35.587 44.3013C35.3753 44.3205 35.3271 44.1857 35.5197 44.1087C35.7218 44.0221 35.7796 44.0317 35.7796 44.1665ZM34.8169 44.3302C34.8169 44.3783 34.7688 44.4264 34.711 44.4264C34.6629 44.4264 34.6436 44.3783 34.6725 44.3302C34.7014 44.2724 34.7495 44.2339 34.7784 44.2339C34.7976 44.2339 34.8169 44.2724 34.8169 44.3302ZM35.2982 44.619C34.8169 44.7441 34.3356 44.8019 34.3356 44.7249C34.3356 44.619 35.1057 44.4553 35.3464 44.5131C35.5197 44.5516 35.51 44.5612 35.2982 44.619ZM33.1515 45.4469C33.1226 45.4757 33.0359 45.4854 32.9685 45.4565C32.8915 45.4276 32.9204 45.3987 33.0263 45.3987C33.1322 45.3891 33.19 45.418 33.1515 45.4469Z" fill="#3BADFF"/>
<path d="M7.8124 12.561C7.78352 12.6091 7.80277 12.6572 7.8509 12.6572C7.90867 12.6572 7.9568 12.6091 7.9568 12.561C7.9568 12.5032 7.93755 12.4647 7.91829 12.4647C7.88941 12.4647 7.84128 12.5032 7.8124 12.561Z" fill="#3BADFF"/>
<path d="M7.52431 13.5248C7.55319 13.573 7.60133 13.6211 7.63021 13.6211C7.64946 13.6211 7.66871 13.573 7.66871 13.5248C7.66871 13.4671 7.62058 13.4286 7.56282 13.4286C7.51468 13.4286 7.49543 13.4671 7.52431 13.5248Z" fill="#3BADFF"/>
<path d="M37.8775 13.7843C37.9449 13.8132 38.0315 13.8036 38.0604 13.7747C38.0989 13.7458 38.0412 13.7169 37.9353 13.7266C37.8294 13.7266 37.8005 13.7554 37.8775 13.7843Z" fill="#3BADFF"/>
<path d="M13.5419 13.9191C13.5419 13.9673 13.436 14.1791 13.3012 14.3909C13.1664 14.6026 13.0605 14.8337 13.0605 14.9203C13.0605 14.9973 13.022 15.0647 12.9739 15.0647C12.791 15.0647 11.501 18.4726 11.501 18.9636C11.501 19.0888 11.5587 19.2717 11.6358 19.3872C11.7609 19.5701 11.7898 19.5123 12.0497 18.5978C12.454 17.1538 13.1375 15.5268 13.8692 14.2753L14.1195 13.8421L13.8307 13.8325C13.6766 13.8325 13.5419 13.871 13.5419 13.9191Z" fill="#3BADFF"/>
<path d="M37.416 14.1979C37.416 14.2461 37.4834 14.2653 37.5604 14.2364C37.6374 14.1979 37.7048 14.1594 37.7048 14.1402C37.7048 14.1209 37.6374 14.1017 37.5604 14.1017C37.4834 14.1017 37.416 14.1402 37.416 14.1979Z" fill="#3BADFF"/>
<path d="M36.8193 14.3625C36.8771 14.3818 36.9926 14.3818 37.06 14.3625C37.1177 14.3336 37.0696 14.3144 36.9348 14.3144C36.8 14.3144 36.7519 14.3336 36.8193 14.3625Z" fill="#3BADFF"/>
<path d="M6.12322 25.4219C5.96919 25.4893 5.95957 25.5085 6.09434 25.5085C6.18098 25.5182 6.28688 25.47 6.31576 25.4219C6.38315 25.316 6.38315 25.316 6.12322 25.4219Z" fill="#3BADFF"/>
<path d="M11.3263 19.7143C11.3263 19.8683 11.2782 20.0705 11.23 20.1764C11.1434 20.3304 11.1627 20.3593 11.3167 20.3593C11.4226 20.3593 11.5285 20.4171 11.5574 20.4748C11.5862 20.5422 11.5959 20.4074 11.567 20.1764C11.4996 19.6373 11.3359 19.3196 11.3263 19.7143Z" fill="#3BADFF"/>
<path d="M18.6427 20.3598C18.5657 20.4079 18.5465 20.4561 18.5946 20.4561C18.6524 20.4561 18.7583 20.4079 18.8353 20.3598C18.9123 20.3117 18.9412 20.2635 18.8834 20.2635C18.8353 20.2635 18.7198 20.3117 18.6427 20.3598Z" fill="#3BADFF"/>
<path d="M6.04196 23.7667C5.7339 23.8726 5.51249 24.1133 5.72428 24.1133C5.96495 24.1133 6.41741 23.8822 6.41741 23.7667C6.41741 23.6897 6.40778 23.6319 6.39816 23.6416C6.3789 23.6416 6.22487 23.6993 6.04196 23.7667Z" fill="#3BADFF"/>
<path d="M4.97401 24.2585C4.83923 24.4125 4.87774 24.4318 5.10878 24.3451C5.19542 24.3163 5.26281 24.2489 5.26281 24.2007C5.26281 24.066 5.10878 24.0948 4.97401 24.2585Z" fill="#3BADFF"/>
<path d="M3.93177 24.4796C3.39267 24.6529 3.24827 24.7396 3.33491 24.8262C3.42155 24.9032 3.46968 24.9032 3.49856 24.8166C3.51782 24.7492 3.59483 24.7203 3.65259 24.7492C3.84513 24.8166 4.77894 24.4604 4.70192 24.3449C4.65379 24.2678 4.42274 24.316 3.93177 24.4796Z" fill="#3BADFF"/>
<path d="M5.21369 24.7875C5.18481 24.8453 5.22332 24.8549 5.30033 24.826C5.47362 24.7586 5.5025 24.6913 5.36772 24.6913C5.30996 24.6913 5.24257 24.7298 5.21369 24.7875Z" fill="#3BADFF"/>
<path d="M2.9999 24.8832C3.02878 24.9314 3.07691 24.9795 3.10579 24.9795C3.12505 24.9795 3.1443 24.9314 3.1443 24.8832C3.1443 24.8255 3.09617 24.787 3.0384 24.787C2.99027 24.787 2.97102 24.8255 2.9999 24.8832Z" fill="#3BADFF"/>
<path d="M2.48906 24.9897C2.50832 25.0474 2.56608 25.0859 2.61421 25.0859C2.66234 25.0859 2.72011 25.0474 2.73936 24.9897C2.75861 24.9319 2.70085 24.8838 2.61421 24.8838C2.52757 24.8838 2.46981 24.9319 2.48906 24.9897Z" fill="#3BADFF"/>
<path d="M3.3367 25.3647C3.21155 25.4417 3.21155 25.4609 3.35596 25.4609C3.4426 25.4609 3.54849 25.4128 3.57737 25.3647C3.65439 25.2395 3.52924 25.2395 3.3367 25.3647Z" fill="#3BADFF"/>
<path d="M0.79501 25.6056C0.766129 25.6922 0.79501 25.75 0.881652 25.75C1.03568 25.75 1.07419 25.596 0.939413 25.519C0.891278 25.4901 0.833517 25.5286 0.79501 25.6056Z" fill="#3BADFF"/>
<path d="M0.0246121 26.2219C0.0631195 26.3086 0.226776 26.8092 0.400059 27.329C0.573343 27.8777 0.736999 28.2339 0.775507 28.1762C0.919909 27.9355 1.01618 28.1858 1.00655 28.7827C0.996924 29.1292 1.0258 29.4469 1.08357 29.5047C1.22797 29.6491 1.1317 28.1858 0.958417 27.6274C0.554089 26.2989 0.448194 26.0871 0.197895 26.0775C0.00535837 26.0583 -0.033149 26.0968 0.0246121 26.2219Z" fill="#3BADFF"/>
<path d="M44.0575 26.6648C43.9901 26.7418 43.8168 26.7995 43.6339 26.7803C43.4317 26.7707 43.3451 26.7995 43.3644 26.8862C43.374 26.9632 43.3162 26.9921 43.1622 26.9536C43.0274 26.9151 42.2669 27.1076 41.2176 27.4349C40.2645 27.7333 39.427 28.0029 39.3692 28.0221C39.2633 28.051 39.1767 28.542 39.2826 28.542C39.3596 28.542 39.9853 28.3206 40.1971 28.2243C40.3704 28.1377 40.4378 28.1377 40.4667 28.2147C40.5244 28.3783 40.9769 28.2532 40.9769 28.0703C40.9769 27.8777 42.2861 27.4253 42.5846 27.5215C42.6905 27.5601 42.8541 27.5504 42.9504 27.5119C43.1237 27.4542 43.1237 27.4445 42.9504 27.3868C42.8252 27.3386 43.0178 27.2424 43.5954 27.0691C44.0479 26.9247 44.4426 26.7418 44.4811 26.6648C44.5485 26.4722 44.2211 26.4722 44.0575 26.6648Z" fill="#3BADFF"/>
<path d="M43.2681 27.3585C43.3355 27.3874 43.4222 27.3778 43.451 27.3489C43.4895 27.32 43.4318 27.2912 43.3259 27.3008C43.22 27.3008 43.1911 27.3297 43.2681 27.3585Z" fill="#3BADFF"/>
<path d="M49.2549 27.8776C49.2549 27.9257 49.303 27.945 49.3512 27.9161C49.4089 27.8872 49.4474 27.8391 49.4474 27.8102C49.4474 27.791 49.4089 27.7717 49.3512 27.7717C49.303 27.7717 49.2549 27.8198 49.2549 27.8776Z" fill="#3BADFF"/>
<path d="M38.3194 28.3599C38.098 28.4562 37.8381 28.5524 37.7418 28.5717C37.6359 28.5909 37.453 28.6583 37.3182 28.7065C37.1835 28.7642 36.6925 28.9279 36.2111 29.0723C35.7394 29.2167 35.2773 29.3611 35.2003 29.39C34.9789 29.467 35.9897 29.6788 36.3363 29.621C36.5192 29.6018 36.6444 29.5247 36.6444 29.4381C36.6444 29.3418 36.7021 29.3226 36.8369 29.3611C36.9428 29.39 37.0294 29.39 37.0294 29.3418C37.0294 29.1974 37.5685 29.0434 37.7322 29.13C37.8285 29.1878 38.0402 29.1493 38.3483 29.0241C38.6852 28.8797 38.7334 28.8412 38.5216 28.8701C38.2809 28.9086 38.3002 28.8894 38.666 28.7065C38.9837 28.5524 39.0992 28.4465 39.0703 28.3214C39.0318 28.1192 38.82 28.1192 38.3194 28.3599Z" fill="#3BADFF"/>
<path d="M0.380059 28.4741C0.418566 28.58 0.601476 29.3983 0.784387 30.3033C1.1117 31.8724 1.83371 34.3176 2.48834 36.0023C2.652 36.4259 2.98894 37.379 3.24886 38.1106C3.88423 39.9301 4.32707 40.8254 4.10565 39.8627C3.96125 39.2273 4.20192 38.977 4.39446 39.5547L4.50035 39.882L4.93356 39.7087C5.17423 39.622 5.4149 39.4873 5.46304 39.4103C5.5208 39.3236 5.54968 39.314 5.54968 39.391C5.54968 39.4584 5.61707 39.4873 5.72296 39.4584C5.8096 39.4295 5.94438 39.3814 6.01177 39.3621C6.11766 39.3332 6.10804 39.2947 5.99251 39.1696C5.84811 39.0348 5.79998 39.0348 5.38602 39.1696C5.13572 39.2562 4.90468 39.3236 4.86617 39.3236C4.81804 39.3236 4.69289 39.0156 4.57737 38.6497C4.47147 38.2743 4.3367 37.9759 4.28856 37.9759C4.24043 37.9759 4.20192 37.87 4.20192 37.7448C4.20192 37.4079 2.96006 33.6438 2.85416 33.6438C2.7964 33.6438 2.75789 33.7015 2.74826 33.7593C2.74826 33.8267 2.70013 33.7785 2.652 33.6438C2.59424 33.509 2.57498 33.2587 2.60386 33.0854C2.63274 32.864 2.50759 32.3538 2.17065 31.3526C1.91073 30.5728 1.62192 29.6871 1.53528 29.3791C1.45827 29.0806 1.35237 28.8303 1.30424 28.8303C1.17909 28.8303 1.19834 28.9844 1.38125 29.5235C1.51603 29.8893 1.52565 30.0048 1.43901 30.0626C1.34274 30.1203 1.42939 30.4958 1.79521 31.574C2.05513 32.3634 2.32468 33.0373 2.38244 33.0662C2.44021 33.1047 2.46909 33.2779 2.44983 33.4609C2.42095 33.7593 2.4017 33.7208 2.14177 33.018C1.24648 30.5439 0.43782 28.3971 0.380059 28.3586C0.351178 28.3297 0.351178 28.3779 0.380059 28.4741ZM4.36558 38.9097C4.3367 39.0059 4.31744 38.9289 4.31744 38.746C4.31744 38.5631 4.3367 38.4861 4.36558 38.5727C4.38483 38.669 4.38483 38.823 4.36558 38.9097Z" fill="#3BADFF"/>
<path d="M34.3929 29.7837C34.2773 29.8318 34.2485 29.88 34.3062 29.9185C34.364 29.957 34.4603 29.9185 34.5276 29.8415C34.6624 29.6778 34.6528 29.6778 34.3929 29.7837Z" fill="#3BADFF"/>
<path d="M33.6791 30.0052C33.6118 30.0726 33.4192 30.1304 33.2459 30.14C32.9186 30.1496 30.2135 31.016 30.0594 31.1508C30.0113 31.199 30.1172 31.1893 30.3001 31.1316C30.483 31.0834 30.9259 31.016 31.2917 30.9968C31.8982 30.9583 32.3025 30.8235 33.0823 30.4288C33.2171 30.3614 33.4385 30.2748 33.5732 30.2459C33.708 30.2074 33.8235 30.1207 33.8235 30.0341C33.8235 29.8608 33.8235 29.8608 33.6791 30.0052Z" fill="#3BADFF"/>
<path d="M32.8427 30.7563C32.8138 30.8044 32.833 30.8525 32.8812 30.8525C32.9389 30.8525 32.9871 30.8044 32.9871 30.7563C32.9871 30.6985 32.9678 30.66 32.9486 30.66C32.9197 30.66 32.8716 30.6985 32.8427 30.7563Z" fill="#3BADFF"/>
<path d="M31.8032 31.1605C31.4951 31.2664 31.2641 31.3723 31.2833 31.4012C31.3315 31.4494 32.6022 31.0546 32.6022 30.9873C32.6022 30.9102 32.3616 30.968 31.8032 31.1605Z" fill="#3BADFF"/>
<path d="M30.3691 31.3049C30.4269 31.3241 30.5424 31.3241 30.6098 31.3049C30.6675 31.276 30.6194 31.2568 30.4846 31.2568C30.3499 31.2568 30.3017 31.276 30.3691 31.3049Z" fill="#3BADFF"/>
<path d="M29.3109 31.4308C29.2243 31.4886 29.0317 31.5367 28.8873 31.5463C28.7333 31.5656 28.6081 31.6426 28.5793 31.7389C28.56 31.8352 28.4926 31.9122 28.4252 31.9122C28.3675 31.9122 28.2134 31.941 28.0883 31.9796C27.915 32.0277 27.8765 32.0084 27.9343 31.9122C27.992 31.8255 27.9728 31.7966 27.8765 31.8255C27.7995 31.8544 26.3747 32.3261 24.7093 32.8652C22.0619 33.7316 21.6576 33.8953 21.5613 34.0975C21.4554 34.3093 21.465 34.3285 21.6094 34.2707C21.6961 34.2322 22.1774 34.0686 22.678 33.9146C23.554 33.6354 23.5925 33.6354 23.7177 33.8087C23.8428 33.9723 23.9391 33.9531 25.6816 33.3562C27.5973 32.7016 27.7706 32.6342 27.684 32.5379C27.6551 32.509 27.3278 32.6053 26.9619 32.7401C26.5961 32.8749 26.2303 32.9904 26.1533 33C26.0763 33.0096 25.98 33.0481 25.9511 33.0963C25.8934 33.1829 24.3338 33.7413 24.1605 33.7413C24.0931 33.7413 24.0354 33.6835 24.0354 33.6161C24.0354 33.491 24.767 33.1829 24.9403 33.2407C24.9788 33.2503 25.0751 33.2214 25.1425 33.1637C25.2869 33.0385 28.4734 31.9796 29.4746 31.7293C29.8404 31.633 30.1581 31.4982 30.1773 31.4405C30.2254 31.3057 29.5419 31.3057 29.3109 31.4308Z" fill="#3BADFF"/>
<path d="M30.514 31.5554C30.3503 31.6228 30.177 31.7094 30.1289 31.7576C30.0807 31.8057 30.1289 31.8153 30.2444 31.7672C30.3503 31.7287 30.5813 31.6613 30.7546 31.6228C30.9375 31.5746 31.1012 31.5169 31.1301 31.488C31.2263 31.3917 30.8413 31.4399 30.514 31.5554Z" fill="#3BADFF"/>
<path d="M28.2215 31.7192C28.1926 31.7769 28.2311 31.7865 28.3081 31.7577C28.4814 31.6903 28.5103 31.6229 28.3755 31.6229C28.3178 31.6229 28.2504 31.6614 28.2215 31.7192Z" fill="#3BADFF"/>
<path d="M50.1029 31.8831C49.9007 31.9312 49.8719 32.1045 50.0644 32.1045C50.1414 32.1045 50.2184 32.0371 50.2569 31.9601C50.2858 31.8831 50.2954 31.8253 50.2858 31.8253C50.2762 31.8349 50.1896 31.8542 50.1029 31.8831Z" fill="#3BADFF"/>
<path d="M29.022 32.172C29.0894 32.2009 29.1761 32.1913 29.2049 32.1624C29.2434 32.1335 29.1857 32.1046 29.0798 32.1143C28.9739 32.1143 28.945 32.1431 29.022 32.172Z" fill="#3BADFF"/>
<path d="M48.3906 32.354C48.3906 32.431 48.4388 32.4695 48.4869 32.4406C48.5447 32.4021 48.5639 32.3347 48.535 32.2866C48.4484 32.1518 48.3906 32.1807 48.3906 32.354Z" fill="#3BADFF"/>
<path d="M49.411 33.1348C49.0163 33.9435 48.2365 35.3008 47.9862 35.6185C47.9381 35.6667 47.7744 35.9073 47.6204 36.148C47.4664 36.3887 47.1679 36.7738 46.9561 37.0144C46.7444 37.2551 46.5614 37.5054 46.5614 37.5632C46.5614 37.6305 46.4941 37.6883 46.417 37.6883C46.34 37.6883 46.2823 37.7364 46.2919 37.8038C46.3111 37.8712 46.1956 37.9867 46.032 38.0734L45.7432 38.2178L45.9646 38.4296C46.2149 38.6799 46.3208 38.7088 46.2438 38.5258C46.2149 38.4585 46.3882 38.1889 46.6192 37.929C46.8503 37.6787 47.0428 37.4284 47.0428 37.3802C47.0428 37.3321 47.0909 37.3225 47.1391 37.3514C47.1968 37.3802 47.2835 37.3802 47.3412 37.3417C47.4182 37.2936 47.4182 37.2647 47.3412 37.2166C47.2738 37.1685 47.3412 37.0144 47.5434 36.7641C47.9958 36.225 48.2943 35.7822 48.2943 35.6667C48.2943 35.6185 48.3424 35.5704 48.3905 35.5704C48.4483 35.5704 48.4868 35.5223 48.4868 35.4549C48.4868 35.3971 48.5831 35.2142 48.7082 35.0505C48.997 34.6558 50.0271 32.5668 50.0271 32.3647C50.0271 32.0085 49.8346 32.2491 49.411 33.1348Z" fill="#3BADFF"/>
<path d="M53.1084 32.3063C53.1084 32.3545 53.1565 32.3737 53.2047 32.3448C53.2624 32.3159 53.3009 32.2678 53.3009 32.2389C53.3009 32.2197 53.2624 32.2004 53.2047 32.2004C53.1565 32.2004 53.1084 32.2486 53.1084 32.3063Z" fill="#3BADFF"/>
<path d="M45.6278 33.6932C45.5508 33.8279 45.5508 33.9435 45.6086 34.059C45.7433 34.29 45.8396 34.2611 45.9647 33.982C46.0514 33.7894 46.0514 33.7413 45.9455 33.7413C45.8685 33.7413 45.7915 33.6835 45.7722 33.6258C45.7433 33.5488 45.6856 33.568 45.6278 33.6932Z" fill="#3BADFF"/>
<path d="M19.7994 34.462C18.7405 34.8182 18.2976 35.0107 18.2784 35.1166C18.2591 35.2033 18.2976 35.2803 18.365 35.2803C18.4709 35.2803 21.205 34.4235 21.3205 34.3561C21.3397 34.3465 21.3397 34.2502 21.3205 34.1443C21.2916 33.971 21.1857 33.9999 19.7994 34.462Z" fill="#3BADFF"/>
<path d="M45.0978 34.4917C44.5779 35.2715 43.2206 36.7733 42.2964 37.6012C40.0437 39.6036 37.3963 40.9898 34.4312 41.7407C32.323 42.2702 30.0414 42.4339 28.1256 42.2028C27.6539 42.1451 27.0571 42.0873 26.8068 42.0681C26.5565 42.0488 26.3158 42.0199 26.2773 41.991C26.2292 41.9622 25.8633 41.8563 25.4494 41.7504C24.8429 41.5963 24.7081 41.5867 24.7081 41.6926C24.7081 41.7696 24.6215 41.8274 24.4963 41.8178C24.323 41.8081 24.3134 41.7985 24.4482 41.76C24.6407 41.7119 24.6118 41.4712 24.4193 41.5193C24.3519 41.529 24.246 41.5001 24.169 41.4327C24.092 41.3749 23.9283 41.3557 23.7936 41.3845C23.6106 41.4327 23.5721 41.4134 23.6106 41.2979C23.6492 41.2016 23.6106 41.1535 23.5144 41.1535C23.4181 41.1535 23.3604 41.2401 23.3604 41.3749C23.3604 41.5675 23.4662 41.6348 24.1594 41.8563C25.3242 42.251 27.0474 42.5783 28.607 42.7034C33.1894 43.0885 38.1279 41.5482 41.7958 38.6024C43.5286 37.2161 45.6465 34.8383 45.531 34.4147C45.4444 34.097 45.3481 34.1066 45.0978 34.4917Z" fill="#3BADFF"/>
<path d="M48.1975 34.8954C48.1398 35.0012 48.1301 35.0879 48.1783 35.0879C48.236 35.0879 48.2938 35.0012 48.3227 34.8954C48.3516 34.7895 48.3516 34.7028 48.3323 34.7028C48.3131 34.7028 48.2553 34.7895 48.1975 34.8954Z" fill="#3BADFF"/>
<path d="M51.2006 35.4735C51.1332 35.5794 51.1236 35.666 51.1717 35.666C51.2583 35.666 51.4027 35.3772 51.345 35.3194C51.3353 35.3002 51.268 35.3772 51.2006 35.4735Z" fill="#3BADFF"/>
<path d="M16.3137 35.589C16.0922 35.666 16.0634 35.7045 16.1596 35.8489C16.2463 35.9933 16.3137 36.0029 16.5447 35.9163C16.6987 35.8585 16.8142 35.743 16.8142 35.6468C16.8142 35.4542 16.6987 35.4446 16.3137 35.589Z" fill="#3BADFF"/>
<path d="M15.3023 35.9261C15.0424 36.0128 14.8884 36.1283 14.8884 36.2246C14.8884 36.3497 14.8691 36.3593 14.8017 36.2631C14.744 36.1572 14.3878 36.2438 13.0978 36.6578L11.4709 37.1776L11.4516 37.6012C11.442 37.9478 11.4516 37.9766 11.4997 37.736L11.5671 37.4472L11.6923 37.8419C11.75 38.0633 11.8078 38.3617 11.8078 38.5157C11.8078 38.8527 12.0292 39.2089 12.6742 39.902C13.1363 40.393 13.1652 40.4122 13.1074 40.1523C13.0497 39.902 13.0593 39.8828 13.2037 39.9983C13.3096 40.0849 13.3385 40.2101 13.3 40.3545C13.2711 40.4796 13.2903 40.5759 13.3481 40.5759C13.3962 40.5759 13.4444 40.5278 13.4444 40.47C13.4444 40.4219 13.4925 40.4026 13.5406 40.4315C13.5984 40.4604 13.6369 40.5663 13.6369 40.6625C13.6369 40.8358 14.1471 41.3557 14.9076 41.9622C15.1579 42.1643 15.3408 42.3761 15.312 42.4242C15.2735 42.482 15.2157 42.482 15.1483 42.4146C15.0905 42.3569 15.0039 42.3087 14.9461 42.3087C14.898 42.3087 14.9365 42.3665 15.0328 42.4435C15.1291 42.5109 15.2831 42.5494 15.3697 42.5301C15.466 42.5013 15.9088 42.7516 16.4287 43.1174C17.1026 43.5891 17.3529 43.7239 17.4202 43.6372C17.478 43.5506 17.4876 43.5795 17.4588 43.7239C17.3914 44.0416 17.478 43.9934 17.6032 43.6469C17.7187 43.3099 17.8246 43.3677 17.9401 43.8394C18.0075 44.1089 18.123 44.2148 18.6429 44.494C18.9894 44.6769 19.2879 44.8598 19.2975 44.908C19.3167 44.9657 19.3938 45.0042 19.4611 45.0042C19.5382 45.0042 20.0002 45.1775 20.4816 45.3893C20.9726 45.6011 21.425 45.7744 21.4828 45.7744C21.5502 45.7744 21.579 45.6685 21.5598 45.5145C21.5213 45.2064 21.6561 44.9465 21.8005 45.0427C21.8582 45.0813 21.8775 45.2545 21.8486 45.4663C21.8005 45.8033 21.8005 45.8129 21.9449 45.63C22.0315 45.5241 22.1085 45.476 22.1085 45.5337C22.1085 45.5819 22.1567 45.5626 22.2048 45.4856C22.2722 45.3797 22.3011 45.4374 22.3107 45.7263L22.3299 46.1113L22.3973 45.7263C22.4358 45.5048 22.4743 45.4374 22.484 45.5626C22.484 45.6877 22.5321 45.7648 22.5706 45.7359C22.6187 45.707 22.638 45.5433 22.6091 45.3701C22.5514 44.9754 22.6573 45.062 22.8305 45.553L22.9653 45.9188V45.4856L22.9749 45.0524L22.1182 44.7443C21.2132 44.4074 20.9629 44.4074 20.9437 44.7539C20.934 44.9465 20.934 44.9465 20.857 44.7636C20.8185 44.6577 20.7608 44.4748 20.7126 44.3496C20.5779 43.9549 20.472 44.1282 20.5105 44.6866C20.5297 44.9946 20.5297 45.1294 20.5008 44.9754C20.4816 44.831 20.4238 44.7347 20.3757 44.7636C20.3372 44.7924 20.2698 44.6192 20.2409 44.3881C20.1832 44.0319 20.1158 43.926 19.827 43.7527C19.644 43.6469 19.4708 43.5698 19.4419 43.5891C19.4226 43.618 19.4804 43.7913 19.5767 43.9934C19.7403 44.34 19.7403 44.3496 19.5574 44.4844C19.3167 44.6673 19.2301 44.6577 19.2301 44.4459C19.2301 44.3592 19.1916 44.1282 19.1435 43.9453C19.0953 43.7624 19.0376 43.541 19.0183 43.4736C18.9991 43.3966 18.5273 43.0404 17.969 42.6842C17.1122 42.1354 16.9485 42.0584 16.8908 42.1932C16.8426 42.328 16.8234 42.3183 16.8234 42.1451C16.8138 42.0199 16.6694 41.8274 16.4576 41.6637C16.2554 41.5193 15.8607 41.2113 15.5911 40.9802C15.312 40.7492 15.0809 40.6048 15.0809 40.6625C15.0809 40.7203 15.0135 40.7684 14.9365 40.7684C14.8595 40.7684 14.7921 40.8358 14.7921 40.9128C14.7921 40.9898 14.7536 41.0572 14.6958 41.0572C14.6477 41.0572 14.5996 40.8551 14.5996 40.6048C14.5996 40.1812 14.5611 40.1138 14.0508 39.5939C13.7428 39.2859 13.4444 39.0356 13.3866 39.0356C13.3192 39.0356 13.2229 38.9201 13.1748 38.766C13.117 38.6216 12.8764 38.2943 12.6357 38.0248C12.395 37.7648 12.1929 37.4953 12.1929 37.4375C12.1929 37.3413 12.6646 37.1487 12.7127 37.2257C12.7223 37.245 12.8956 37.4664 13.0978 37.7167C13.3577 38.044 13.4925 38.1499 13.5503 38.0633C13.5984 37.9863 13.5021 37.7937 13.2903 37.5531C13.1074 37.3413 12.963 37.1487 12.963 37.1198C12.963 37.091 13.5599 36.8695 14.2723 36.6481C15.2157 36.3401 15.6104 36.2534 15.6874 36.3304C15.8607 36.5037 15.8992 36.4556 15.8992 36.0994C15.8992 35.724 15.88 35.7143 15.3023 35.9261ZM13.6273 40.0945C13.6369 40.2871 13.6176 40.3063 13.5406 40.1908C13.4925 40.1138 13.454 39.9116 13.454 39.7576C13.454 39.5073 13.4732 39.4977 13.5406 39.6613C13.5888 39.7672 13.6273 39.9598 13.6273 40.0945ZM17.0929 42.4724C17.0929 42.6264 17.0641 42.6842 17.0352 42.6168C17.0159 42.559 16.9485 42.5301 16.8908 42.559C16.8426 42.5879 16.8523 42.5301 16.9293 42.4146C17.0929 42.1547 17.1026 42.1547 17.0929 42.4724Z" fill="#3BADFF"/>
<path d="M39.0329 36.1473C38.7922 36.3784 38.7248 36.4072 38.3782 36.3398C38.1664 36.3013 37.9932 36.2821 37.9932 36.3013C37.9932 36.3206 38.0702 36.4842 38.1568 36.6768C38.3109 36.9945 38.3109 37.033 38.1568 37.3507C38.0702 37.5432 37.9932 37.7165 37.9932 37.7357C37.9932 37.7646 38.1761 37.755 38.4071 37.7261C38.7537 37.678 38.8403 37.7069 39.0425 37.9186C39.1773 38.0534 39.312 38.1689 39.3409 38.1689C39.3794 38.1689 39.4372 37.9957 39.4757 37.7839C39.5238 37.4566 39.5912 37.3699 39.8704 37.2351C40.0533 37.1485 40.2073 37.0426 40.2073 37.0041C40.2073 36.9656 40.0533 36.8789 39.8704 36.8116C39.5816 36.7057 39.5335 36.6383 39.4757 36.2725C39.4468 36.0414 39.3891 35.8681 39.3506 35.8681C39.3217 35.8778 39.1773 36.0029 39.0329 36.1473Z" fill="#3BADFF"/>
<path d="M16.1493 36.3978C16.1493 36.5036 16.1782 36.5325 16.2071 36.4555C16.236 36.3881 16.2264 36.3015 16.1975 36.2726C16.1686 36.2341 16.1397 36.2919 16.1493 36.3978Z" fill="#3BADFF"/>
<path d="M16.3311 36.9564C16.3311 37.0335 16.3792 37.1297 16.4273 37.1586C16.4851 37.1875 16.5236 37.1297 16.5236 37.0238C16.5236 36.9083 16.4851 36.8217 16.4273 36.8217C16.3792 36.8217 16.3311 36.8794 16.3311 36.9564Z" fill="#3BADFF"/>
<path d="M16.7354 37.2068C16.7354 37.3897 16.7546 37.4667 16.7835 37.3704C16.8027 37.2838 16.8027 37.1298 16.7835 37.0335C16.7546 36.9468 16.7354 37.0239 16.7354 37.2068Z" fill="#3BADFF"/>
<path d="M47.4757 37.0131C47.4469 37.0612 47.4565 37.1094 47.5142 37.1094C47.5624 37.1094 47.6394 37.0612 47.6683 37.0131C47.6971 36.9553 47.6875 36.9168 47.6298 36.9168C47.5816 36.9168 47.5046 36.9553 47.4757 37.0131Z" fill="#3BADFF"/>
<path d="M16.9206 37.2257C16.9206 37.3509 16.9495 37.5146 16.988 37.6012C17.0843 37.8226 18.1528 38.7083 19.1733 39.411C20.0108 39.9887 20.0397 39.9983 20.0975 39.7865C20.1456 39.6325 20.0975 39.5266 19.9531 39.4207C19.8472 39.3437 19.4236 39.0356 19.0096 38.7372C18.5957 38.4484 17.9507 37.9381 17.5849 37.6012C16.9976 37.0813 16.911 37.0332 16.9206 37.2257Z" fill="#3BADFF"/>
<path d="M11.1448 37.4187C11.1448 37.4861 11.1833 37.6305 11.2314 37.7364C11.2988 37.9 11.3181 37.8808 11.3181 37.6112C11.3277 37.4476 11.2892 37.3032 11.2314 37.3032C11.1833 37.3032 11.1352 37.3609 11.1448 37.4187Z" fill="#3BADFF"/>
<path d="M35.1038 37.8322L34.6706 38.2654L34.1411 38.1788C33.8523 38.1306 33.5924 38.1114 33.5827 38.121C33.5635 38.1403 33.6597 38.3713 33.8138 38.6409L34.0737 39.1318L33.8234 39.6036C33.679 39.8635 33.5635 40.1042 33.5635 40.133C33.5635 40.1715 33.8234 40.1715 34.1507 40.133L34.7283 40.0656L35.1519 40.4796L35.5659 40.8936L35.6332 40.4218C35.7295 39.6902 35.7488 39.6613 36.259 39.4206C36.5285 39.2955 36.7403 39.1703 36.7403 39.1318C36.7403 39.103 36.4997 38.9586 36.2109 38.8142C35.7103 38.5735 35.6814 38.535 35.6718 38.198C35.6621 37.9959 35.6332 37.7359 35.6044 37.6108C35.537 37.4086 35.5177 37.4183 35.1038 37.8322Z" fill="#3BADFF"/>
<path d="M10.6523 37.6388C10.6523 37.7158 10.6909 37.7832 10.7486 37.7832C10.7967 37.7832 10.816 37.7158 10.7871 37.6388C10.7486 37.5618 10.7101 37.4944 10.6909 37.4944C10.6716 37.4944 10.6523 37.5618 10.6523 37.6388Z" fill="#3BADFF"/>
<path d="M45.6935 37.8316C45.5684 37.9664 45.5106 38.0723 45.5684 38.0723C45.6839 38.0723 46.0305 37.7064 45.9631 37.6391C45.9438 37.6102 45.8187 37.6968 45.6935 37.8316Z" fill="#3BADFF"/>
<path d="M8.67794 38.111C8.10996 38.3036 7.81152 38.4576 7.81152 38.5539C7.81152 38.7175 7.9463 38.7079 8.70682 38.4865C9.06301 38.3902 9.24592 38.2747 9.30369 38.1399C9.3807 37.9474 9.39033 37.9474 9.39033 38.111C9.39995 38.2554 9.42883 38.2747 9.50585 38.1977C9.56361 38.1399 9.59249 38.0244 9.57324 37.9474C9.55398 37.8318 9.39033 37.8607 8.67794 38.111Z" fill="#3BADFF"/>
<path d="M46.8492 38.0245C46.7818 38.1016 46.7722 38.1689 46.8299 38.1689C46.8781 38.1689 46.9743 38.1016 47.0417 38.0245C47.1091 37.9475 47.1187 37.8801 47.061 37.8801C47.0128 37.8801 46.9166 37.9475 46.8492 38.0245Z" fill="#3BADFF"/>
<path d="M49.6036 38.1308C49.44 38.2464 49.44 38.2656 49.5651 38.2656C49.6518 38.2656 49.7577 38.2175 49.7865 38.1597C49.8924 37.9961 49.8058 37.9864 49.6036 38.1308Z" fill="#3BADFF"/>
<path d="M11.3062 38.1398C11.3736 38.1687 11.4602 38.159 11.4891 38.1302C11.5276 38.1013 11.4699 38.0724 11.364 38.082C11.2581 38.082 11.2292 38.1109 11.3062 38.1398Z" fill="#3BADFF"/>
<path d="M46.4367 38.3333C46.3404 38.4199 46.35 38.5547 46.4559 38.5547C46.5041 38.5547 46.5618 38.4873 46.6003 38.4103C46.6485 38.2659 46.5522 38.2177 46.4367 38.3333Z" fill="#3BADFF"/>
<path d="M44.8558 38.6021C44.7114 38.7273 44.6344 38.8428 44.6921 38.8428C44.7499 38.8428 44.8943 38.7369 45.0195 38.6021C45.3083 38.294 45.2024 38.294 44.8558 38.6021Z" fill="#3BADFF"/>
<path d="M7.44665 38.5251C7.3215 38.6406 7.37926 38.8428 7.52366 38.8428C7.60068 38.8428 7.66806 38.7561 7.66806 38.6502C7.66806 38.4577 7.56217 38.3999 7.44665 38.5251Z" fill="#3BADFF"/>
<path d="M7.05282 38.7951C7.09133 38.8721 7.14909 38.9395 7.19723 38.9395C7.24536 38.9395 7.28387 38.8721 7.28387 38.7951C7.28387 38.718 7.21648 38.6506 7.13946 38.6506C7.05282 38.6506 7.02394 38.7084 7.05282 38.7951Z" fill="#3BADFF"/>
<path d="M30.5715 38.9011C30.379 39.1129 30.2827 39.1418 29.9361 39.1033C29.7051 39.084 29.5222 39.0744 29.5222 39.1033C29.5222 39.1225 29.5896 39.2766 29.6762 39.4306C29.8302 39.7386 29.7821 40.2777 29.5896 40.4029C29.3874 40.528 29.5703 40.5666 29.9361 40.4799C30.2731 40.4125 30.3308 40.4221 30.5522 40.6821C30.8699 41.0383 30.9662 41.0383 30.9662 40.6821C30.9662 40.2489 31.0528 40.1141 31.409 39.9986C31.5919 39.9408 31.7363 39.8542 31.7363 39.8157C31.7363 39.7771 31.5631 39.6616 31.3513 39.5654C30.9951 39.4017 30.9662 39.3632 30.9662 39.0166C30.9662 38.5834 30.8892 38.5642 30.5715 38.9011Z" fill="#3BADFF"/>
<path d="M6.63891 38.9393C6.64854 39.0452 6.7063 39.1318 6.77369 39.1318C6.84107 39.1318 6.89884 39.0452 6.89884 38.9393C6.89884 38.8334 6.84107 38.7468 6.76406 38.7468C6.67742 38.7468 6.62928 38.8334 6.63891 38.9393Z" fill="#3BADFF"/>
<path d="M6.0332 39.0356C6.0332 39.0837 6.08134 39.1318 6.12947 39.1318C6.18723 39.1318 6.22574 39.0837 6.22574 39.0356C6.22574 38.9778 6.18723 38.9393 6.12947 38.9393C6.08134 38.9393 6.0332 38.9778 6.0332 39.0356Z" fill="#3BADFF"/>
<path d="M48.7744 39.0456C48.7744 39.0937 48.8225 39.113 48.8707 39.0841C48.9284 39.0552 48.967 39.0071 48.967 38.9782C48.967 38.9589 48.9284 38.9397 48.8707 38.9397C48.8225 38.9397 48.7744 38.9878 48.7744 39.0456Z" fill="#3BADFF"/>
<path d="M44.0396 39.1027C44.107 39.1316 44.1936 39.1219 44.2225 39.0931C44.261 39.0642 44.2033 39.0353 44.0974 39.0449C43.9915 39.0449 43.9626 39.0738 44.0396 39.1027Z" fill="#3BADFF"/>
<path d="M14.6963 39.3241C14.6963 39.43 14.7348 39.5166 14.7733 39.5166C14.8118 39.5166 14.8503 39.43 14.8599 39.3241C14.8696 39.2182 14.8407 39.1315 14.7829 39.1315C14.7348 39.1315 14.6963 39.2182 14.6963 39.3241Z" fill="#3BADFF"/>
<path d="M14.9834 39.5936C14.9834 39.6995 15.1663 39.9306 15.4262 40.1424C15.8306 40.4793 15.8594 40.4889 15.8306 40.2868C15.8209 40.1712 15.6188 39.9209 15.3974 39.7284C15.0315 39.43 14.9834 39.4204 14.9834 39.5936Z" fill="#3BADFF"/>
<path d="M20.4717 39.902C20.4717 40.0079 20.5872 40.2101 20.7316 40.3448L21.0012 40.5951L21.0589 40.3641C21.1263 40.1427 21.1263 40.1427 21.1359 40.393C21.1456 40.5951 21.2322 40.6818 21.6558 40.8551C21.9253 40.9802 22.2719 41.1439 22.4163 41.2113C22.7436 41.3845 22.8784 41.3845 22.8784 41.192C22.8784 40.9995 23.0613 41.115 23.1672 41.3845C23.2442 41.5771 23.2538 41.5771 23.2538 41.3364C23.2635 41.115 23.1576 41.038 22.1371 40.5759C21.5114 40.2871 20.8856 39.979 20.7412 39.8731C20.4717 39.6998 20.4717 39.6998 20.4717 39.902Z" fill="#3BADFF"/>
<path d="M16.0733 40.5174C16.1022 40.5944 16.0829 40.6811 16.0155 40.71C15.9385 40.7388 15.9385 40.7581 16.0348 40.7581C16.1022 40.7677 16.3717 40.9218 16.6316 41.1143C16.9878 41.3742 17.1034 41.4224 17.1034 41.2972C17.1034 41.1047 16.6124 40.6618 16.4584 40.7196C16.4006 40.7388 16.3332 40.6715 16.3043 40.5656C16.2754 40.4693 16.1984 40.3827 16.1407 40.3827C16.0733 40.3827 16.0444 40.4404 16.0733 40.5174Z" fill="#3BADFF"/>
<path d="M40.5437 40.6713C40.5148 40.7194 40.5533 40.7676 40.6399 40.7676C40.7266 40.7676 40.7651 40.7194 40.7362 40.6713C40.7073 40.6135 40.6592 40.575 40.6399 40.575C40.6207 40.575 40.5725 40.6135 40.5437 40.6713Z" fill="#3BADFF"/>
<path d="M12.7715 40.8556C12.7715 40.9037 12.8196 40.9807 12.8678 41.0096C12.9255 41.0385 12.964 41.0289 12.964 40.9711C12.964 40.923 12.9255 40.846 12.8678 40.8171C12.8196 40.7882 12.7715 40.7978 12.7715 40.8556Z" fill="#3BADFF"/>
<path d="M40.7848 40.9119C40.7174 40.9986 40.6885 41.0948 40.727 41.1237C40.7655 41.1622 40.6885 41.2489 40.573 41.3163C40.3708 41.4222 40.3804 41.4318 40.7655 41.4414C41.1506 41.4414 41.1602 41.4318 41.0543 41.2489C40.9869 41.143 40.8906 41.0563 40.8329 41.0563C40.7848 41.0563 40.804 41.0178 40.881 40.9601C40.958 40.9119 40.9965 40.8445 40.9677 40.8157C40.9292 40.7868 40.8521 40.8253 40.7848 40.9119Z" fill="#3BADFF"/>
<path d="M39.5819 41.3451C39.553 41.3933 39.5915 41.4414 39.6685 41.4414C39.7551 41.4414 39.8225 41.3933 39.8225 41.3451C39.8225 41.2874 39.784 41.2489 39.7359 41.2489C39.6781 41.2489 39.6107 41.2874 39.5819 41.3451Z" fill="#3BADFF"/>
<path d="M17.4883 41.5775C17.4883 41.7508 18.6916 42.5595 19.6832 43.06C20.6459 43.551 20.4148 43.1852 19.3944 42.598C18.9034 42.3188 18.4317 42.0396 18.3547 41.9722C18.2777 41.9145 18.0466 41.7604 17.8541 41.6449C17.546 41.462 17.4883 41.4524 17.4883 41.5775Z" fill="#3BADFF"/>
<path d="M39.6784 41.587C39.4473 41.6929 39.4281 41.7217 39.5917 41.7217C39.6976 41.7314 39.8709 41.664 39.9768 41.587C40.2079 41.4137 40.0538 41.4137 39.6784 41.587Z" fill="#3BADFF"/>
<path d="M40.3804 41.6056C40.4478 41.6345 40.5345 41.6249 40.5633 41.596C40.6018 41.5671 40.5441 41.5382 40.4382 41.5478C40.3323 41.5478 40.3034 41.5767 40.3804 41.6056Z" fill="#3BADFF"/>
<path d="M38.9945 41.7013C39.0234 41.7302 38.9753 41.8168 38.879 41.8938C38.725 42.0286 38.725 42.0286 38.8886 41.9805C38.9849 41.9516 39.1293 41.9227 39.2063 41.9227C39.4181 41.9227 39.37 41.7591 39.1389 41.7013C39.0234 41.6724 38.9656 41.6724 38.9945 41.7013Z" fill="#3BADFF"/>
<path d="M38.3098 41.8947C38.3964 41.914 38.5312 41.914 38.5986 41.8947C38.6563 41.8659 38.5889 41.8466 38.4253 41.8466C38.2713 41.8466 38.2135 41.8659 38.3098 41.8947Z" fill="#3BADFF"/>
<path d="M36.645 42.174L36.4043 42.3184L36.645 42.251C36.7797 42.2221 36.9241 42.1547 36.9819 42.1066C37.1263 41.9718 36.9145 42.0103 36.645 42.174Z" fill="#3BADFF"/>
<path d="M39.7253 42.2603C39.7253 42.3373 39.552 42.4432 39.3402 42.5106C38.8107 42.6742 38.9359 42.7513 39.475 42.5972C39.9178 42.4721 40.1103 42.2699 39.86 42.1737C39.783 42.1448 39.7253 42.1833 39.7253 42.2603Z" fill="#3BADFF"/>
<path d="M37.2224 42.5014C37.0973 42.5784 37.0973 42.5977 37.2417 42.5977C37.3283 42.5977 37.4342 42.5495 37.4631 42.5014C37.5401 42.3762 37.415 42.3762 37.2224 42.5014Z" fill="#3BADFF"/>
<path d="M37.9932 42.5114C37.9932 42.5595 38.0413 42.5788 38.0894 42.5499C38.1472 42.521 38.1857 42.4729 38.1857 42.444C38.1857 42.4248 38.1472 42.4055 38.0894 42.4055C38.0413 42.4055 37.9932 42.4536 37.9932 42.5114Z" fill="#3BADFF"/>
<path d="M36.8379 42.6071C36.8379 42.6552 36.886 42.6745 36.9342 42.6456C36.9919 42.6167 37.0304 42.5686 37.0304 42.5397C37.0304 42.5205 36.9919 42.5012 36.9342 42.5012C36.886 42.5012 36.8379 42.5493 36.8379 42.6071Z" fill="#3BADFF"/>
<path d="M37.5791 42.5679C37.5406 42.5968 37.5117 42.6738 37.5117 42.7316C37.5117 42.7894 37.5599 42.7797 37.6272 42.7124C37.685 42.6546 37.7139 42.5776 37.6946 42.5487C37.6657 42.5198 37.608 42.5294 37.5791 42.5679Z" fill="#3BADFF"/>
<path d="M44.6824 42.6938C44.6536 42.7515 44.6921 42.7612 44.7691 42.7323C44.9424 42.6649 44.9712 42.5975 44.8365 42.5975C44.7787 42.5975 44.7113 42.636 44.6824 42.6938Z" fill="#3BADFF"/>
<path d="M14.5045 42.934C14.5719 43.0111 14.6585 43.0496 14.7067 43.0207C14.8318 42.9437 14.7163 42.7896 14.5334 42.7896C14.4082 42.7896 14.4082 42.8185 14.5045 42.934Z" fill="#3BADFF"/>
<path d="M15.0811 42.8283C15.0811 42.8475 15.1581 42.9245 15.2543 42.9919C15.3987 43.1171 15.4084 43.1074 15.2832 42.9534C15.1581 42.7994 15.0811 42.7512 15.0811 42.8283Z" fill="#3BADFF"/>
<path d="M38.2803 42.8864C38.2803 42.9345 38.3477 42.9538 38.4247 42.9249C38.5017 42.8864 38.5691 42.8479 38.5691 42.8286C38.5691 42.8094 38.5017 42.7901 38.4247 42.7901C38.3477 42.7901 38.2803 42.8286 38.2803 42.8864Z" fill="#3BADFF"/>
<path d="M36.4531 42.9823C36.251 43.0497 36.2413 43.0593 36.405 43.0689C36.5879 43.0882 36.5879 43.0882 36.4146 43.223C36.3183 43.2904 36.2702 43.3962 36.3087 43.454C36.3954 43.5984 36.6553 43.5888 36.6264 43.4444C36.6072 43.377 36.6842 43.3192 36.7997 43.3096C36.9056 43.3096 37.0789 43.2518 37.1848 43.1941C37.358 43.0882 37.3484 43.0882 37.127 43.0786C36.9345 43.0786 36.9152 43.0593 37.0307 42.9823C37.1463 42.9053 37.127 42.886 36.9345 42.8957C36.7997 42.9053 36.5879 42.9438 36.4531 42.9823Z" fill="#3BADFF"/>
<path d="M34.4882 43.2034C34.3246 43.3286 34.3727 43.3382 34.9407 43.2804C35.0658 43.2708 34.9118 43.0783 34.777 43.0783C34.7096 43.0783 34.5845 43.136 34.4882 43.2034Z" fill="#3BADFF"/>
<path d="M20.3857 43.3294C20.3857 43.4353 20.4146 43.4642 20.4434 43.3872C20.4723 43.3198 20.4627 43.2331 20.4338 43.2042C20.4049 43.1657 20.3761 43.2235 20.3857 43.3294Z" fill="#3BADFF"/>
<path d="M20.7802 43.4632C20.9149 43.675 21.0112 43.6461 20.9246 43.4151C20.886 43.338 20.8187 43.2707 20.7609 43.2707C20.7031 43.2707 20.7031 43.338 20.7802 43.4632Z" fill="#3BADFF"/>
<path d="M33.6618 43.4252C33.4885 43.5022 33.373 43.5888 33.4019 43.6274C33.4404 43.6562 33.5174 43.637 33.5848 43.5792C33.6522 43.5311 33.8447 43.4637 33.9987 43.4444C34.1913 43.4252 34.2394 43.3963 34.1335 43.3578C34.0565 43.3193 33.8447 43.3482 33.6618 43.4252Z" fill="#3BADFF"/>
<path d="M35.9227 43.4643C35.8938 43.522 35.9323 43.5317 36.0093 43.5028C36.1826 43.4354 36.2115 43.368 36.0767 43.368C36.0189 43.368 35.9516 43.4065 35.9227 43.4643Z" fill="#3BADFF"/>
<path d="M35.2506 43.56C35.2217 43.6081 35.2795 43.6562 35.3853 43.6562C35.5009 43.6562 35.5875 43.6081 35.5875 43.56C35.5875 43.5022 35.5298 43.4637 35.4527 43.4637C35.3757 43.4637 35.2795 43.5022 35.2506 43.56Z" fill="#3BADFF"/>
<path d="M34.7978 43.6272C34.8556 43.6464 34.9711 43.6464 35.0385 43.6272C35.0963 43.5983 35.0481 43.579 34.9133 43.579C34.7786 43.579 34.7304 43.5983 34.7978 43.6272Z" fill="#3BADFF"/>
<path d="M21.4346 43.7624C21.4346 43.8105 21.4827 43.8298 21.5308 43.8009C21.5886 43.772 21.6271 43.7239 21.6271 43.695C21.6271 43.6757 21.5886 43.6565 21.5308 43.6565C21.4827 43.6565 21.4346 43.7046 21.4346 43.7624Z" fill="#3BADFF"/>
<path d="M36.4521 43.849C36.4521 43.8972 36.5003 43.9453 36.5484 43.9453C36.6062 43.9453 36.6447 43.8972 36.6447 43.849C36.6447 43.7913 36.6062 43.7528 36.5484 43.7528C36.5003 43.7528 36.4521 43.7913 36.4521 43.849Z" fill="#3BADFF"/>
<path d="M21.9839 43.9739C21.9454 44.0798 22.0801 44.1761 22.4556 44.3109C22.9369 44.4842 22.9754 44.4842 22.9754 44.3301C22.9754 44.2242 22.8503 44.128 22.6192 44.051C22.4171 43.9836 22.2053 43.9162 22.1475 43.8873C22.0898 43.8584 22.0127 43.9066 21.9839 43.9739Z" fill="#3BADFF"/>
<path d="M16.2834 44.1852C16.3893 44.2719 16.5818 44.3585 16.7166 44.3874C16.8513 44.4163 17.3134 44.5607 17.7466 44.7147C18.1798 44.8591 18.5553 44.9554 18.5842 44.9265C18.6612 44.8495 17.9969 44.5222 17.7563 44.5222C17.6311 44.5126 17.2942 44.4259 17.0054 44.32C16.7166 44.2141 16.3893 44.1082 16.2834 44.0794L16.0908 44.0312L16.2834 44.1852Z" fill="#3BADFF"/>
<path d="M17.1513 44.1371C17.1801 44.1853 17.2283 44.2334 17.2572 44.2334C17.2764 44.2334 17.2957 44.1853 17.2957 44.1371C17.2957 44.0794 17.2475 44.0409 17.1898 44.0409C17.1416 44.0409 17.1224 44.0794 17.1513 44.1371Z" fill="#3BADFF"/>
<path d="M23.168 44.3782C23.168 44.5611 23.399 44.6477 24.6794 44.975C25.6132 45.2061 25.9212 45.2157 25.7095 45.0135C25.6613 44.9654 25.18 44.8114 24.6409 44.6766C24.1018 44.5418 23.553 44.3878 23.4183 44.33C23.2161 44.253 23.168 44.2723 23.168 44.3782Z" fill="#3BADFF"/>
<path d="M33.6412 44.7833C33.7086 44.8122 33.7952 44.8026 33.8241 44.7737C33.8626 44.7448 33.8048 44.716 33.6989 44.7256C33.593 44.7256 33.5642 44.7545 33.6412 44.7833Z" fill="#3BADFF"/>
<path d="M25.8826 45.1199C25.9307 45.2643 26.2677 45.3413 27.4999 45.4954C28.6936 45.6494 28.7033 45.6494 28.7225 45.5339C28.7321 45.4761 28.6551 45.4472 28.5492 45.4569C28.4433 45.4761 28.3856 45.4472 28.4144 45.3895C28.4433 45.3317 28.3952 45.2932 28.2989 45.2932C28.2027 45.2932 27.6539 45.2258 27.0667 45.1488C25.7863 44.9755 25.8344 44.9755 25.8826 45.1199Z" fill="#3BADFF"/>
<path d="M29.2138 45.6486C29.2716 45.6679 29.3871 45.6679 29.4545 45.6486C29.5123 45.6198 29.4641 45.6005 29.3294 45.6005C29.1946 45.6005 29.1464 45.6198 29.2138 45.6486Z" fill="#3BADFF"/>
<path d="M30.6086 45.842C30.6952 45.8613 30.83 45.8613 30.8974 45.842C30.9552 45.8131 30.8878 45.7939 30.7241 45.7939C30.5701 45.7939 30.5123 45.8131 30.6086 45.842Z" fill="#3BADFF"/>
<path d="M24.9613 22.5557C24.9818 22.5323 25.0734 22.4946 25.2359 22.4425C25.4035 22.3888 25.4974 22.3672 25.5175 22.3775C25.536 22.3828 25.5646 22.3848 25.6034 22.3836C25.7639 22.3602 25.9391 22.3825 26.1289 22.4505C26.3187 22.5185 26.4576 22.6112 26.5456 22.7286C26.7249 22.9736 26.8214 23.2227 26.8353 23.4759C26.8543 23.7274 26.79 23.9636 26.6423 24.1845C26.4946 24.4054 26.2862 24.559 26.017 24.6452C25.8681 24.6873 25.7135 24.7116 25.5532 24.7182C25.3979 24.7231 25.2758 24.709 25.1868 24.6759C25.1801 24.6725 25.1709 24.6698 25.1591 24.668C25.1457 24.6611 25.1297 24.655 25.1112 24.6497C25.0978 24.6428 25.0844 24.6359 25.071 24.629C25.0273 24.615 24.9753 24.5925 24.9149 24.5614C24.853 24.5253 24.8203 24.5021 24.8171 24.4919C24.8138 24.4818 24.7905 24.4613 24.747 24.4304C24.7018 24.3944 24.6785 24.3739 24.6768 24.3689C24.6736 24.3587 24.6628 24.3425 24.6445 24.3204C24.5663 24.2335 24.5019 24.1113 24.4515 23.9538C24.4011 23.7964 24.3841 23.6646 24.4005 23.5585C24.3972 23.5484 24.3965 23.5374 24.3984 23.5256C24.3986 23.5087 24.3988 23.4919 24.399 23.475C24.4042 23.4565 24.4086 23.4439 24.4121 23.4372C24.4346 23.2452 24.5093 23.0589 24.6362 22.8782C24.6671 22.8347 24.7166 22.7796 24.7849 22.713C24.8515 22.6412 24.8925 22.6029 24.9077 22.598C24.9229 22.5932 24.9408 22.579 24.9613 22.5557ZM25.7109 23.1388C25.6687 23.1467 25.6069 23.1637 25.5256 23.1897C25.4494 23.2142 25.3918 23.2354 25.3528 23.2535C25.2679 23.3031 25.213 23.3851 25.188 23.4995C25.1631 23.6139 25.177 23.7186 25.2299 23.8137C25.2728 23.8952 25.3582 23.9434 25.4862 23.9584C25.6177 23.9667 25.7419 23.9437 25.8589 23.8894C25.9743 23.8301 26.0401 23.7558 26.0564 23.6666C26.087 23.5 26.07 23.3682 26.0054 23.2713C25.9391 23.1693 25.841 23.1252 25.7109 23.1388ZM27.6197 21.7546C27.6538 21.7213 27.7098 21.6949 27.7876 21.6756C27.8654 21.6563 27.9295 21.6554 27.9799 21.6728C27.985 21.6712 27.9909 21.6721 27.9976 21.6756C28.0833 21.6985 28.1475 21.7591 28.1902 21.8575C28.2313 21.9507 28.3397 22.2716 28.5154 22.8202C28.5349 22.8811 28.5495 22.9268 28.5593 22.9573C28.8001 23.709 28.9196 24.0908 28.9177 24.1025C28.9175 24.1194 29.0157 24.452 29.2121 25.1003C29.4169 25.7571 29.514 26.104 29.5035 26.141C29.4726 26.3245 29.387 26.4331 29.2466 26.4669C29.1062 26.5007 28.9668 26.4501 28.8284 26.3152C28.8018 26.2846 28.7665 26.2007 28.7226 26.0635C28.677 25.9213 28.5308 25.4473 28.2839 24.6416C27.9167 23.4599 27.7029 22.7752 27.6427 22.5872C27.5535 22.291 27.5068 22.1016 27.5027 22.0189C27.4986 21.9362 27.5376 21.8481 27.6197 21.7546ZM25.6579 25.2811C25.7596 25.2317 26.1212 25.1103 26.7425 24.9169C27.3621 24.7184 27.6922 24.6211 27.7326 24.6249C27.8624 24.6282 27.9656 24.6791 28.042 24.7779C28.1168 24.8715 28.1392 24.9763 28.1091 25.0924C28.0775 25.2033 28.0234 25.2794 27.947 25.3207C27.8757 25.3603 27.6658 25.4304 27.3171 25.5309C26.9431 25.6395 26.7458 25.7054 26.7253 25.7288C26.7082 25.7455 26.7061 25.7826 26.7189 25.8401C26.7352 25.8908 26.7921 26.0771 26.8895 26.3987C26.9918 26.7355 27.05 26.9437 27.0643 27.0231C27.0836 27.1009 27.0836 27.1709 27.0643 27.2331C27.0361 27.3373 26.9678 27.4124 26.8593 27.4584C26.7559 27.5027 26.6505 27.4972 26.5432 27.442C26.4627 27.4006 26.3994 27.3341 26.3533 27.2424C26.3122 27.1492 26.2414 26.9282 26.141 26.5796C26.0306 26.2174 25.9661 26.0336 25.9476 26.0283C25.9275 26.018 25.7727 26.0591 25.4832 26.1519C25.2276 26.2281 25.0728 26.2693 25.0187 26.2754C24.9647 26.2815 24.8966 26.2613 24.8145 26.2148C24.7141 26.1462 24.657 26.0553 24.6431 25.9421C24.6277 25.8239 24.6635 25.7172 24.7506 25.6221C24.7797 25.5904 24.812 25.5688 24.8475 25.5574C24.8815 25.541 24.9924 25.5026 25.1803 25.4424C25.4258 25.3694 25.5849 25.3156 25.6579 25.2811ZM31.0771 20.6052C31.4127 20.4641 31.6699 20.3929 31.8487 20.3916C32.0275 20.3904 32.1616 20.4594 32.2511 20.5988C32.2909 20.6532 32.3579 20.8362 32.4521 21.1476C32.5446 21.454 32.5963 21.6503 32.6071 21.7364C32.6313 21.9695 32.594 22.1326 32.495 22.2259C32.4678 22.2458 32.4371 22.2725 32.403 22.3058C32.3467 22.3574 32.2618 22.407 32.1483 22.4546C32.0347 22.5022 31.8154 22.578 31.4903 22.6821C31.4548 22.6935 31.4065 22.709 31.3456 22.7285C31.1475 22.7919 31.0331 22.837 31.0024 22.8636C30.9768 22.8886 30.977 22.9417 31.0031 23.023C31.0112 23.0484 31.0177 23.0687 31.0226 23.0839C31.06 23.2008 31.0939 23.2627 31.1241 23.2698C31.1595 23.2753 31.2872 23.2456 31.5072 23.1807C31.7593 23.1112 32.0725 23.0137 32.4468 22.8882C32.7718 22.7841 32.9665 22.7273 33.0307 22.718C33.0932 22.7035 33.1665 22.7137 33.2504 22.7484C33.3612 22.7969 33.4328 22.872 33.4653 22.9736C33.4962 23.0701 33.4815 23.1728 33.4212 23.2817C33.3833 23.3555 33.3396 23.4115 33.2902 23.4497C33.2392 23.4828 33.1477 23.5205 33.0156 23.5628C32.6703 23.6734 32.4907 23.7422 32.4769 23.769C32.4665 23.7891 32.5393 24.0514 32.6953 24.5559C32.6985 24.566 32.7026 24.5787 32.7075 24.594C32.7252 24.6667 32.7534 24.7024 32.7923 24.7012C32.8361 24.6984 32.969 24.6586 33.1909 24.5819C33.2518 24.5624 33.3001 24.547 33.3356 24.5356C33.7133 24.4034 33.9369 24.3234 34.0064 24.2955C34.1555 24.2366 34.2888 24.2331 34.4062 24.2851C34.5288 24.3354 34.6011 24.4214 34.6233 24.5431C34.6489 24.6581 34.6113 24.7766 34.5103 24.8985C34.4778 24.937 34.4446 24.9644 34.4107 24.9809C34.3768 24.9973 34.2717 25.0366 34.0956 25.0986C32.0901 25.8137 30.9964 26.1669 30.8143 26.158C30.6406 26.1576 30.5175 26.0879 30.4449 25.9487C30.3758 25.8028 30.3918 25.6605 30.4929 25.5217L30.5572 25.4339L31.2658 25.2069C31.7381 25.0557 31.9803 24.9725 31.9923 24.9574C32.001 24.9322 31.9278 24.7037 31.7727 24.2718C31.7171 24.1159 31.6734 24.0319 31.6415 24.0197C31.6147 24.0059 31.5141 24.0241 31.3398 24.0744C31.1283 24.1309 30.9645 24.1526 30.8482 24.1394C30.7371 24.1246 30.6382 24.0695 30.5516 23.974C30.5 23.9178 30.422 23.7439 30.3174 23.4526C30.2113 23.1562 30.1448 22.9311 30.1179 22.7773C30.1055 22.6861 30.115 22.5934 30.1465 22.4993C30.1763 22.4002 30.2192 22.3416 30.2751 22.3237C30.2903 22.3189 30.3014 22.3097 30.3083 22.2963C30.3136 22.2778 30.4052 22.2317 30.5832 22.1579C30.7646 22.0773 30.9137 22.0184 31.0305 21.981C31.1727 21.9354 31.326 21.8807 31.4904 21.8169C31.6531 21.7479 31.7405 21.706 31.7525 21.6909C31.773 21.6676 31.7637 21.5949 31.7247 21.473C31.6856 21.3511 31.651 21.2866 31.6207 21.2795C31.5636 21.2586 31.1705 21.4125 30.4413 21.7413C30.2751 21.8169 30.1291 21.8329 30.0031 21.7892C29.8755 21.7405 29.7973 21.6451 29.7686 21.5031C29.7432 21.3713 29.7647 21.2636 29.8331 21.18C29.9067 21.0949 30.0434 21.0147 30.2433 20.9395C30.6161 20.792 30.894 20.6806 31.0771 20.6052Z" fill="black"/>
</svg>
