<svg width="37" height="37" viewBox="0 0 37 37" fill="none" xmlns="http://www.w3.org/2000/svg">
<path d="M4.625 10.7917C4.625 7.38591 7.38591 4.625 10.7917 4.625H26.2083C29.614 4.625 32.375 7.38591 32.375 10.7917V26.2083C32.375 29.614 29.614 32.375 26.2083 32.375H10.7917C7.38591 32.375 4.625 29.614 4.625 26.2083V10.7917Z" stroke="black" stroke-width="2"/>
<path d="M25.0889 17.1702C25.6909 16.5682 25.6909 15.592 25.0889 14.99L22.3268 12.2279C21.7248 11.6258 20.7486 11.6259 20.1466 12.2279L13.8149 18.5595L12.8693 24.2773C12.8521 24.3816 12.9425 24.472 13.0468 24.4546L18.7573 23.502L25.0889 17.1702Z" stroke="black" stroke-width="2"/>
</svg>
