<svg width="40" height="67" viewBox="0 0 40 67" fill="none" xmlns="http://www.w3.org/2000/svg">
<path d="M1.6565 0.287018C1.29032 0.538452 1.27289 0.682129 1.27289 3.23236C1.27289 5.78259 1.29032 5.92627 1.6565 6.1777C1.86574 6.33933 2.1796 6.46505 2.33653 6.46505C2.58065 6.46505 2.35397 7.03975 1.3252 9.10508L0 11.7271L0.122058 36.7625L0.244115 61.7979L1.36007 64.1147C1.98779 65.3898 2.63296 66.5212 2.82476 66.629C3.05144 66.7547 8.68352 66.8086 20.0872 66.8086C36.5824 66.8086 37.0183 66.8086 37.3496 66.4674C37.5414 66.2698 38.1517 65.1204 38.7271 63.8992L39.7733 61.6902L39.8954 36.6727L40 11.6733L38.6748 9.06916C37.367 6.50097 37.3496 6.46505 37.7855 6.46505C38.0296 6.46505 38.3958 6.30342 38.5876 6.10586C38.9015 5.78259 38.9364 5.5132 38.9364 3.23236C38.9364 0.951515 38.9015 0.682129 38.5876 0.358856C38.2389 -0.000328064 38.0122 -0.000328064 20.1395 -0.000328064C4.04534 -0.000328064 2.00523 0.0355911 1.6565 0.287018ZM36.8439 3.23236V4.30993H20.1046H3.3653V3.23236V2.1548H20.1046H36.8439V3.23236ZM36.0767 8.62018L37.1404 10.7753H19.9826H2.82476L3.92328 8.62018L5.0218 6.46505H20.0174H35.0131L36.0767 8.62018ZM21.0636 14.0619C21.0636 15.319 21.4124 16.0015 22.4237 16.7378C23.2258 17.3305 25.0044 17.3305 25.8065 16.7378C26.8178 16.0015 27.1665 15.319 27.1665 14.0619V12.9304H32.5371H37.8901V16.0194C37.8901 17.7256 37.8378 21.1199 37.7681 23.5624L37.6635 28.0163H34.2459L30.8282 27.9984L30.2354 27.1183C29.3461 25.7534 27.306 23.8677 25.9459 23.1314C23.8012 21.982 22.4237 21.6407 19.9303 21.6407C17.4368 21.6407 16.0593 21.982 13.9146 23.1314C12.5545 23.8677 10.2877 25.9869 9.52049 27.2261L9.03226 28.0163H5.59721H2.14473V20.4734V12.9304H11.6129H21.0636V14.0619ZM24.8126 13.2896C25.0044 13.4872 25.1613 13.8104 25.1613 14.008C25.1613 14.2055 25.0044 14.5288 24.8126 14.7264C24.6207 14.9239 24.3069 15.0856 24.1151 15.0856C23.9233 15.0856 23.6094 14.9239 23.4176 14.7264C23.2258 14.5288 23.0689 14.2055 23.0689 14.008C23.0689 13.8104 23.2258 13.4872 23.4176 13.2896C23.6094 13.0921 23.9233 12.9304 24.1151 12.9304C24.3069 12.9304 24.6207 13.0921 24.8126 13.2896ZM22.1099 23.9755C24.7428 24.5502 27.3409 26.4179 28.8056 28.8065C29.1892 29.4351 29.6251 29.9918 29.782 30.0637C29.939 30.1176 31.8396 30.1714 34.0017 30.1714H37.9425L37.8204 31.5543C37.7681 32.3086 37.7158 35.218 37.7158 38.0197V43.1022H33.8971C31.7873 43.1022 29.939 43.1561 29.782 43.21C29.6251 43.2818 29.1892 43.8385 28.8056 44.4671C26.9224 47.5382 23.3827 49.5676 19.9303 49.5676C16.4778 49.5676 12.9381 47.5382 11.0549 44.4671C10.6713 43.8385 10.2354 43.2818 10.0785 43.21C9.92153 43.1561 8.12554 43.1022 6.08544 43.1022H2.3714L2.26678 41.3422C2.19704 40.3903 2.14473 37.4809 2.14473 34.8768V30.1714H5.96338C8.07323 30.1714 9.92153 30.1176 10.0785 30.0637C10.2354 29.9918 10.6713 29.4351 11.0549 28.8065C13.4089 24.9812 17.8204 23.0416 22.1099 23.9755ZM9.62511 46.1553C11.1072 48.4182 13.6879 50.3219 16.4429 51.2198C18.3261 51.8125 21.5344 51.8125 23.4176 51.2198C26.1726 50.3219 28.7533 48.4182 30.2354 46.1553L30.8282 45.2753L34.2807 45.2573H37.7158V52.8003V60.3432H20.0174H2.31909V52.8003V45.2573H5.68439L9.03226 45.2753L9.62511 46.1553ZM36.8963 62.8037C36.8265 62.9653 36.6173 63.4322 36.408 63.8273L36.0244 64.5637L20 64.6175L3.95815 64.6535L3.48736 63.6657C3.22581 63.109 3.01656 62.6241 3.01656 62.5881C3.01656 62.5343 10.6713 62.4983 20.0174 62.4983C35.7977 62.4983 37.0009 62.5163 36.8963 62.8037Z" fill="#032D99"/>
<path d="M31.4558 17.3669C30.7409 17.5105 29.5726 18.8934 29.4331 19.7375C29.2239 21.0126 29.468 21.8747 30.3049 22.7188C31.5778 24.0478 33.3913 24.0478 34.6641 22.7367C36.0416 21.3179 35.9022 19.1089 34.3503 17.8877C33.7226 17.3848 32.4148 17.1514 31.4558 17.3669ZM33.182 19.7555C33.3738 19.953 33.5308 20.2763 33.5308 20.4738C33.5308 20.6714 33.3738 20.9947 33.182 21.1922C32.9902 21.3898 32.6763 21.5514 32.4845 21.5514C32.2927 21.5514 31.9789 21.3898 31.7871 21.1922C31.5953 20.9947 31.4383 20.6714 31.4383 20.4738C31.4383 20.2763 31.5953 19.953 31.7871 19.7555C31.9789 19.5579 32.2927 19.3963 32.4845 19.3963C32.6763 19.3963 32.9902 19.5579 33.182 19.7555Z" fill="#032D99"/>
<path d="M6.34688 18.4447C6.1202 18.4986 5.5971 18.8757 5.19605 19.3068C4.6032 19.9174 4.4114 20.2586 4.30678 20.9231C3.97548 23.2399 5.73659 25.0538 7.98594 24.7125C9.08446 24.5329 10.2353 23.3835 10.4271 22.288C10.6363 21.0129 10.3922 20.1508 9.57269 19.3068C8.68341 18.3908 7.81157 18.1573 6.34688 18.4447ZM8.07312 20.8333C8.26493 21.0309 8.42186 21.3541 8.42186 21.5517C8.42186 21.7492 8.26493 22.0725 8.07312 22.27C7.88132 22.4676 7.56746 22.6292 7.37565 22.6292C7.18385 22.6292 6.86999 22.4676 6.67818 22.27C6.48638 22.0725 6.32945 21.7492 6.32945 21.5517C6.32945 21.3541 6.48638 21.0309 6.67818 20.8333C6.86999 20.6357 7.18385 20.4741 7.37565 20.4741C7.56746 20.4741 7.88132 20.6357 8.07312 20.8333Z" fill="#032D99"/>
<path d="M6.67784 32.6859C6.36398 33.0092 6.3291 33.2786 6.3291 35.0207C6.3291 37.535 6.45116 37.7146 8.24715 37.7146H9.46772V38.2534V38.7921H7.89841H6.3291V39.8697V40.9473H8.59588C11.5776 40.9473 11.5601 40.9652 11.5601 38.2534C11.5601 35.739 11.4381 35.5594 9.64209 35.5594H8.42152V35.0207V34.4819H9.99083H11.5601V33.4043V32.3268H9.29336C7.25325 32.3268 6.9917 32.3627 6.67784 32.6859Z" fill="#032D99"/>
<path d="M12.9558 32.6863C12.6245 33.0275 12.6071 33.279 12.6071 36.6374C12.6071 41.235 12.3978 40.9476 15.7457 40.9476C19.0936 40.9476 18.8843 41.235 18.8843 36.6374C18.8843 32.0398 19.0936 32.3271 15.7457 32.3271C13.5312 32.3271 13.2697 32.363 12.9558 32.6863ZM16.7919 36.6374V38.7925H15.7457H14.6995V36.6374V34.4822H15.7457H16.7919V36.6374Z" fill="#032D99"/>
<path d="M20.2787 32.6866C19.9474 33.0278 19.9299 33.2792 19.9299 36.6376C19.9299 41.0736 19.8602 40.9479 22.1095 40.9479C25.1958 40.9479 26.2072 39.8883 26.2072 36.6376C26.2072 33.387 25.1958 32.3274 22.1095 32.3274C20.8541 32.3274 20.5751 32.3813 20.2787 32.6866ZM23.766 34.8417C24.0624 35.147 24.1148 35.4343 24.1148 36.6376C24.1148 38.3617 23.8358 38.7928 22.7198 38.7928H22.0223V36.6376V34.4825H22.7198C23.1906 34.4825 23.5393 34.6082 23.766 34.8417Z" fill="#032D99"/>
<path d="M27.6026 32.6859C27.2713 33.0272 27.2539 33.2786 27.2539 36.9962V40.9473H28.3001H29.3463V39.8697V38.7921H30.3925H31.4387V39.8697V40.9473H32.4849H33.5312V36.9962C33.5312 31.9676 33.7753 32.3268 30.3925 32.3268C28.1781 32.3268 27.9165 32.3627 27.6026 32.6859ZM31.4387 35.5594V36.637H30.3925H29.3463V35.5594V34.4819H30.3925H31.4387V35.5594Z" fill="#032D99"/>
<path d="M31.4558 47.5387C30.7409 47.6824 29.5726 49.0653 29.4331 49.9094C29.2239 51.1845 29.468 52.0466 30.3049 52.8906C31.5778 54.2196 33.3913 54.2196 34.6641 52.9086C36.0416 51.4898 35.9022 49.2808 34.3503 48.0596C33.7226 47.5567 32.4148 47.3232 31.4558 47.5387ZM33.182 49.9273C33.3738 50.1249 33.5308 50.4482 33.5308 50.6457C33.5308 50.8433 33.3738 51.1665 33.182 51.3641C32.9902 51.5617 32.6763 51.7233 32.4845 51.7233C32.2927 51.7233 31.9789 51.5617 31.7871 51.3641C31.5953 51.1665 31.4383 50.8433 31.4383 50.6457C31.4383 50.4482 31.5953 50.1249 31.7871 49.9273C31.9789 49.7298 32.2927 49.5682 32.4845 49.5682C32.6763 49.5682 32.9902 49.7298 33.182 49.9273Z" fill="#032D99"/>
<path d="M9.48605 51.8483C8.77114 51.992 7.60287 53.3749 7.46338 54.219C7.25414 55.4941 7.49825 56.3561 8.33522 57.2002C9.6081 58.5292 11.4215 58.5292 12.6944 57.2182C14.0719 55.7994 13.9324 53.5904 12.3806 52.3691C11.7528 51.8663 10.4451 51.6328 9.48605 51.8483ZM11.2123 54.2369C11.4041 54.4345 11.561 54.7577 11.561 54.9553C11.561 55.1528 11.4041 55.4761 11.2123 55.6737C11.0205 55.8712 10.7066 56.0329 10.5148 56.0329C10.323 56.0329 10.0092 55.8712 9.81735 55.6737C9.62554 55.4761 9.46861 55.1528 9.46861 54.9553C9.46861 54.7577 9.62554 54.4345 9.81735 54.2369C10.0092 54.0394 10.323 53.8777 10.5148 53.8777C10.7066 53.8777 11.0205 54.0394 11.2123 54.2369Z" fill="#032D99"/>
</svg>
