<svg width="40" height="68" viewBox="0 0 40 68" fill="none" xmlns="http://www.w3.org/2000/svg">
<path d="M0.384766 32.649C6.83302 28.5484 11.0734 28.8804 20.1778 35.969C27.1621 39.2601 31.3619 38.2509 39.2309 32.649V62.3077H0.384766V32.649Z" fill="#F19393"/>
<path d="M1.6565 0.290245C1.29032 0.543961 1.27289 0.688934 1.27289 3.26234C1.27289 5.83573 1.29032 5.98071 1.6565 6.23442C1.86574 6.39753 2.1796 6.52438 2.33653 6.52438C2.58065 6.52438 2.35397 7.10431 1.3252 9.18839L0 11.8343L0.122058 37.0971L0.244115 62.3598L1.36007 64.6976C1.98779 65.9843 2.63296 67.1261 2.82476 67.2348C3.05144 67.3616 8.68352 67.416 20.0872 67.416C36.5824 67.416 37.0183 67.416 37.3496 67.0717C37.5414 66.8723 38.1517 65.7125 38.7271 64.4802L39.7733 62.2511L39.8954 37.0064L40 11.7799L38.6748 9.15215C37.367 6.56063 37.3496 6.52438 37.7855 6.52438C38.0296 6.52438 38.3958 6.36128 38.5876 6.16193C38.9015 5.83573 38.9364 5.56389 38.9364 3.26234C38.9364 0.960777 38.9015 0.688934 38.5876 0.362732C38.2389 0.000282288 38.0122 0.000282288 20.1395 0.000282288C4.04534 0.000282288 2.00523 0.0365295 1.6565 0.290245ZM36.8439 3.26234V4.34969H20.1046H3.3653V3.26234V2.17498H20.1046H36.8439V3.26234ZM36.0767 8.69909L37.1404 10.8738H19.9826H2.82476L3.92328 8.69909L5.0218 6.52438H20.0174H35.0131L36.0767 8.69909ZM21.0636 14.1902C21.0636 15.4588 21.4124 16.1474 22.4237 16.8905C23.2258 17.4885 25.0044 17.4885 25.8065 16.8905C26.8178 16.1474 27.1665 15.4588 27.1665 14.1902V13.0485H32.5371H37.8901V16.1656C37.8901 17.8872 37.8378 21.3124 37.7681 23.777L37.6635 28.2714H34.2459L30.8282 28.2533L30.2354 27.3653C29.3461 25.988 27.306 24.0851 25.9459 23.3421C23.8012 22.1822 22.4237 21.8379 19.9303 21.8379C17.4368 21.8379 16.0593 22.1822 13.9146 23.3421C12.5545 24.0851 10.2877 26.2236 9.52049 27.474L9.03226 28.2714H5.59721H2.14473V20.6599V13.0485H11.6129H21.0636V14.1902ZM24.8126 13.4109C25.0044 13.6103 25.1613 13.9365 25.1613 14.1358C25.1613 14.3352 25.0044 14.6614 24.8126 14.8607C24.6207 15.0601 24.3069 15.2232 24.1151 15.2232C23.9233 15.2232 23.6094 15.0601 23.4176 14.8607C23.2258 14.6614 23.0689 14.3352 23.0689 14.1358C23.0689 13.9365 23.2258 13.6103 23.4176 13.4109C23.6094 13.2116 23.9233 13.0485 24.1151 13.0485C24.3069 13.0485 24.6207 13.2116 24.8126 13.4109ZM22.1099 24.1938C24.7428 24.7738 27.3409 26.6585 28.8056 29.0688C29.1892 29.7031 29.6251 30.2649 29.782 30.3374C29.939 30.3917 31.8396 30.4461 34.0017 30.4461H37.9425L37.8204 31.8415C37.7681 32.6027 37.7158 35.5385 37.7158 38.3656V43.4943H33.8971C31.7873 43.4943 29.939 43.5487 29.782 43.603C29.6251 43.6755 29.1892 44.2373 28.8056 44.8716C26.9224 47.9706 23.3827 50.0184 19.9303 50.0184C16.4778 50.0184 12.9381 47.9706 11.0549 44.8716C10.6713 44.2373 10.2354 43.6755 10.0785 43.603C9.92153 43.5487 8.12554 43.4943 6.08544 43.4943H2.3714L2.26678 41.7183C2.19704 40.7578 2.14473 37.822 2.14473 35.1942V30.4461H5.96338C8.07323 30.4461 9.92153 30.3917 10.0785 30.3374C10.2354 30.2649 10.6713 29.7031 11.0549 29.0688C13.4089 25.2087 17.8204 23.2515 22.1099 24.1938ZM9.62511 46.5751C11.1072 48.8586 13.6879 50.7796 16.4429 51.6857C18.3261 52.2837 21.5344 52.2837 23.4176 51.6857C26.1726 50.7796 28.7533 48.8586 30.2354 46.5751L30.8282 45.6871L34.2807 45.669H37.7158V53.2805V60.8919H20.0174H2.31909V53.2805V45.669H5.68439L9.03226 45.6871L9.62511 46.5751ZM36.8963 63.3747C36.8265 63.5378 36.6173 64.009 36.408 64.4077L36.0244 65.1507L20 65.2051L3.95815 65.2413L3.48736 64.2446C3.22581 63.6828 3.01656 63.1935 3.01656 63.1572C3.01656 63.1029 10.6713 63.0666 20.0174 63.0666C35.7977 63.0666 37.0009 63.0847 36.8963 63.3747Z" fill="#032D99"/>
<path d="M31.4558 17.525C30.7409 17.67 29.5726 19.0654 29.4331 19.9172C29.2239 21.2039 29.468 22.0738 30.3049 22.9255C31.5778 24.2666 33.3913 24.2666 34.6641 22.9436C36.0416 21.512 35.9022 19.2829 34.3503 18.0506C33.7226 17.5431 32.4148 17.3075 31.4558 17.525ZM33.182 19.9353C33.3738 20.1347 33.5308 20.4609 33.5308 20.6602C33.5308 20.8596 33.3738 21.1858 33.182 21.3851C32.9902 21.5845 32.6763 21.7476 32.4845 21.7476C32.2927 21.7476 31.9789 21.5845 31.7871 21.3851C31.5953 21.1858 31.4383 20.8596 31.4383 20.6602C31.4383 20.4609 31.5953 20.1347 31.7871 19.9353C31.9789 19.736 32.2927 19.5729 32.4845 19.5729C32.6763 19.5729 32.9902 19.736 33.182 19.9353Z" fill="#032D99"/>
<path d="M6.34688 18.612C6.1202 18.6664 5.5971 19.0469 5.19605 19.4819C4.6032 20.098 4.4114 20.4424 4.30678 21.1129C3.97548 23.4507 5.73659 25.2811 7.98594 24.9368C9.08446 24.7555 10.2353 23.5957 10.4271 22.4902C10.6363 21.2035 10.3922 20.3336 9.57269 19.4819C8.68341 18.5576 7.81157 18.322 6.34688 18.612ZM8.07312 21.0223C8.26493 21.2216 8.42186 21.5479 8.42186 21.7472C8.42186 21.9465 8.26493 22.2728 8.07312 22.4721C7.88132 22.6714 7.56746 22.8345 7.37565 22.8345C7.18385 22.8345 6.86999 22.6714 6.67818 22.4721C6.48638 22.2728 6.32945 21.9465 6.32945 21.7472C6.32945 21.5479 6.48638 21.2216 6.67818 21.0223C6.86999 20.8229 7.18385 20.6598 7.37565 20.6598C7.56746 20.6598 7.88132 20.8229 8.07312 21.0223Z" fill="#032D99"/>
<path d="M6.67881 32.983C6.36495 33.3092 6.33008 33.581 6.33008 35.3389C6.33008 37.8761 6.45214 38.0573 8.24813 38.0573H9.4687V38.601V39.1446H7.89939H6.33008V40.232V41.3193H8.59686C11.5786 41.3193 11.5611 41.3375 11.5611 38.601C11.5611 36.0638 11.4391 35.8826 9.64307 35.8826H8.42249V35.3389V34.7952H9.9918H11.5611V33.7079V32.6205H9.29433C7.25423 32.6205 6.99268 32.6568 6.67881 32.983Z" fill="#032D99"/>
<path d="M12.9558 32.9833C12.6245 33.3276 12.6071 33.5814 12.6071 36.9703C12.6071 41.6096 12.3978 41.3197 15.7457 41.3197C19.0936 41.3197 18.8843 41.6096 18.8843 36.9703C18.8843 32.3309 19.0936 32.6209 15.7457 32.6209C13.5312 32.6209 13.2697 32.6571 12.9558 32.9833ZM16.7919 36.9703V39.145H15.7457H14.6995V36.9703V34.7956H15.7457H16.7919V36.9703Z" fill="#032D99"/>
<path d="M20.2787 32.9836C19.9474 33.3279 19.9299 33.5816 19.9299 36.9705C19.9299 41.4468 19.8602 41.3199 22.1095 41.3199C25.1958 41.3199 26.2072 40.2507 26.2072 36.9705C26.2072 33.6904 25.1958 32.6211 22.1095 32.6211C20.8541 32.6211 20.5751 32.6755 20.2787 32.9836ZM23.766 35.1583C24.0624 35.4664 24.1148 35.7563 24.1148 36.9705C24.1148 38.7103 23.8358 39.1452 22.7198 39.1452H22.0223V36.9705V34.7958H22.7198C23.1906 34.7958 23.5393 34.9227 23.766 35.1583Z" fill="#032D99"/>
<path d="M27.6026 32.983C27.2713 33.3273 27.2539 33.581 27.2539 37.3324V41.3193H28.3001H29.3463V40.232V39.1446H30.3925H31.4387V40.232V41.3193H32.4849H33.5312V37.3324C33.5312 32.2581 33.7753 32.6205 30.3925 32.6205C28.1781 32.6205 27.9165 32.6568 27.6026 32.983ZM31.4387 35.8826V36.9699H30.3925H29.3463V35.8826V34.7952H30.3925H31.4387V35.8826Z" fill="#032D99"/>
<path d="M31.4558 47.9703C30.7409 48.1153 29.5726 49.5107 29.4331 50.3625C29.2239 51.6492 29.468 52.5191 30.3049 53.3708C31.5778 54.7119 33.3913 54.7119 34.6641 53.389C36.0416 51.9573 35.9022 49.7282 34.3503 48.4959C33.7226 47.9884 32.4148 47.7529 31.4558 47.9703ZM33.182 50.3806C33.3738 50.58 33.5308 50.9062 33.5308 51.1055C33.5308 51.3049 33.3738 51.6311 33.182 51.8304C32.9902 52.0298 32.6763 52.1929 32.4845 52.1929C32.2927 52.1929 31.9789 52.0298 31.7871 51.8304C31.5953 51.6311 31.4383 51.3049 31.4383 51.1055C31.4383 50.9062 31.5953 50.58 31.7871 50.3806C31.9789 50.1813 32.2927 50.0182 32.4845 50.0182C32.6763 50.0182 32.9902 50.1813 33.182 50.3806Z" fill="#032D99"/>
<path d="M9.48605 52.3199C8.77114 52.4649 7.60287 53.8603 7.46338 54.7121C7.25414 55.9988 7.49825 56.8687 8.33522 57.7204C9.6081 59.0615 11.4215 59.0615 12.6944 57.7386C14.0719 56.3069 13.9324 54.0778 12.3806 52.8455C11.7528 52.3381 10.4451 52.1025 9.48605 52.3199ZM11.2123 54.7302C11.4041 54.9296 11.561 55.2558 11.561 55.4551C11.561 55.6545 11.4041 55.9807 11.2123 56.18C11.0205 56.3794 10.7066 56.5425 10.5148 56.5425C10.323 56.5425 10.0092 56.3794 9.81735 56.18C9.62554 55.9807 9.46861 55.6545 9.46861 55.4551C9.46861 55.2558 9.62554 54.9296 9.81735 54.7302C10.0092 54.5309 10.323 54.3678 10.5148 54.3678C10.7066 54.3678 11.0205 54.5309 11.2123 54.7302Z" fill="#032D99"/>
</svg>
