<svg width="89" height="150" viewBox="0 0 89 150" fill="none" xmlns="http://www.w3.org/2000/svg">
<path d="M0.856445 78.3099C15.2038 70.3139 24.6386 70.9612 44.896 84.7839C60.436 91.2017 69.7805 89.2338 87.2891 78.3099V136.144H0.856445V78.3099Z" fill="#35DB78"/>
<path d="M3.6857 0.645172C2.87097 1.20969 2.83217 1.53226 2.83217 7.25807C2.83217 12.9839 2.87097 13.3065 3.6857 13.871C4.15126 14.2339 4.84961 14.5161 5.19878 14.5161C5.74194 14.5161 5.23758 15.8065 2.94856 20.4436L0 26.3307L0.271578 82.5403L0.543156 138.75L3.02616 143.952C4.42284 146.815 5.85833 149.355 6.28509 149.597C6.78945 149.879 19.3208 150 44.694 150C81.3958 150 82.3657 150 83.1029 149.234C83.5296 148.79 84.8875 146.21 86.1678 143.468L88.4956 138.508L88.7672 82.3387L89 26.2097L86.0514 20.3629C83.1417 14.5968 83.1029 14.5161 84.0728 14.5161C84.616 14.5161 85.4307 14.1532 85.8575 13.7097C86.5558 12.9839 86.6334 12.379 86.6334 7.25807C86.6334 2.1371 86.5558 1.53226 85.8575 0.806458C85.0815 0 84.5772 0 44.8104 0C9.00087 0 4.46164 0.0806427 3.6857 0.645172ZM81.9778 7.25807V9.67743H44.7328H7.48779V7.25807V4.83871H44.7328H81.9778V7.25807ZM80.2707 19.3548L82.6373 24.1936H44.4612H6.28509L8.72929 19.3548L11.1735 14.5161H44.5388H77.9041L80.2707 19.3548ZM46.8666 31.5726C46.8666 34.3952 47.6425 35.9274 49.8928 37.5807C51.6774 38.9113 55.6347 38.9113 57.4194 37.5807C59.6696 35.9274 60.4455 34.3952 60.4455 31.5726V29.0323H72.3949H84.3056V35.9677C84.3056 39.7984 84.1892 47.4194 84.034 52.9032L83.8012 62.9032H76.197L68.5928 62.8629L67.2738 60.8871C65.2951 57.8226 60.7559 53.5887 57.7297 51.9355C52.9577 49.3548 49.8928 48.5887 44.3448 48.5887C38.7969 48.5887 35.7319 49.3548 30.9599 51.9355C27.9337 53.5887 22.8901 58.3468 21.1831 61.129L20.0968 62.9032H12.4538H4.77201V45.9677V29.0323H25.8387H46.8666V31.5726ZM55.2079 29.8387C55.6347 30.2823 55.9839 31.0081 55.9839 31.4516C55.9839 31.8952 55.6347 32.621 55.2079 33.0645C54.7812 33.5081 54.0828 33.871 53.6561 33.871C53.2293 33.871 52.5309 33.5081 52.1042 33.0645C51.6774 32.621 51.3282 31.8952 51.3282 31.4516C51.3282 31.0081 51.6774 30.2823 52.1042 29.8387C52.5309 29.3952 53.2293 29.0323 53.6561 29.0323C54.0828 29.0323 54.7812 29.3952 55.2079 29.8387ZM49.1944 53.8307C55.0527 55.121 60.8335 59.3145 64.0924 64.6774C64.9459 66.0887 65.9159 67.3387 66.265 67.5C66.6142 67.621 70.8431 67.7419 75.6539 67.7419H84.422L84.1504 70.8468C84.034 72.5403 83.9176 79.0726 83.9176 85.3629V96.7742H75.4211C70.7267 96.7742 66.6142 96.8952 66.265 97.0161C65.9159 97.1774 64.9459 98.4274 64.0924 99.8387C59.9024 106.734 52.0266 111.29 44.3448 111.29C36.663 111.29 28.7873 106.734 24.5972 99.8387C23.7437 98.4274 22.7738 97.1774 22.4246 97.0161C22.0754 96.8952 18.0793 96.7742 13.5401 96.7742H5.27637L5.04359 92.8226C4.8884 90.6855 4.77201 84.1532 4.77201 78.3065V67.7419H13.2685C17.9629 67.7419 22.0754 67.621 22.4246 67.5C22.7738 67.3387 23.7437 66.0887 24.5972 64.6774C29.8348 56.0887 39.6504 51.7339 49.1944 53.8307ZM21.4159 103.629C24.7136 108.71 30.4555 112.984 36.5854 115C40.7755 116.331 47.9141 116.331 52.1042 115C58.2341 112.984 63.976 108.71 67.2738 103.629L68.5928 101.653L76.2746 101.613H83.9176V118.548V135.484H44.5388H5.15998V118.548V101.613H12.6478L20.0968 101.653L21.4159 103.629ZM82.0942 141.008C81.939 141.371 81.4734 142.419 81.0078 143.306L80.1543 144.96L44.5 145.081L8.80689 145.161L7.75937 142.944C7.17742 141.694 6.71186 140.605 6.71186 140.524C6.71186 140.403 23.7437 140.323 44.5388 140.323C79.65 140.323 82.3269 140.363 82.0942 141.008Z" fill="white"/>
<path d="M69.989 38.9919C68.3984 39.3145 65.799 42.4193 65.4886 44.3145C65.023 47.1774 65.5662 49.1128 67.4284 51.008C70.2606 53.9919 74.2955 53.9919 77.1276 51.0483C80.1926 47.8628 79.8822 42.9032 76.4293 40.1612C75.0326 39.0322 72.1228 38.508 69.989 38.9919ZM73.8299 44.3548C74.2567 44.7983 74.6058 45.5241 74.6058 45.9677C74.6058 46.4112 74.2567 47.137 73.8299 47.5806C73.4031 48.0241 72.7048 48.387 72.278 48.387C71.8513 48.387 71.1529 48.0241 70.7262 47.5806C70.2994 47.137 69.9502 46.4112 69.9502 45.9677C69.9502 45.5241 70.2994 44.7983 70.7262 44.3548C71.1529 43.9112 71.8513 43.5483 72.278 43.5483C72.7048 43.5483 73.4031 43.9112 73.8299 44.3548Z" fill="white"/>
<path d="M14.1218 41.4107C13.6174 41.5317 12.4535 42.3784 11.5612 43.3462C10.2421 44.7171 9.81534 45.4833 9.58256 46.9752C8.84542 52.1768 12.7639 56.2494 17.7687 55.4833C20.2129 55.08 22.7735 52.4994 23.2003 50.0397C23.6658 47.1768 23.1227 45.2413 21.2992 43.3462C19.3206 41.2897 17.3807 40.7655 14.1218 41.4107ZM17.9627 46.7736C18.3894 47.2171 18.7386 47.9429 18.7386 48.3865C18.7386 48.83 18.3894 49.5558 17.9627 49.9994C17.5359 50.4429 16.8376 50.8058 16.4108 50.8058C15.984 50.8058 15.2857 50.4429 14.8589 49.9994C14.4322 49.5558 14.083 48.83 14.083 48.3865C14.083 47.9429 14.4322 47.2171 14.8589 46.7736C15.2857 46.33 15.984 45.9671 16.4108 45.9671C16.8376 45.9671 17.5359 46.33 17.9627 46.7736Z" fill="white"/>
<path d="M14.8589 73.3871C14.1606 74.113 14.083 74.7178 14.083 78.6291C14.083 84.2742 14.3546 84.6775 18.3507 84.6775H21.0664V85.8872V87.0968H17.5747H14.083V89.5162V91.9355H19.1266C25.7609 91.9355 25.7221 91.9759 25.7221 85.8872C25.7221 80.242 25.4505 79.8388 21.4544 79.8388H18.7386V78.6291V77.4194H22.2303H25.7221V75.0001V72.5807H20.6785C16.1392 72.5807 15.5573 72.6613 14.8589 73.3871Z" fill="white"/>
<path d="M28.8256 73.387C28.0885 74.1531 28.0497 74.7177 28.0497 82.258C28.0497 92.5806 27.5841 91.9354 35.0331 91.9354C42.4821 91.9354 42.0166 92.5806 42.0166 82.258C42.0166 71.9354 42.4821 72.5806 35.0331 72.5806C30.1059 72.5806 29.524 72.6612 28.8256 73.387ZM37.3609 82.258V87.0967H35.0331H32.7053V82.258V77.4193H35.0331H37.3609V82.258Z" fill="white"/>
<path d="M45.1212 73.3873C44.3841 74.1535 44.3453 74.718 44.3453 82.2583C44.3453 92.218 44.1901 91.9357 49.1949 91.9357C56.0619 91.9357 58.3121 89.5567 58.3121 82.2583C58.3121 74.9599 56.0619 72.5809 49.1949 72.5809C46.4015 72.5809 45.7807 72.7018 45.1212 73.3873ZM52.8806 78.226C53.5401 78.9115 53.6565 79.5567 53.6565 82.2583C53.6565 86.1293 53.0358 87.097 50.5528 87.097H49.0009V82.2583V77.4196H50.5528C51.6003 77.4196 52.3762 77.7018 52.8806 78.226Z" fill="white"/>
<path d="M61.4146 73.3872C60.6775 74.1533 60.6387 74.7178 60.6387 83.0646V91.9355H62.9665H65.2943V89.5162V87.0968H67.6221H69.9499V89.5162V91.9355H72.2777H74.6055V83.0646C74.6055 71.7743 75.1487 72.5807 67.6221 72.5807C62.6949 72.5807 62.113 72.6614 61.4146 73.3872ZM69.9499 79.8388V82.2581H67.6221H65.2943V79.8388V77.4194H67.6221H69.9499V79.8388Z" fill="white"/>
<path d="M69.989 106.734C68.3984 107.057 65.799 110.161 65.4886 112.057C65.023 114.92 65.5662 116.855 67.4284 118.75C70.2606 121.734 74.2955 121.734 77.1276 118.791C80.1926 115.605 79.8822 110.645 76.4293 107.903C75.0326 106.774 72.1228 106.25 69.989 106.734ZM73.8299 112.097C74.2567 112.541 74.6058 113.266 74.6058 113.71C74.6058 114.153 74.2567 114.879 73.8299 115.323C73.4031 115.766 72.7048 116.129 72.278 116.129C71.8513 116.129 71.1529 115.766 70.7262 115.323C70.2994 114.879 69.9502 114.153 69.9502 113.71C69.9502 113.266 70.2994 112.541 70.7262 112.097C71.1529 111.653 71.8513 111.291 72.278 111.291C72.7048 111.291 73.4031 111.653 73.8299 112.097Z" fill="white"/>
<path d="M21.1052 116.411C19.5146 116.733 16.9152 119.838 16.6048 121.733C16.1392 124.596 16.6824 126.532 18.5446 128.427C21.3768 131.411 25.4117 131.411 28.2439 128.467C31.3088 125.282 30.9984 120.322 27.5455 117.58C26.1488 116.451 23.2391 115.927 21.1052 116.411ZM24.9461 121.774C25.3729 122.217 25.7221 122.943 25.7221 123.387C25.7221 123.83 25.3729 124.556 24.9461 125C24.5194 125.443 23.821 125.806 23.3942 125.806C22.9675 125.806 22.2691 125.443 21.8424 125C21.4156 124.556 21.0664 123.83 21.0664 123.387C21.0664 122.943 21.4156 122.217 21.8424 121.774C22.2691 121.33 22.9675 120.967 23.3942 120.967C23.821 120.967 24.5194 121.33 24.9461 121.774Z" fill="white"/>
</svg>
